<svg width="1384" height="689" viewBox="0 0 1384 689" fill="none" xmlns="http://www.w3.org/2000/svg">
<path d="M1072.5 27.2647C1072.5 28.5155 1071.5 29.5294 1070.25 29.5294C1069.01 29.5294 1068 28.5155 1068 27.2647C1068 26.0139 1069.01 25 1070.25 25C1071.5 25 1072.5 26.0139 1072.5 27.2647Z" fill="#818393"/>
<path d="M1086.02 27.2647C1086.02 28.5155 1085.01 29.5294 1083.77 29.5294C1082.52 29.5294 1081.51 28.5155 1081.51 27.2647C1081.51 26.0139 1082.52 25 1083.77 25C1085.01 25 1086.02 26.0139 1086.02 27.2647Z" fill="#818393"/>
<path d="M1099.53 27.2647C1099.53 28.5155 1098.52 29.5294 1097.28 29.5294C1096.04 29.5294 1095.03 28.5155 1095.03 27.2647C1095.03 26.0139 1096.04 25 1097.28 25C1098.52 25 1099.53 26.0139 1099.53 27.2647Z" fill="#818393"/>
<path d="M1113.05 27.2647C1113.05 28.5155 1112.04 29.5294 1110.79 29.5294C1109.55 29.5294 1108.54 28.5155 1108.54 27.2647C1108.54 26.0139 1109.55 25 1110.79 25C1112.04 25 1113.05 26.0139 1113.05 27.2647Z" fill="#818393"/>
<path d="M1126.56 27.2647C1126.56 28.5155 1125.55 29.5294 1124.31 29.5294C1123.06 29.5294 1122.06 28.5155 1122.06 27.2647C1122.06 26.0139 1123.06 25 1124.31 25C1125.55 25 1126.56 26.0139 1126.56 27.2647Z" fill="#818393"/>
<path d="M1140.07 27.2647C1140.07 28.5155 1139.07 29.5294 1137.82 29.5294C1136.58 29.5294 1135.57 28.5155 1135.57 27.2647C1135.57 26.0139 1136.58 25 1137.82 25C1139.07 25 1140.07 26.0139 1140.07 27.2647Z" fill="#818393"/>
<path d="M1153.59 27.2647C1153.59 28.5155 1152.58 29.5294 1151.33 29.5294C1150.09 29.5294 1149.08 28.5155 1149.08 27.2647C1149.08 26.0139 1150.09 25 1151.33 25C1152.58 25 1153.59 26.0139 1153.59 27.2647Z" fill="#818393"/>
<path d="M1167.1 27.2647C1167.1 28.5155 1166.09 29.5294 1164.85 29.5294C1163.6 29.5294 1162.6 28.5155 1162.6 27.2647C1162.6 26.0139 1163.6 25 1164.85 25C1166.09 25 1167.1 26.0139 1167.1 27.2647Z" fill="#818393"/>
<path d="M1180.61 27.2647C1180.61 28.5155 1179.61 29.5294 1178.36 29.5294C1177.12 29.5294 1176.11 28.5155 1176.11 27.2647C1176.11 26.0139 1177.12 25 1178.36 25C1179.61 25 1180.61 26.0139 1180.61 27.2647Z" fill="#818393"/>
<path d="M1194.13 27.2647C1194.13 28.5155 1193.12 29.5294 1191.88 29.5294C1190.63 29.5294 1189.62 28.5155 1189.62 27.2647C1189.62 26.0139 1190.63 25 1191.88 25C1193.12 25 1194.13 26.0139 1194.13 27.2647Z" fill="#818393"/>
<path d="M1207.64 27.2647C1207.64 28.5155 1206.63 29.5294 1205.39 29.5294C1204.15 29.5294 1203.14 28.5155 1203.14 27.2647C1203.14 26.0139 1204.15 25 1205.39 25C1206.63 25 1207.64 26.0139 1207.64 27.2647Z" fill="#818393"/>
<path d="M1072.5 40.8529C1072.5 42.1037 1071.5 43.1176 1070.25 43.1176C1069.01 43.1176 1068 42.1037 1068 40.8529C1068 39.6022 1069.01 38.5882 1070.25 38.5882C1071.5 38.5882 1072.5 39.6022 1072.5 40.8529Z" fill="#818393"/>
<path d="M1086.02 40.8529C1086.02 42.1037 1085.01 43.1176 1083.77 43.1176C1082.52 43.1176 1081.51 42.1037 1081.51 40.8529C1081.51 39.6022 1082.52 38.5882 1083.77 38.5882C1085.01 38.5882 1086.02 39.6022 1086.02 40.8529Z" fill="#818393"/>
<path d="M1099.53 40.8529C1099.53 42.1037 1098.52 43.1176 1097.28 43.1176C1096.04 43.1176 1095.03 42.1037 1095.03 40.8529C1095.03 39.6022 1096.04 38.5882 1097.28 38.5882C1098.52 38.5882 1099.53 39.6022 1099.53 40.8529Z" fill="#818393"/>
<path d="M1113.05 40.8529C1113.05 42.1037 1112.04 43.1176 1110.79 43.1176C1109.55 43.1176 1108.54 42.1037 1108.54 40.8529C1108.54 39.6022 1109.55 38.5882 1110.79 38.5882C1112.04 38.5882 1113.05 39.6022 1113.05 40.8529Z" fill="#818393"/>
<path d="M1126.56 40.8529C1126.56 42.1037 1125.55 43.1176 1124.31 43.1176C1123.06 43.1176 1122.06 42.1037 1122.06 40.8529C1122.06 39.6022 1123.06 38.5882 1124.31 38.5882C1125.55 38.5882 1126.56 39.6022 1126.56 40.8529Z" fill="#818393"/>
<path d="M1140.07 40.8529C1140.07 42.1037 1139.07 43.1176 1137.82 43.1176C1136.58 43.1176 1135.57 42.1037 1135.57 40.8529C1135.57 39.6022 1136.58 38.5882 1137.82 38.5882C1139.07 38.5882 1140.07 39.6022 1140.07 40.8529Z" fill="#818393"/>
<path d="M1153.59 40.8529C1153.59 42.1037 1152.58 43.1176 1151.33 43.1176C1150.09 43.1176 1149.08 42.1037 1149.08 40.8529C1149.08 39.6022 1150.09 38.5882 1151.33 38.5882C1152.58 38.5882 1153.59 39.6022 1153.59 40.8529Z" fill="#818393"/>
<path d="M1167.1 40.8529C1167.1 42.1037 1166.09 43.1176 1164.85 43.1176C1163.6 43.1176 1162.6 42.1037 1162.6 40.8529C1162.6 39.6022 1163.6 38.5882 1164.85 38.5882C1166.09 38.5882 1167.1 39.6022 1167.1 40.8529Z" fill="#818393"/>
<path d="M1180.61 40.8529C1180.61 42.1037 1179.61 43.1176 1178.36 43.1176C1177.12 43.1176 1176.11 42.1037 1176.11 40.8529C1176.11 39.6022 1177.12 38.5882 1178.36 38.5882C1179.61 38.5882 1180.61 39.6022 1180.61 40.8529Z" fill="#818393"/>
<path d="M1194.13 40.8529C1194.13 42.1037 1193.12 43.1176 1191.88 43.1176C1190.63 43.1176 1189.62 42.1037 1189.62 40.8529C1189.62 39.6022 1190.63 38.5882 1191.88 38.5882C1193.12 38.5882 1194.13 39.6022 1194.13 40.8529Z" fill="#818393"/>
<path d="M1207.64 40.8529C1207.64 42.1037 1206.63 43.1176 1205.39 43.1176C1204.15 43.1176 1203.14 42.1037 1203.14 40.8529C1203.14 39.6022 1204.15 38.5882 1205.39 38.5882C1206.63 38.5882 1207.64 39.6022 1207.64 40.8529Z" fill="#818393"/>
<path d="M1072.5 54.4412C1072.5 55.6919 1071.5 56.7059 1070.25 56.7059C1069.01 56.7059 1068 55.6919 1068 54.4412C1068 53.1904 1069.01 52.1765 1070.25 52.1765C1071.5 52.1765 1072.5 53.1904 1072.5 54.4412Z" fill="#818393"/>
<path d="M1086.02 54.4412C1086.02 55.6919 1085.01 56.7059 1083.77 56.7059C1082.52 56.7059 1081.51 55.6919 1081.51 54.4412C1081.51 53.1904 1082.52 52.1765 1083.77 52.1765C1085.01 52.1765 1086.02 53.1904 1086.02 54.4412Z" fill="#818393"/>
<path d="M1099.53 54.4412C1099.53 55.6919 1098.52 56.7059 1097.28 56.7059C1096.04 56.7059 1095.03 55.6919 1095.03 54.4412C1095.03 53.1904 1096.04 52.1765 1097.28 52.1765C1098.52 52.1765 1099.53 53.1904 1099.53 54.4412Z" fill="#818393"/>
<path d="M1113.05 54.4412C1113.05 55.6919 1112.04 56.7059 1110.79 56.7059C1109.55 56.7059 1108.54 55.6919 1108.54 54.4412C1108.54 53.1904 1109.55 52.1765 1110.79 52.1765C1112.04 52.1765 1113.05 53.1904 1113.05 54.4412Z" fill="#818393"/>
<path d="M1126.56 54.4412C1126.56 55.6919 1125.55 56.7059 1124.31 56.7059C1123.06 56.7059 1122.06 55.6919 1122.06 54.4412C1122.06 53.1904 1123.06 52.1765 1124.31 52.1765C1125.55 52.1765 1126.56 53.1904 1126.56 54.4412Z" fill="#818393"/>
<path d="M1140.07 54.4412C1140.07 55.6919 1139.07 56.7059 1137.82 56.7059C1136.58 56.7059 1135.57 55.6919 1135.57 54.4412C1135.57 53.1904 1136.58 52.1765 1137.82 52.1765C1139.07 52.1765 1140.07 53.1904 1140.07 54.4412Z" fill="#818393"/>
<path d="M1153.59 54.4412C1153.59 55.6919 1152.58 56.7059 1151.33 56.7059C1150.09 56.7059 1149.08 55.6919 1149.08 54.4412C1149.08 53.1904 1150.09 52.1765 1151.33 52.1765C1152.58 52.1765 1153.59 53.1904 1153.59 54.4412Z" fill="#818393"/>
<path d="M1167.1 54.4412C1167.1 55.6919 1166.09 56.7059 1164.85 56.7059C1163.6 56.7059 1162.6 55.6919 1162.6 54.4412C1162.6 53.1904 1163.6 52.1765 1164.85 52.1765C1166.09 52.1765 1167.1 53.1904 1167.1 54.4412Z" fill="#818393"/>
<path d="M1180.61 54.4412C1180.61 55.6919 1179.61 56.7059 1178.36 56.7059C1177.12 56.7059 1176.11 55.6919 1176.11 54.4412C1176.11 53.1904 1177.12 52.1765 1178.36 52.1765C1179.61 52.1765 1180.61 53.1904 1180.61 54.4412Z" fill="#818393"/>
<path d="M1194.13 54.4412C1194.13 55.6919 1193.12 56.7059 1191.88 56.7059C1190.63 56.7059 1189.62 55.6919 1189.62 54.4412C1189.62 53.1904 1190.63 52.1765 1191.88 52.1765C1193.12 52.1765 1194.13 53.1904 1194.13 54.4412Z" fill="#818393"/>
<path d="M1207.64 54.4412C1207.64 55.6919 1206.63 56.7059 1205.39 56.7059C1204.15 56.7059 1203.14 55.6919 1203.14 54.4412C1203.14 53.1904 1204.15 52.1765 1205.39 52.1765C1206.63 52.1765 1207.64 53.1904 1207.64 54.4412Z" fill="#818393"/>
<path d="M1072.5 68.0294C1072.5 69.2802 1071.5 70.2941 1070.25 70.2941C1069.01 70.2941 1068 69.2802 1068 68.0294C1068 66.7786 1069.01 65.7647 1070.25 65.7647C1071.5 65.7647 1072.5 66.7786 1072.5 68.0294Z" fill="#818393"/>
<path d="M1086.02 68.0294C1086.02 69.2802 1085.01 70.2941 1083.77 70.2941C1082.52 70.2941 1081.51 69.2802 1081.51 68.0294C1081.51 66.7786 1082.52 65.7647 1083.77 65.7647C1085.01 65.7647 1086.02 66.7786 1086.02 68.0294Z" fill="#818393"/>
<path d="M1099.53 68.0294C1099.53 69.2802 1098.52 70.2941 1097.28 70.2941C1096.04 70.2941 1095.03 69.2802 1095.03 68.0294C1095.03 66.7786 1096.04 65.7647 1097.28 65.7647C1098.52 65.7647 1099.53 66.7786 1099.53 68.0294Z" fill="#818393"/>
<path d="M1113.05 68.0294C1113.05 69.2802 1112.04 70.2941 1110.79 70.2941C1109.55 70.2941 1108.54 69.2802 1108.54 68.0294C1108.54 66.7786 1109.55 65.7647 1110.79 65.7647C1112.04 65.7647 1113.05 66.7786 1113.05 68.0294Z" fill="#818393"/>
<path d="M1126.56 68.0294C1126.56 69.2802 1125.55 70.2941 1124.31 70.2941C1123.06 70.2941 1122.06 69.2802 1122.06 68.0294C1122.06 66.7786 1123.06 65.7647 1124.31 65.7647C1125.55 65.7647 1126.56 66.7786 1126.56 68.0294Z" fill="#818393"/>
<path d="M1140.07 68.0294C1140.07 69.2802 1139.07 70.2941 1137.82 70.2941C1136.58 70.2941 1135.57 69.2802 1135.57 68.0294C1135.57 66.7786 1136.58 65.7647 1137.82 65.7647C1139.07 65.7647 1140.07 66.7786 1140.07 68.0294Z" fill="#818393"/>
<path d="M1153.59 68.0294C1153.59 69.2802 1152.58 70.2941 1151.33 70.2941C1150.09 70.2941 1149.08 69.2802 1149.08 68.0294C1149.08 66.7786 1150.09 65.7647 1151.33 65.7647C1152.58 65.7647 1153.59 66.7786 1153.59 68.0294Z" fill="#818393"/>
<path d="M1167.1 68.0294C1167.1 69.2802 1166.09 70.2941 1164.85 70.2941C1163.6 70.2941 1162.6 69.2802 1162.6 68.0294C1162.6 66.7786 1163.6 65.7647 1164.85 65.7647C1166.09 65.7647 1167.1 66.7786 1167.1 68.0294Z" fill="#818393"/>
<path d="M1180.61 68.0294C1180.61 69.2802 1179.61 70.2941 1178.36 70.2941C1177.12 70.2941 1176.11 69.2802 1176.11 68.0294C1176.11 66.7786 1177.12 65.7647 1178.36 65.7647C1179.61 65.7647 1180.61 66.7786 1180.61 68.0294Z" fill="#818393"/>
<path d="M1194.13 68.0294C1194.13 69.2802 1193.12 70.2941 1191.88 70.2941C1190.63 70.2941 1189.62 69.2802 1189.62 68.0294C1189.62 66.7786 1190.63 65.7647 1191.88 65.7647C1193.12 65.7647 1194.13 66.7786 1194.13 68.0294Z" fill="#818393"/>
<path d="M1207.64 68.0294C1207.64 69.2802 1206.63 70.2941 1205.39 70.2941C1204.15 70.2941 1203.14 69.2802 1203.14 68.0294C1203.14 66.7786 1204.15 65.7647 1205.39 65.7647C1206.63 65.7647 1207.64 66.7786 1207.64 68.0294Z" fill="#818393"/>
<path d="M1072.5 81.6176C1072.5 82.8684 1071.5 83.8824 1070.25 83.8824C1069.01 83.8824 1068 82.8684 1068 81.6176C1068 80.3669 1069.01 79.3529 1070.25 79.3529C1071.5 79.3529 1072.5 80.3669 1072.5 81.6176Z" fill="#818393"/>
<path d="M1086.02 81.6176C1086.02 82.8684 1085.01 83.8824 1083.77 83.8824C1082.52 83.8824 1081.51 82.8684 1081.51 81.6176C1081.51 80.3669 1082.52 79.3529 1083.77 79.3529C1085.01 79.3529 1086.02 80.3669 1086.02 81.6176Z" fill="#818393"/>
<path d="M1099.53 81.6176C1099.53 82.8684 1098.52 83.8824 1097.28 83.8824C1096.04 83.8824 1095.03 82.8684 1095.03 81.6176C1095.03 80.3669 1096.04 79.3529 1097.28 79.3529C1098.52 79.3529 1099.53 80.3669 1099.53 81.6176Z" fill="#818393"/>
<path d="M1113.05 81.6176C1113.05 82.8684 1112.04 83.8824 1110.79 83.8824C1109.55 83.8824 1108.54 82.8684 1108.54 81.6176C1108.54 80.3669 1109.55 79.3529 1110.79 79.3529C1112.04 79.3529 1113.05 80.3669 1113.05 81.6176Z" fill="#818393"/>
<path d="M1126.56 81.6176C1126.56 82.8684 1125.55 83.8824 1124.31 83.8824C1123.06 83.8824 1122.06 82.8684 1122.06 81.6176C1122.06 80.3669 1123.06 79.3529 1124.31 79.3529C1125.55 79.3529 1126.56 80.3669 1126.56 81.6176Z" fill="#818393"/>
<path d="M1140.07 81.6176C1140.07 82.8684 1139.07 83.8824 1137.82 83.8824C1136.58 83.8824 1135.57 82.8684 1135.57 81.6176C1135.57 80.3669 1136.58 79.3529 1137.82 79.3529C1139.07 79.3529 1140.07 80.3669 1140.07 81.6176Z" fill="#818393"/>
<path d="M1153.59 81.6176C1153.59 82.8684 1152.58 83.8824 1151.33 83.8824C1150.09 83.8824 1149.08 82.8684 1149.08 81.6176C1149.08 80.3669 1150.09 79.3529 1151.33 79.3529C1152.58 79.3529 1153.59 80.3669 1153.59 81.6176Z" fill="#818393"/>
<path d="M1167.1 81.6176C1167.1 82.8684 1166.09 83.8824 1164.85 83.8824C1163.6 83.8824 1162.6 82.8684 1162.6 81.6176C1162.6 80.3669 1163.6 79.3529 1164.85 79.3529C1166.09 79.3529 1167.1 80.3669 1167.1 81.6176Z" fill="#818393"/>
<path d="M1180.61 81.6176C1180.61 82.8684 1179.61 83.8824 1178.36 83.8824C1177.12 83.8824 1176.11 82.8684 1176.11 81.6176C1176.11 80.3669 1177.12 79.3529 1178.36 79.3529C1179.61 79.3529 1180.61 80.3669 1180.61 81.6176Z" fill="#818393"/>
<path d="M1194.13 81.6176C1194.13 82.8684 1193.12 83.8824 1191.88 83.8824C1190.63 83.8824 1189.62 82.8684 1189.62 81.6176C1189.62 80.3669 1190.63 79.3529 1191.88 79.3529C1193.12 79.3529 1194.13 80.3669 1194.13 81.6176Z" fill="#818393"/>
<path d="M1207.64 81.6176C1207.64 82.8684 1206.63 83.8824 1205.39 83.8824C1204.15 83.8824 1203.14 82.8684 1203.14 81.6176C1203.14 80.3669 1204.15 79.3529 1205.39 79.3529C1206.63 79.3529 1207.64 80.3669 1207.64 81.6176Z" fill="#818393"/>
<path d="M1072.5 95.2059C1072.5 96.4566 1071.5 97.4706 1070.25 97.4706C1069.01 97.4706 1068 96.4566 1068 95.2059C1068 93.9551 1069.01 92.9412 1070.25 92.9412C1071.5 92.9412 1072.5 93.9551 1072.5 95.2059Z" fill="#818393"/>
<path d="M1086.02 95.2059C1086.02 96.4566 1085.01 97.4706 1083.77 97.4706C1082.52 97.4706 1081.51 96.4566 1081.51 95.2059C1081.51 93.9551 1082.52 92.9412 1083.77 92.9412C1085.01 92.9412 1086.02 93.9551 1086.02 95.2059Z" fill="#818393"/>
<path d="M1099.53 95.2059C1099.53 96.4566 1098.52 97.4706 1097.28 97.4706C1096.04 97.4706 1095.03 96.4566 1095.03 95.2059C1095.03 93.9551 1096.04 92.9412 1097.28 92.9412C1098.52 92.9412 1099.53 93.9551 1099.53 95.2059Z" fill="#818393"/>
<path d="M1113.05 95.2059C1113.05 96.4566 1112.04 97.4706 1110.79 97.4706C1109.55 97.4706 1108.54 96.4566 1108.54 95.2059C1108.54 93.9551 1109.55 92.9412 1110.79 92.9412C1112.04 92.9412 1113.05 93.9551 1113.05 95.2059Z" fill="#818393"/>
<path d="M1126.56 95.2059C1126.56 96.4566 1125.55 97.4706 1124.31 97.4706C1123.06 97.4706 1122.06 96.4566 1122.06 95.2059C1122.06 93.9551 1123.06 92.9412 1124.31 92.9412C1125.55 92.9412 1126.56 93.9551 1126.56 95.2059Z" fill="#818393"/>
<path d="M1140.07 95.2059C1140.07 96.4566 1139.07 97.4706 1137.82 97.4706C1136.58 97.4706 1135.57 96.4566 1135.57 95.2059C1135.57 93.9551 1136.58 92.9412 1137.82 92.9412C1139.07 92.9412 1140.07 93.9551 1140.07 95.2059Z" fill="#818393"/>
<path d="M1153.59 95.2059C1153.59 96.4566 1152.58 97.4706 1151.33 97.4706C1150.09 97.4706 1149.08 96.4566 1149.08 95.2059C1149.08 93.9551 1150.09 92.9412 1151.33 92.9412C1152.58 92.9412 1153.59 93.9551 1153.59 95.2059Z" fill="#818393"/>
<path d="M1167.1 95.2059C1167.1 96.4566 1166.09 97.4706 1164.85 97.4706C1163.6 97.4706 1162.6 96.4566 1162.6 95.2059C1162.6 93.9551 1163.6 92.9412 1164.85 92.9412C1166.09 92.9412 1167.1 93.9551 1167.1 95.2059Z" fill="#818393"/>
<path d="M1180.61 95.2059C1180.61 96.4566 1179.61 97.4706 1178.36 97.4706C1177.12 97.4706 1176.11 96.4566 1176.11 95.2059C1176.11 93.9551 1177.12 92.9412 1178.36 92.9412C1179.61 92.9412 1180.61 93.9551 1180.61 95.2059Z" fill="#818393"/>
<path d="M1194.13 95.2059C1194.13 96.4566 1193.12 97.4706 1191.88 97.4706C1190.63 97.4706 1189.62 96.4566 1189.62 95.2059C1189.62 93.9551 1190.63 92.9412 1191.88 92.9412C1193.12 92.9412 1194.13 93.9551 1194.13 95.2059Z" fill="#818393"/>
<path d="M1207.64 95.2059C1207.64 96.4566 1206.63 97.4706 1205.39 97.4706C1204.15 97.4706 1203.14 96.4566 1203.14 95.2059C1203.14 93.9551 1204.15 92.9412 1205.39 92.9412C1206.63 92.9412 1207.64 93.9551 1207.64 95.2059Z" fill="#818393"/>
<path d="M1072.5 108.794C1072.5 110.045 1071.5 111.059 1070.25 111.059C1069.01 111.059 1068 110.045 1068 108.794C1068 107.543 1069.01 106.529 1070.25 106.529C1071.5 106.529 1072.5 107.543 1072.5 108.794Z" fill="#818393"/>
<path d="M1086.02 108.794C1086.02 110.045 1085.01 111.059 1083.77 111.059C1082.52 111.059 1081.51 110.045 1081.51 108.794C1081.51 107.543 1082.52 106.529 1083.77 106.529C1085.01 106.529 1086.02 107.543 1086.02 108.794Z" fill="#818393"/>
<path d="M1099.53 108.794C1099.53 110.045 1098.52 111.059 1097.28 111.059C1096.04 111.059 1095.03 110.045 1095.03 108.794C1095.03 107.543 1096.04 106.529 1097.28 106.529C1098.52 106.529 1099.53 107.543 1099.53 108.794Z" fill="#818393"/>
<path d="M1113.05 108.794C1113.05 110.045 1112.04 111.059 1110.79 111.059C1109.55 111.059 1108.54 110.045 1108.54 108.794C1108.54 107.543 1109.55 106.529 1110.79 106.529C1112.04 106.529 1113.05 107.543 1113.05 108.794Z" fill="#818393"/>
<path d="M1126.56 108.794C1126.56 110.045 1125.55 111.059 1124.31 111.059C1123.06 111.059 1122.06 110.045 1122.06 108.794C1122.06 107.543 1123.06 106.529 1124.31 106.529C1125.55 106.529 1126.56 107.543 1126.56 108.794Z" fill="#818393"/>
<path d="M1140.07 108.794C1140.07 110.045 1139.07 111.059 1137.82 111.059C1136.58 111.059 1135.57 110.045 1135.57 108.794C1135.57 107.543 1136.58 106.529 1137.82 106.529C1139.07 106.529 1140.07 107.543 1140.07 108.794Z" fill="#818393"/>
<path d="M1153.59 108.794C1153.59 110.045 1152.58 111.059 1151.33 111.059C1150.09 111.059 1149.08 110.045 1149.08 108.794C1149.08 107.543 1150.09 106.529 1151.33 106.529C1152.58 106.529 1153.59 107.543 1153.59 108.794Z" fill="#818393"/>
<path d="M1167.1 108.794C1167.1 110.045 1166.09 111.059 1164.85 111.059C1163.6 111.059 1162.6 110.045 1162.6 108.794C1162.6 107.543 1163.6 106.529 1164.85 106.529C1166.09 106.529 1167.1 107.543 1167.1 108.794Z" fill="#818393"/>
<path d="M1180.61 108.794C1180.61 110.045 1179.61 111.059 1178.36 111.059C1177.12 111.059 1176.11 110.045 1176.11 108.794C1176.11 107.543 1177.12 106.529 1178.36 106.529C1179.61 106.529 1180.61 107.543 1180.61 108.794Z" fill="#818393"/>
<path d="M1194.13 108.794C1194.13 110.045 1193.12 111.059 1191.88 111.059C1190.63 111.059 1189.62 110.045 1189.62 108.794C1189.62 107.543 1190.63 106.529 1191.88 106.529C1193.12 106.529 1194.13 107.543 1194.13 108.794Z" fill="#818393"/>
<path d="M1207.64 108.794C1207.64 110.045 1206.63 111.059 1205.39 111.059C1204.15 111.059 1203.14 110.045 1203.14 108.794C1203.14 107.543 1204.15 106.529 1205.39 106.529C1206.63 106.529 1207.64 107.543 1207.64 108.794Z" fill="#818393"/>
<path d="M1072.5 122.382C1072.5 123.633 1071.5 124.647 1070.25 124.647C1069.01 124.647 1068 123.633 1068 122.382C1068 121.132 1069.01 120.118 1070.25 120.118C1071.5 120.118 1072.5 121.132 1072.5 122.382Z" fill="#818393"/>
<path d="M1086.02 122.382C1086.02 123.633 1085.01 124.647 1083.77 124.647C1082.52 124.647 1081.51 123.633 1081.51 122.382C1081.51 121.132 1082.52 120.118 1083.77 120.118C1085.01 120.118 1086.02 121.132 1086.02 122.382Z" fill="#818393"/>
<path d="M1099.53 122.382C1099.53 123.633 1098.52 124.647 1097.28 124.647C1096.04 124.647 1095.03 123.633 1095.03 122.382C1095.03 121.132 1096.04 120.118 1097.28 120.118C1098.52 120.118 1099.53 121.132 1099.53 122.382Z" fill="#818393"/>
<path d="M1113.05 122.382C1113.05 123.633 1112.04 124.647 1110.79 124.647C1109.55 124.647 1108.54 123.633 1108.54 122.382C1108.54 121.132 1109.55 120.118 1110.79 120.118C1112.04 120.118 1113.05 121.132 1113.05 122.382Z" fill="#818393"/>
<path d="M1126.56 122.382C1126.56 123.633 1125.55 124.647 1124.31 124.647C1123.06 124.647 1122.06 123.633 1122.06 122.382C1122.06 121.132 1123.06 120.118 1124.31 120.118C1125.55 120.118 1126.56 121.132 1126.56 122.382Z" fill="#818393"/>
<path d="M1140.07 122.382C1140.07 123.633 1139.07 124.647 1137.82 124.647C1136.58 124.647 1135.57 123.633 1135.57 122.382C1135.57 121.132 1136.58 120.118 1137.82 120.118C1139.07 120.118 1140.07 121.132 1140.07 122.382Z" fill="#818393"/>
<path d="M1153.59 122.382C1153.59 123.633 1152.58 124.647 1151.33 124.647C1150.09 124.647 1149.08 123.633 1149.08 122.382C1149.08 121.132 1150.09 120.118 1151.33 120.118C1152.58 120.118 1153.59 121.132 1153.59 122.382Z" fill="#818393"/>
<path d="M1167.1 122.382C1167.1 123.633 1166.09 124.647 1164.85 124.647C1163.6 124.647 1162.6 123.633 1162.6 122.382C1162.6 121.132 1163.6 120.118 1164.85 120.118C1166.09 120.118 1167.1 121.132 1167.1 122.382Z" fill="#818393"/>
<path d="M1180.61 122.382C1180.61 123.633 1179.61 124.647 1178.36 124.647C1177.12 124.647 1176.11 123.633 1176.11 122.382C1176.11 121.132 1177.12 120.118 1178.36 120.118C1179.61 120.118 1180.61 121.132 1180.61 122.382Z" fill="#818393"/>
<path d="M1194.13 122.382C1194.13 123.633 1193.12 124.647 1191.88 124.647C1190.63 124.647 1189.62 123.633 1189.62 122.382C1189.62 121.132 1190.63 120.118 1191.88 120.118C1193.12 120.118 1194.13 121.132 1194.13 122.382Z" fill="#818393"/>
<path d="M1207.64 122.382C1207.64 123.633 1206.63 124.647 1205.39 124.647C1204.15 124.647 1203.14 123.633 1203.14 122.382C1203.14 121.132 1204.15 120.118 1205.39 120.118C1206.63 120.118 1207.64 121.132 1207.64 122.382Z" fill="#818393"/>
<path d="M1072.5 135.971C1072.5 137.221 1071.5 138.235 1070.25 138.235C1069.01 138.235 1068 137.221 1068 135.971C1068 134.72 1069.01 133.706 1070.25 133.706C1071.5 133.706 1072.5 134.72 1072.5 135.971Z" fill="#818393"/>
<path d="M1086.02 135.971C1086.02 137.221 1085.01 138.235 1083.77 138.235C1082.52 138.235 1081.51 137.221 1081.51 135.971C1081.51 134.72 1082.52 133.706 1083.77 133.706C1085.01 133.706 1086.02 134.72 1086.02 135.971Z" fill="#818393"/>
<path d="M1099.53 135.971C1099.53 137.221 1098.52 138.235 1097.28 138.235C1096.04 138.235 1095.03 137.221 1095.03 135.971C1095.03 134.72 1096.04 133.706 1097.28 133.706C1098.52 133.706 1099.53 134.72 1099.53 135.971Z" fill="#818393"/>
<path d="M1113.05 135.971C1113.05 137.221 1112.04 138.235 1110.79 138.235C1109.55 138.235 1108.54 137.221 1108.54 135.971C1108.54 134.72 1109.55 133.706 1110.79 133.706C1112.04 133.706 1113.05 134.72 1113.05 135.971Z" fill="#818393"/>
<path d="M1126.56 135.971C1126.56 137.221 1125.55 138.235 1124.31 138.235C1123.06 138.235 1122.06 137.221 1122.06 135.971C1122.06 134.72 1123.06 133.706 1124.31 133.706C1125.55 133.706 1126.56 134.72 1126.56 135.971Z" fill="#818393"/>
<path d="M1140.07 135.971C1140.07 137.221 1139.07 138.235 1137.82 138.235C1136.58 138.235 1135.57 137.221 1135.57 135.971C1135.57 134.72 1136.58 133.706 1137.82 133.706C1139.07 133.706 1140.07 134.72 1140.07 135.971Z" fill="#818393"/>
<path d="M1153.59 135.971C1153.59 137.221 1152.58 138.235 1151.33 138.235C1150.09 138.235 1149.08 137.221 1149.08 135.971C1149.08 134.72 1150.09 133.706 1151.33 133.706C1152.58 133.706 1153.59 134.72 1153.59 135.971Z" fill="#818393"/>
<path d="M1167.1 135.971C1167.1 137.221 1166.09 138.235 1164.85 138.235C1163.6 138.235 1162.6 137.221 1162.6 135.971C1162.6 134.72 1163.6 133.706 1164.85 133.706C1166.09 133.706 1167.1 134.72 1167.1 135.971Z" fill="#818393"/>
<path d="M1180.61 135.971C1180.61 137.221 1179.61 138.235 1178.36 138.235C1177.12 138.235 1176.11 137.221 1176.11 135.971C1176.11 134.72 1177.12 133.706 1178.36 133.706C1179.61 133.706 1180.61 134.72 1180.61 135.971Z" fill="#818393"/>
<path d="M1194.13 135.971C1194.13 137.221 1193.12 138.235 1191.88 138.235C1190.63 138.235 1189.62 137.221 1189.62 135.971C1189.62 134.72 1190.63 133.706 1191.88 133.706C1193.12 133.706 1194.13 134.72 1194.13 135.971Z" fill="#818393"/>
<path d="M1207.64 135.971C1207.64 137.221 1206.63 138.235 1205.39 138.235C1204.15 138.235 1203.14 137.221 1203.14 135.971C1203.14 134.72 1204.15 133.706 1205.39 133.706C1206.63 133.706 1207.64 134.72 1207.64 135.971Z" fill="#818393"/>
<path d="M1072.5 149.559C1072.5 150.81 1071.5 151.824 1070.25 151.824C1069.01 151.824 1068 150.81 1068 149.559C1068 148.308 1069.01 147.294 1070.25 147.294C1071.5 147.294 1072.5 148.308 1072.5 149.559Z" fill="#818393"/>
<path d="M1086.02 149.559C1086.02 150.81 1085.01 151.824 1083.77 151.824C1082.52 151.824 1081.51 150.81 1081.51 149.559C1081.51 148.308 1082.52 147.294 1083.77 147.294C1085.01 147.294 1086.02 148.308 1086.02 149.559Z" fill="#818393"/>
<path d="M1099.53 149.559C1099.53 150.81 1098.52 151.824 1097.28 151.824C1096.04 151.824 1095.03 150.81 1095.03 149.559C1095.03 148.308 1096.04 147.294 1097.28 147.294C1098.52 147.294 1099.53 148.308 1099.53 149.559Z" fill="#818393"/>
<path d="M1113.05 149.559C1113.05 150.81 1112.04 151.824 1110.79 151.824C1109.55 151.824 1108.54 150.81 1108.54 149.559C1108.54 148.308 1109.55 147.294 1110.79 147.294C1112.04 147.294 1113.05 148.308 1113.05 149.559Z" fill="#818393"/>
<path d="M1126.56 149.559C1126.56 150.81 1125.55 151.824 1124.31 151.824C1123.06 151.824 1122.06 150.81 1122.06 149.559C1122.06 148.308 1123.06 147.294 1124.31 147.294C1125.55 147.294 1126.56 148.308 1126.56 149.559Z" fill="#818393"/>
<path d="M1140.07 149.559C1140.07 150.81 1139.07 151.824 1137.82 151.824C1136.58 151.824 1135.57 150.81 1135.57 149.559C1135.57 148.308 1136.58 147.294 1137.82 147.294C1139.07 147.294 1140.07 148.308 1140.07 149.559Z" fill="#818393"/>
<path d="M1153.59 149.559C1153.59 150.81 1152.58 151.824 1151.33 151.824C1150.09 151.824 1149.08 150.81 1149.08 149.559C1149.08 148.308 1150.09 147.294 1151.33 147.294C1152.58 147.294 1153.59 148.308 1153.59 149.559Z" fill="#818393"/>
<path d="M1167.1 149.559C1167.1 150.81 1166.09 151.824 1164.85 151.824C1163.6 151.824 1162.6 150.81 1162.6 149.559C1162.6 148.308 1163.6 147.294 1164.85 147.294C1166.09 147.294 1167.1 148.308 1167.1 149.559Z" fill="#818393"/>
<path d="M1180.61 149.559C1180.61 150.81 1179.61 151.824 1178.36 151.824C1177.12 151.824 1176.11 150.81 1176.11 149.559C1176.11 148.308 1177.12 147.294 1178.36 147.294C1179.61 147.294 1180.61 148.308 1180.61 149.559Z" fill="#818393"/>
<path d="M1194.13 149.559C1194.13 150.81 1193.12 151.824 1191.88 151.824C1190.63 151.824 1189.62 150.81 1189.62 149.559C1189.62 148.308 1190.63 147.294 1191.88 147.294C1193.12 147.294 1194.13 148.308 1194.13 149.559Z" fill="#818393"/>
<path d="M1207.64 149.559C1207.64 150.81 1206.63 151.824 1205.39 151.824C1204.15 151.824 1203.14 150.81 1203.14 149.559C1203.14 148.308 1204.15 147.294 1205.39 147.294C1206.63 147.294 1207.64 148.308 1207.64 149.559Z" fill="#818393"/>
<path d="M1072.5 163.147C1072.5 164.398 1071.5 165.412 1070.25 165.412C1069.01 165.412 1068 164.398 1068 163.147C1068 161.896 1069.01 160.882 1070.25 160.882C1071.5 160.882 1072.5 161.896 1072.5 163.147Z" fill="#818393"/>
<path d="M1086.02 163.147C1086.02 164.398 1085.01 165.412 1083.77 165.412C1082.52 165.412 1081.51 164.398 1081.51 163.147C1081.51 161.896 1082.52 160.882 1083.77 160.882C1085.01 160.882 1086.02 161.896 1086.02 163.147Z" fill="#818393"/>
<path d="M1099.53 163.147C1099.53 164.398 1098.52 165.412 1097.28 165.412C1096.04 165.412 1095.03 164.398 1095.03 163.147C1095.03 161.896 1096.04 160.882 1097.28 160.882C1098.52 160.882 1099.53 161.896 1099.53 163.147Z" fill="#818393"/>
<path d="M1113.05 163.147C1113.05 164.398 1112.04 165.412 1110.79 165.412C1109.55 165.412 1108.54 164.398 1108.54 163.147C1108.54 161.896 1109.55 160.882 1110.79 160.882C1112.04 160.882 1113.05 161.896 1113.05 163.147Z" fill="#818393"/>
<path d="M1126.56 163.147C1126.56 164.398 1125.55 165.412 1124.31 165.412C1123.06 165.412 1122.06 164.398 1122.06 163.147C1122.06 161.896 1123.06 160.882 1124.31 160.882C1125.55 160.882 1126.56 161.896 1126.56 163.147Z" fill="#818393"/>
<path d="M1140.07 163.147C1140.07 164.398 1139.07 165.412 1137.82 165.412C1136.58 165.412 1135.57 164.398 1135.57 163.147C1135.57 161.896 1136.58 160.882 1137.82 160.882C1139.07 160.882 1140.07 161.896 1140.07 163.147Z" fill="#818393"/>
<path d="M1153.59 163.147C1153.59 164.398 1152.58 165.412 1151.33 165.412C1150.09 165.412 1149.08 164.398 1149.08 163.147C1149.08 161.896 1150.09 160.882 1151.33 160.882C1152.58 160.882 1153.59 161.896 1153.59 163.147Z" fill="#818393"/>
<path d="M1167.1 163.147C1167.1 164.398 1166.09 165.412 1164.85 165.412C1163.6 165.412 1162.6 164.398 1162.6 163.147C1162.6 161.896 1163.6 160.882 1164.85 160.882C1166.09 160.882 1167.1 161.896 1167.1 163.147Z" fill="#818393"/>
<path d="M1180.61 163.147C1180.61 164.398 1179.61 165.412 1178.36 165.412C1177.12 165.412 1176.11 164.398 1176.11 163.147C1176.11 161.896 1177.12 160.882 1178.36 160.882C1179.61 160.882 1180.61 161.896 1180.61 163.147Z" fill="#818393"/>
<path d="M1194.13 163.147C1194.13 164.398 1193.12 165.412 1191.88 165.412C1190.63 165.412 1189.62 164.398 1189.62 163.147C1189.62 161.896 1190.63 160.882 1191.88 160.882C1193.12 160.882 1194.13 161.896 1194.13 163.147Z" fill="#818393"/>
<path d="M1207.64 163.147C1207.64 164.398 1206.63 165.412 1205.39 165.412C1204.15 165.412 1203.14 164.398 1203.14 163.147C1203.14 161.896 1204.15 160.882 1205.39 160.882C1206.63 160.882 1207.64 161.896 1207.64 163.147Z" fill="#818393"/>
<path d="M1072.5 176.735C1072.5 177.986 1071.5 179 1070.25 179C1069.01 179 1068 177.986 1068 176.735C1068 175.485 1069.01 174.471 1070.25 174.471C1071.5 174.471 1072.5 175.485 1072.5 176.735Z" fill="#818393"/>
<path d="M1086.02 176.735C1086.02 177.986 1085.01 179 1083.77 179C1082.52 179 1081.51 177.986 1081.51 176.735C1081.51 175.485 1082.52 174.471 1083.77 174.471C1085.01 174.471 1086.02 175.485 1086.02 176.735Z" fill="#818393"/>
<path d="M1099.53 176.735C1099.53 177.986 1098.52 179 1097.28 179C1096.04 179 1095.03 177.986 1095.03 176.735C1095.03 175.485 1096.04 174.471 1097.28 174.471C1098.52 174.471 1099.53 175.485 1099.53 176.735Z" fill="#818393"/>
<path d="M1113.05 176.735C1113.05 177.986 1112.04 179 1110.79 179C1109.55 179 1108.54 177.986 1108.54 176.735C1108.54 175.485 1109.55 174.471 1110.79 174.471C1112.04 174.471 1113.05 175.485 1113.05 176.735Z" fill="#818393"/>
<path d="M1126.56 176.735C1126.56 177.986 1125.55 179 1124.31 179C1123.06 179 1122.06 177.986 1122.06 176.735C1122.06 175.485 1123.06 174.471 1124.31 174.471C1125.55 174.471 1126.56 175.485 1126.56 176.735Z" fill="#818393"/>
<path d="M1140.07 176.735C1140.07 177.986 1139.07 179 1137.82 179C1136.58 179 1135.57 177.986 1135.57 176.735C1135.57 175.485 1136.58 174.471 1137.82 174.471C1139.07 174.471 1140.07 175.485 1140.07 176.735Z" fill="#818393"/>
<path d="M1153.59 176.735C1153.59 177.986 1152.58 179 1151.33 179C1150.09 179 1149.08 177.986 1149.08 176.735C1149.08 175.485 1150.09 174.471 1151.33 174.471C1152.58 174.471 1153.59 175.485 1153.59 176.735Z" fill="#818393"/>
<path d="M1167.1 176.735C1167.1 177.986 1166.09 179 1164.85 179C1163.6 179 1162.6 177.986 1162.6 176.735C1162.6 175.485 1163.6 174.471 1164.85 174.471C1166.09 174.471 1167.1 175.485 1167.1 176.735Z" fill="#818393"/>
<path d="M1180.61 176.735C1180.61 177.986 1179.61 179 1178.36 179C1177.12 179 1176.11 177.986 1176.11 176.735C1176.11 175.485 1177.12 174.471 1178.36 174.471C1179.61 174.471 1180.61 175.485 1180.61 176.735Z" fill="#818393"/>
<path d="M1194.13 176.735C1194.13 177.986 1193.12 179 1191.88 179C1190.63 179 1189.62 177.986 1189.62 176.735C1189.62 175.485 1190.63 174.471 1191.88 174.471C1193.12 174.471 1194.13 175.485 1194.13 176.735Z" fill="#818393"/>
<path d="M1207.64 176.735C1207.64 177.986 1206.63 179 1205.39 179C1204.15 179 1203.14 177.986 1203.14 176.735C1203.14 175.485 1204.15 174.471 1205.39 174.471C1206.63 174.471 1207.64 175.485 1207.64 176.735Z" fill="#818393"/>
<path d="M1287.94 631.734C1287.94 631.182 1287.5 630.734 1286.94 630.734V626.993C1287.5 626.993 1287.94 626.545 1287.94 625.993V623.122C1287.94 622.882 1288 622.677 1288.1 622.506C1288.34 622.096 1288.25 621.588 1287.92 621.277C1288.01 621.219 1288.1 621.167 1288.19 621.122C1288.29 621.564 1288.68 621.898 1289.15 621.907C1289.34 621.911 1289.54 621.965 1289.74 622.089L1291.18 622.997C1291.65 623.291 1292.27 623.151 1292.56 622.684L1293.75 623.434C1293.46 623.902 1293.6 624.519 1294.07 624.813L1296.95 626.63C1297.42 626.924 1298.04 626.783 1298.33 626.316L1299.52 627.067C1299.23 627.534 1299.37 628.152 1299.84 628.446L1302.72 630.262C1303.19 630.556 1303.81 630.416 1304.1 629.948L1305.29 630.699C1305 631.167 1305.14 631.784 1305.61 632.078L1307.05 632.986C1308.08 633.634 1309.38 633.634 1310.41 632.986L1311.86 632.078C1312.32 631.784 1312.46 631.167 1312.17 630.699L1313.36 629.948C1313.66 630.416 1314.27 630.556 1314.74 630.262L1317.63 628.446C1318.09 628.152 1318.23 627.534 1317.94 627.067L1319.13 626.316C1319.43 626.783 1320.04 626.924 1320.51 626.63L1323.4 624.813C1323.86 624.519 1324.01 623.902 1323.71 623.434L1324.9 622.684C1325.2 623.151 1325.82 623.291 1326.28 622.997L1327.73 622.089C1327.92 621.965 1328.12 621.911 1328.31 621.907C1328.79 621.898 1329.17 621.564 1329.27 621.122C1329.37 621.167 1329.46 621.219 1329.54 621.277C1329.21 621.588 1329.12 622.096 1329.36 622.506C1329.46 622.677 1329.52 622.882 1329.52 623.122V625.993C1329.52 626.545 1329.97 626.993 1330.52 626.993V630.734C1329.97 630.734 1329.52 631.182 1329.52 631.734V634.605C1329.52 635.031 1329.3 635.42 1328.96 635.638L1327.32 636.666C1326.86 636.96 1326.71 637.578 1327.01 638.045L1325.43 639.037C1325.14 638.57 1324.52 638.429 1324.05 638.723L1320.79 640.781C1320.32 641.075 1320.18 641.692 1320.47 642.16L1318.9 643.151C1318.6 642.684 1317.99 642.544 1317.52 642.838L1314.25 644.895C1313.78 645.189 1313.64 645.807 1313.94 646.274L1312.36 647.266C1312.07 646.798 1311.45 646.658 1310.98 646.952L1309.35 647.981C1308.97 648.219 1308.49 648.219 1308.12 647.981L1306.48 646.952C1306.01 646.658 1305.4 646.798 1305.1 647.266L1303.53 646.274C1303.82 645.807 1303.68 645.189 1303.21 644.895L1299.95 642.838C1299.48 642.544 1298.86 642.684 1298.57 643.151L1296.99 642.16C1297.29 641.692 1297.14 641.075 1296.68 640.781L1293.41 638.723C1292.94 638.429 1292.32 638.57 1292.03 639.037L1290.45 638.045C1290.75 637.578 1290.61 636.96 1290.14 636.666L1288.51 635.638C1288.16 635.42 1287.94 635.031 1287.94 634.605V631.734ZM1289.74 572.341L1290.27 571.495L1289.74 572.341L1291.18 573.249C1291.65 573.543 1292.27 573.403 1292.56 572.936L1293.75 573.686C1293.46 574.154 1293.6 574.771 1294.07 575.065L1296.95 576.882C1297.42 577.176 1298.04 577.035 1298.33 576.568L1299.52 577.319C1299.23 577.786 1299.37 578.404 1299.84 578.698L1302.72 580.514C1303.19 580.808 1303.81 580.668 1304.1 580.2L1305.29 580.951C1305 581.419 1305.14 582.036 1305.61 582.33L1307.05 583.238C1308.08 583.886 1309.38 583.886 1310.41 583.238L1311.86 582.33C1312.32 582.036 1312.46 581.419 1312.17 580.951L1313.36 580.2C1313.66 580.668 1314.27 580.808 1314.74 580.514L1317.63 578.698C1318.09 578.404 1318.23 577.786 1317.94 577.319L1319.13 576.568C1319.43 577.035 1320.04 577.176 1320.51 576.882L1323.4 575.065C1323.86 574.771 1324.01 574.154 1323.71 573.686L1324.9 572.936C1325.2 573.403 1325.82 573.543 1326.28 573.249L1327.73 572.341L1327.19 571.498L1327.73 572.341C1327.92 572.217 1328.12 572.163 1328.31 572.159C1328.79 572.15 1329.17 571.816 1329.27 571.374C1329.37 571.419 1329.46 571.471 1329.54 571.529C1329.21 571.84 1329.12 572.348 1329.36 572.758C1329.46 572.929 1329.52 573.134 1329.52 573.374V576.245C1329.52 576.797 1329.97 577.245 1330.52 577.245V580.986C1329.97 580.986 1329.52 581.434 1329.52 581.986V584.857C1329.52 585.283 1329.3 585.672 1328.96 585.89L1327.32 586.918C1326.86 587.212 1326.71 587.83 1327.01 588.297L1325.43 589.289C1325.14 588.822 1324.52 588.681 1324.05 588.975L1320.79 591.033C1320.32 591.327 1320.18 591.944 1320.47 592.412L1318.9 593.403C1318.6 592.936 1317.99 592.796 1317.52 593.09L1314.25 595.147C1313.78 595.441 1313.64 596.059 1313.94 596.526L1312.36 597.518C1312.07 597.05 1311.45 596.91 1310.98 597.204L1309.35 598.233C1308.97 598.471 1308.49 598.471 1308.12 598.233L1306.48 597.204C1306.01 596.91 1305.4 597.05 1305.1 597.518L1303.53 596.526C1303.82 596.059 1303.68 595.441 1303.21 595.147L1299.95 593.09C1299.48 592.796 1298.86 592.936 1298.57 593.403L1296.99 592.412C1297.29 591.944 1297.14 591.327 1296.68 591.033L1293.41 588.975C1292.94 588.681 1292.32 588.822 1292.03 589.289L1290.45 588.297C1290.75 587.83 1290.61 587.212 1290.14 586.918L1288.51 585.89C1288.16 585.672 1287.94 585.283 1287.94 584.857V581.986C1287.94 581.434 1287.5 580.986 1286.94 580.986V577.245C1287.5 577.245 1287.94 576.797 1287.94 576.245V573.374C1287.94 573.134 1288 572.929 1288.1 572.758C1288.34 572.348 1288.25 571.84 1287.92 571.529C1288.01 571.471 1288.1 571.419 1288.19 571.374C1288.29 571.816 1288.68 572.15 1289.15 572.159C1289.34 572.163 1289.54 572.217 1289.74 572.341ZM1287.94 606.86C1287.94 606.308 1287.5 605.86 1286.94 605.86V602.119C1287.5 602.119 1287.94 601.671 1287.94 601.119L1287.94 598.248C1287.94 598.008 1288 597.803 1288.1 597.632C1288.34 597.222 1288.25 596.714 1287.92 596.403C1288.01 596.345 1288.1 596.293 1288.19 596.248C1288.29 596.69 1288.68 597.024 1289.15 597.033C1289.34 597.037 1289.54 597.091 1289.74 597.215L1291.18 598.123C1291.65 598.417 1292.27 598.277 1292.56 597.81L1293.75 598.56C1293.46 599.028 1293.6 599.645 1294.07 599.939L1296.95 601.756C1297.42 602.05 1298.04 601.909 1298.33 601.442L1299.52 602.193C1299.23 602.66 1299.37 603.278 1299.84 603.572L1302.72 605.388C1303.19 605.682 1303.81 605.542 1304.1 605.074L1305.29 605.825C1305 606.293 1305.14 606.91 1305.61 607.204L1307.05 608.112C1308.08 608.76 1309.38 608.76 1310.41 608.112L1311.86 607.204C1312.32 606.91 1312.46 606.293 1312.17 605.825L1313.36 605.074C1313.66 605.542 1314.27 605.682 1314.74 605.388L1317.63 603.572C1318.09 603.278 1318.23 602.66 1317.94 602.193L1319.13 601.442C1319.43 601.909 1320.04 602.05 1320.51 601.756L1323.4 599.939C1323.86 599.645 1324.01 599.028 1323.71 598.56L1324.9 597.81C1325.2 598.277 1325.82 598.417 1326.28 598.123L1327.73 597.215C1327.92 597.091 1328.12 597.037 1328.31 597.033C1328.79 597.024 1329.17 596.69 1329.27 596.248C1329.37 596.293 1329.46 596.345 1329.54 596.403C1329.21 596.714 1329.12 597.222 1329.36 597.632C1329.46 597.803 1329.52 598.008 1329.52 598.248V601.119C1329.52 601.671 1329.97 602.119 1330.52 602.119V605.86C1329.97 605.86 1329.52 606.308 1329.52 606.86V609.731C1329.52 610.157 1329.3 610.546 1328.96 610.764L1327.32 611.792C1326.86 612.086 1326.71 612.704 1327.01 613.171L1325.43 614.163C1325.14 613.696 1324.52 613.555 1324.05 613.849L1320.79 615.907C1320.32 616.201 1320.18 616.818 1320.47 617.286L1318.9 618.277C1318.6 617.81 1317.99 617.67 1317.52 617.964L1314.25 620.021C1313.78 620.315 1313.64 620.933 1313.94 621.4L1312.36 622.392C1312.07 621.924 1311.45 621.784 1310.98 622.078L1309.35 623.107C1308.97 623.345 1308.49 623.345 1308.12 623.107L1306.48 622.078C1306.01 621.784 1305.4 621.924 1305.1 622.392L1303.53 621.4C1303.82 620.933 1303.68 620.315 1303.21 620.021L1299.95 617.964C1299.48 617.67 1298.86 617.81 1298.57 618.277L1296.99 617.286C1297.29 616.818 1297.14 616.201 1296.68 615.907L1293.41 613.849C1292.94 613.555 1292.32 613.696 1292.03 614.163L1290.45 613.171C1290.75 612.704 1290.61 612.086 1290.14 611.792L1288.51 610.764C1288.16 610.546 1287.94 610.157 1287.94 609.731L1287.94 606.86Z" stroke="#F5F8FF" stroke-width="2" stroke-linecap="round" stroke-dasharray="4 4"/>
<path d="M1384 688.159V671.712L1362.21 658.194L1340.42 671.712L1340.42 688.159L1362.21 674.641L1384 688.159Z" fill="#F8F8F8"/>
<path d="M1384 647.194V663.642L1362.21 650.124L1340.42 663.642L1340.42 647.194L1362.21 633.676L1384 647.194Z" fill="#F8F8F8"/>
<path d="M1384 622.677V639.125L1362.21 625.607L1340.42 639.125L1340.42 622.677L1362.21 609.159L1384 622.677Z" fill="#F8F8F8"/>
<path d="M1 57.425C1 57.9773 0.552285 58.425 0 58.425L0 62.1666C0.552285 62.1666 1 62.6143 1 63.1666L1 66.0375C1 66.2768 1.06131 66.4825 1.15954 66.653C1.396 67.0634 1.30869 67.5717 0.977103 67.8819C1.06393 67.94 1.1547 67.9918 1.24865 68.037C1.34522 67.5956 1.73401 67.2612 2.20559 67.2518C2.39626 67.248 2.59696 67.1945 2.7946 67.0701L4.23729 66.162C4.70469 65.8678 5.3221 66.0082 5.6163 66.4756L6.8091 65.7248C6.51489 65.2574 6.65529 64.6399 7.12269 64.3457L10.0081 62.5295C10.4755 62.2353 11.0929 62.3757 11.3871 62.8431L12.5799 62.0923C12.2857 61.6249 12.4261 61.0075 12.8935 60.7133L15.7789 58.8971C16.2463 58.6029 16.8637 58.7433 17.1579 59.2107L18.3507 58.4599C18.0565 57.9925 18.1969 57.3751 18.6643 57.0809L20.107 56.1728C21.136 55.525 22.4403 55.525 23.4694 56.1728L24.9121 57.0809C25.3795 57.3751 25.5199 57.9925 25.2257 58.4599L26.4184 59.2107C26.7127 58.7433 27.3301 58.6029 27.7975 58.8971L30.6829 60.7133C31.1503 61.0075 31.2907 61.6249 30.9964 62.0923L32.1892 62.8431C32.4835 62.3757 33.1009 62.2353 33.5683 62.5295L36.4537 64.3457C36.9211 64.6399 37.0615 65.2574 36.7672 65.7248L37.96 66.4756C38.2542 66.0082 38.8717 65.8678 39.3391 66.162L40.7817 67.0701C40.9794 67.1945 41.1801 67.248 41.3708 67.2518C41.8423 67.2612 42.2311 67.5956 42.3277 68.037C42.4216 67.9918 42.5124 67.94 42.5992 67.8819C42.2677 67.5717 42.1803 67.0634 42.4168 66.653C42.515 66.4825 42.5763 66.2768 42.5763 66.0375V63.1666C42.5763 62.6143 43.0241 62.1666 43.5763 62.1666V58.425C43.0241 58.425 42.5763 57.9773 42.5763 57.425V54.5542C42.5763 54.1283 42.3594 53.7394 42.0133 53.5215L40.3792 52.4929C39.9118 52.1987 39.7714 51.5813 40.0656 51.1139L38.49 50.1222C38.1958 50.5896 37.5784 50.73 37.111 50.4358L33.8427 48.3786C33.3753 48.0844 33.2349 47.467 33.5291 46.9996L31.9535 46.0078C31.6593 46.4752 31.0419 46.6156 30.5745 46.3214L27.3063 44.2642C26.8389 43.97 26.6985 43.3526 26.9927 42.8852L25.4171 41.8934C25.1229 42.3608 24.5055 42.5012 24.0381 42.207L22.4039 41.1784C22.026 40.9405 21.5503 40.9405 21.1724 41.1784L19.5383 42.207C19.0709 42.5012 18.4535 42.3608 18.1593 41.8934L16.5837 42.8852C16.8779 43.3526 16.7375 43.97 16.2701 44.2642L13.0018 46.3214C12.5344 46.6156 11.917 46.4752 11.6228 46.0078L10.0472 46.9996C10.3414 47.467 10.201 48.0844 9.7336 48.3786L6.46538 50.4358C5.99798 50.73 5.38058 50.5896 5.08637 50.1222L3.51075 51.1139C3.80495 51.5813 3.66455 52.1987 3.19715 52.4929L1.56304 53.5215C1.21698 53.7394 1 54.1284 1 54.5542L1 57.425ZM2.7946 116.818L3.3273 117.664L2.7946 116.818L4.2373 115.91C4.70469 115.616 5.3221 115.756 5.6163 116.224L6.8091 115.473C6.51489 115.005 6.65529 114.388 7.12269 114.094L10.0081 112.278C10.4755 111.983 11.0929 112.124 11.3871 112.591L12.5799 111.84C12.2857 111.373 12.4261 110.756 12.8935 110.461L15.7789 108.645C16.2463 108.351 16.8637 108.491 17.1579 108.959L18.3507 108.208C18.0565 107.74 18.1969 107.123 18.6643 106.829L20.107 105.921C21.136 105.273 22.4403 105.273 23.4694 105.921L24.9121 106.829C25.3795 107.123 25.5199 107.74 25.2257 108.208L26.4184 108.959C26.7127 108.491 27.3301 108.351 27.7975 108.645L30.6829 110.461C31.1503 110.756 31.2907 111.373 30.9964 111.84L32.1892 112.591C32.4835 112.124 33.1009 111.983 33.5683 112.278L36.4537 114.094C36.9211 114.388 37.0615 115.005 36.7672 115.473L37.96 116.224C38.2542 115.756 38.8717 115.616 39.3391 115.91L40.7817 116.818L40.2513 117.661L40.7817 116.818C40.9794 116.942 41.1801 116.996 41.3708 117C41.8423 117.009 42.2311 117.344 42.3277 117.785C42.4216 117.74 42.5124 117.688 42.5992 117.63C42.2677 117.32 42.1803 116.811 42.4168 116.401C42.515 116.231 42.5763 116.025 42.5763 115.785V112.915C42.5763 112.362 43.0241 111.915 43.5763 111.915V108.173C43.0241 108.173 42.5763 107.725 42.5763 107.173V104.302C42.5763 103.876 42.3594 103.487 42.0133 103.27L40.3792 102.241C39.9118 101.947 39.7714 101.329 40.0656 100.862L38.49 99.8702C38.1958 100.338 37.5784 100.478 37.111 100.184L33.8427 98.1266C33.3753 97.8324 33.2349 97.215 33.5291 96.7476L31.9535 95.7558C31.6593 96.2232 31.0419 96.3636 30.5745 96.0694L27.3063 94.0122C26.8389 93.718 26.6985 93.1006 26.9927 92.6332L25.4171 91.6414C25.1229 92.1088 24.5055 92.2492 24.0381 91.955L22.4039 90.9264C22.026 90.6885 21.5503 90.6885 21.1724 90.9264L19.5383 91.955C19.0709 92.2492 18.4535 92.1088 18.1593 91.6414L16.5837 92.6332C16.8779 93.1006 16.7375 93.718 16.2701 94.0122L13.0018 96.0694C12.5344 96.3636 11.917 96.2232 11.6228 95.7558L10.0472 96.7476C10.3414 97.215 10.201 97.8324 9.7336 98.1266L6.46538 100.184C5.99798 100.478 5.38058 100.338 5.08637 99.8702L3.51075 100.862C3.80495 101.329 3.66455 101.947 3.19715 102.241L1.56304 103.27C1.21699 103.487 1 103.876 1 104.302V107.173C1 107.725 0.552285 108.173 0 108.173L0 111.915C0.552285 111.915 1 112.362 1 112.915V115.785C1 116.025 1.06131 116.231 1.15954 116.401C1.39601 116.811 1.30869 117.32 0.977102 117.63C1.06392 117.688 1.1547 117.74 1.24865 117.785C1.34522 117.344 1.73401 117.009 2.20559 117C2.39626 116.996 2.59696 116.942 2.7946 116.818ZM1 82.299C1 82.8513 0.552285 83.299 0 83.299L0 87.0406C0.552285 87.0406 1 87.4883 1 88.0406L1 90.9115C1 91.1508 1.06131 91.3565 1.15954 91.527C1.39601 91.9375 1.30869 92.4457 0.977103 92.7559C1.06393 92.814 1.1547 92.8658 1.24865 92.911C1.34522 92.4696 1.73401 92.1352 2.20559 92.1258C2.39626 92.122 2.59696 92.0685 2.7946 91.9441L4.2373 91.036C4.70469 90.7418 5.3221 90.8822 5.6163 91.3496L6.8091 90.5988C6.51489 90.1314 6.65529 89.514 7.12269 89.2197L10.0081 87.4035C10.4755 87.1093 11.0929 87.2497 11.3871 87.7171L12.5799 86.9663C12.2857 86.4989 12.4261 85.8815 12.8935 85.5873L15.7789 83.7711C16.2463 83.4769 16.8637 83.6173 17.1579 84.0847L18.3507 83.3339C18.0565 82.8665 18.1969 82.2491 18.6643 81.9549L20.107 81.0468C21.136 80.399 22.4403 80.399 23.4694 81.0468L24.9121 81.9549C25.3795 82.2491 25.5199 82.8665 25.2257 83.3339L26.4184 84.0847C26.7127 83.6173 27.3301 83.4769 27.7975 83.7711L30.6829 85.5873C31.1503 85.8815 31.2907 86.4989 30.9964 86.9663L32.1892 87.7171C32.4835 87.2497 33.1009 87.1093 33.5683 87.4035L36.4537 89.2197C36.9211 89.514 37.0615 90.1314 36.7672 90.5988L37.96 91.3496C38.2542 90.8822 38.8717 90.7418 39.3391 91.036L40.7817 91.9441C40.9794 92.0685 41.1801 92.122 41.3708 92.1258C41.8423 92.1352 42.2311 92.4696 42.3277 92.911C42.4216 92.8658 42.5124 92.814 42.5992 92.7559C42.2677 92.4457 42.1803 91.9375 42.4168 91.527C42.515 91.3565 42.5763 91.1508 42.5763 90.9115V88.0406C42.5763 87.4884 43.0241 87.0406 43.5763 87.0406V83.299C43.0241 83.299 42.5763 82.8513 42.5763 82.299V79.4282C42.5763 79.0024 42.3594 78.6134 42.0133 78.3955L40.3792 77.367C39.9118 77.0727 39.7714 76.4553 40.0656 75.9879L38.49 74.9962C38.1958 75.4636 37.5784 75.604 37.111 75.3098L33.8427 73.2526C33.3753 72.9584 33.2349 72.341 33.5291 71.8736L31.9535 70.8818C31.6593 71.3492 31.0419 71.4896 30.5745 71.1954L27.3063 69.1382C26.8389 68.844 26.6985 68.2266 26.9927 67.7592L25.4171 66.7674C25.1229 67.2348 24.5055 67.3752 24.0381 67.081L22.4039 66.0524C22.026 65.8145 21.5503 65.8145 21.1724 66.0524L19.5383 67.081C19.0709 67.3752 18.4535 67.2348 18.1593 66.7674L16.5837 67.7592C16.8779 68.2266 16.7375 68.844 16.2701 69.1382L13.0018 71.1954C12.5344 71.4896 11.917 71.3492 11.6228 70.8818L10.0472 71.8736C10.3414 72.341 10.201 72.9584 9.7336 73.2526L6.46538 75.3098C5.99798 75.604 5.38058 75.4636 5.08637 74.9962L3.51075 75.9879C3.80495 76.4553 3.66455 77.0727 3.19715 77.367L1.56304 78.3955C1.21698 78.6134 1 79.0024 1 79.4282L1 82.299Z" stroke="#9FA2A8" stroke-width="2" stroke-linecap="round" stroke-dasharray="4 4"/>
<path d="M99.5763 0V16.4476L77.7882 29.9655L56 16.4476L56 0L77.7882 13.5179L99.5763 0Z" fill="#F1EDE9"/>
<path d="M99.5763 40.9649V24.5172L77.7882 38.0351L56 24.5172L56 40.9649L77.7882 54.4828L99.5763 40.9649Z" fill="#F1EDE9"/>
<path d="M99.5763 65.4821V49.0345L77.7882 62.5524L56 49.0345L56 65.4821L77.7882 79L99.5763 65.4821Z" fill="#F1EDE9"/>
<path d="M110.224 533.894C110.224 532.644 109.215 531.63 107.972 531.63C106.728 531.63 105.719 532.644 105.719 533.894C105.719 535.145 106.728 536.159 107.972 536.159C109.215 536.159 110.224 535.145 110.224 533.894Z" fill="#849ACE"/>
<path d="M123.738 533.894C123.738 532.644 122.729 531.63 121.485 531.63C120.241 531.63 119.233 532.644 119.233 533.894C119.233 535.145 120.241 536.159 121.485 536.159C122.729 536.159 123.738 535.145 123.738 533.894Z" fill="#849ACE"/>
<path d="M137.251 533.894C137.251 532.644 136.243 531.63 134.999 531.63C133.755 531.63 132.747 532.644 132.747 533.894C132.747 535.145 133.755 536.159 134.999 536.159C136.243 536.159 137.251 535.145 137.251 533.894Z" fill="#849ACE"/>
<path d="M150.765 533.894C150.765 532.644 149.757 531.63 148.513 531.63C147.269 531.63 146.261 532.644 146.261 533.894C146.261 535.145 147.269 536.159 148.513 536.159C149.757 536.159 150.765 535.145 150.765 533.894Z" fill="#849ACE"/>
<path d="M164.279 533.894C164.279 532.644 163.271 531.63 162.027 531.63C160.783 531.63 159.774 532.644 159.774 533.894C159.774 535.145 160.783 536.159 162.027 536.159C163.271 536.159 164.279 535.145 164.279 533.894Z" fill="#849ACE"/>
<path d="M177.793 533.894C177.793 532.644 176.784 531.63 175.54 531.63C174.297 531.63 173.288 532.644 173.288 533.894C173.288 535.145 174.297 536.159 175.54 536.159C176.784 536.159 177.793 535.145 177.793 533.894Z" fill="#849ACE"/>
<path d="M191.306 533.894C191.306 532.644 190.298 531.63 189.054 531.63C187.81 531.63 186.802 532.644 186.802 533.894C186.802 535.145 187.81 536.159 189.054 536.159C190.298 536.159 191.306 535.145 191.306 533.894Z" fill="#849ACE"/>
<path d="M204.82 533.894C204.82 532.644 203.812 531.63 202.568 531.63C201.324 531.63 200.316 532.644 200.316 533.894C200.316 535.145 201.324 536.159 202.568 536.159C203.812 536.159 204.82 535.145 204.82 533.894Z" fill="#849ACE"/>
<path d="M218.334 533.894C218.334 532.644 217.326 531.63 216.082 531.63C214.838 531.63 213.829 532.644 213.829 533.894C213.829 535.145 214.838 536.159 216.082 536.159C217.326 536.159 218.334 535.145 218.334 533.894Z" fill="#849ACE"/>
<path d="M231.848 533.894C231.848 532.644 230.839 531.63 229.596 531.63C228.352 531.63 227.343 532.644 227.343 533.894C227.343 535.145 228.352 536.159 229.596 536.159C230.839 536.159 231.848 535.145 231.848 533.894Z" fill="#849ACE"/>
<path d="M245.362 533.894C245.362 532.644 244.353 531.63 243.109 531.63C241.865 531.63 240.857 532.644 240.857 533.894C240.857 535.145 241.865 536.159 243.109 536.159C244.353 536.159 245.362 535.145 245.362 533.894Z" fill="#849ACE"/>
<path d="M110.224 520.306C110.224 519.055 109.215 518.042 107.972 518.042C106.728 518.042 105.719 519.055 105.719 520.306C105.719 521.557 106.728 522.571 107.972 522.571C109.215 522.571 110.224 521.557 110.224 520.306Z" fill="#849ACE"/>
<path d="M123.738 520.306C123.738 519.055 122.729 518.042 121.485 518.042C120.241 518.042 119.233 519.055 119.233 520.306C119.233 521.557 120.241 522.571 121.485 522.571C122.729 522.571 123.738 521.557 123.738 520.306Z" fill="#849ACE"/>
<path d="M137.251 520.306C137.251 519.055 136.243 518.042 134.999 518.042C133.755 518.042 132.747 519.055 132.747 520.306C132.747 521.557 133.755 522.571 134.999 522.571C136.243 522.571 137.251 521.557 137.251 520.306Z" fill="#849ACE"/>
<path d="M150.765 520.306C150.765 519.055 149.757 518.042 148.513 518.042C147.269 518.042 146.261 519.055 146.261 520.306C146.261 521.557 147.269 522.571 148.513 522.571C149.757 522.571 150.765 521.557 150.765 520.306Z" fill="#849ACE"/>
<path d="M164.279 520.306C164.279 519.055 163.271 518.042 162.027 518.042C160.783 518.042 159.774 519.055 159.774 520.306C159.774 521.557 160.783 522.571 162.027 522.571C163.271 522.571 164.279 521.557 164.279 520.306Z" fill="#849ACE"/>
<path d="M177.793 520.306C177.793 519.055 176.784 518.042 175.54 518.042C174.297 518.042 173.288 519.055 173.288 520.306C173.288 521.557 174.297 522.571 175.54 522.571C176.784 522.571 177.793 521.557 177.793 520.306Z" fill="#849ACE"/>
<path d="M191.306 520.306C191.306 519.055 190.298 518.042 189.054 518.042C187.81 518.042 186.802 519.055 186.802 520.306C186.802 521.557 187.81 522.571 189.054 522.571C190.298 522.571 191.306 521.557 191.306 520.306Z" fill="#849ACE"/>
<path d="M204.82 520.306C204.82 519.055 203.812 518.042 202.568 518.042C201.324 518.042 200.316 519.055 200.316 520.306C200.316 521.557 201.324 522.571 202.568 522.571C203.812 522.571 204.82 521.557 204.82 520.306Z" fill="#849ACE"/>
<path d="M218.334 520.306C218.334 519.055 217.326 518.042 216.082 518.042C214.838 518.042 213.829 519.055 213.829 520.306C213.829 521.557 214.838 522.571 216.082 522.571C217.326 522.571 218.334 521.557 218.334 520.306Z" fill="#849ACE"/>
<path d="M231.848 520.306C231.848 519.055 230.839 518.042 229.596 518.042C228.352 518.042 227.343 519.055 227.343 520.306C227.343 521.557 228.352 522.571 229.596 522.571C230.839 522.571 231.848 521.557 231.848 520.306Z" fill="#849ACE"/>
<path d="M245.362 520.306C245.362 519.055 244.353 518.042 243.109 518.042C241.865 518.042 240.857 519.055 240.857 520.306C240.857 521.557 241.865 522.571 243.109 522.571C244.353 522.571 245.362 521.557 245.362 520.306Z" fill="#849ACE"/>
<path d="M110.224 506.718C110.224 505.467 109.215 504.453 107.972 504.453C106.728 504.453 105.719 505.467 105.719 506.718C105.719 507.969 106.728 508.983 107.972 508.983C109.215 508.983 110.224 507.969 110.224 506.718Z" fill="#849ACE"/>
<path d="M123.738 506.718C123.738 505.467 122.729 504.453 121.485 504.453C120.241 504.453 119.233 505.467 119.233 506.718C119.233 507.969 120.241 508.983 121.485 508.983C122.729 508.983 123.738 507.969 123.738 506.718Z" fill="#849ACE"/>
<path d="M137.251 506.718C137.251 505.467 136.243 504.453 134.999 504.453C133.755 504.453 132.747 505.467 132.747 506.718C132.747 507.969 133.755 508.983 134.999 508.983C136.243 508.983 137.251 507.969 137.251 506.718Z" fill="#849ACE"/>
<path d="M150.765 506.718C150.765 505.467 149.757 504.453 148.513 504.453C147.269 504.453 146.261 505.467 146.261 506.718C146.261 507.969 147.269 508.983 148.513 508.983C149.757 508.983 150.765 507.969 150.765 506.718Z" fill="#849ACE"/>
<path d="M164.279 506.718C164.279 505.467 163.271 504.453 162.027 504.453C160.783 504.453 159.774 505.467 159.774 506.718C159.774 507.969 160.783 508.983 162.027 508.983C163.271 508.983 164.279 507.969 164.279 506.718Z" fill="#849ACE"/>
<path d="M177.793 506.718C177.793 505.467 176.784 504.453 175.54 504.453C174.297 504.453 173.288 505.467 173.288 506.718C173.288 507.969 174.297 508.983 175.54 508.983C176.784 508.983 177.793 507.969 177.793 506.718Z" fill="#849ACE"/>
<path d="M191.306 506.718C191.306 505.467 190.298 504.453 189.054 504.453C187.81 504.453 186.802 505.467 186.802 506.718C186.802 507.969 187.81 508.983 189.054 508.983C190.298 508.983 191.306 507.969 191.306 506.718Z" fill="#849ACE"/>
<path d="M204.82 506.718C204.82 505.467 203.812 504.453 202.568 504.453C201.324 504.453 200.316 505.467 200.316 506.718C200.316 507.969 201.324 508.983 202.568 508.983C203.812 508.983 204.82 507.969 204.82 506.718Z" fill="#849ACE"/>
<path d="M218.334 506.718C218.334 505.467 217.326 504.453 216.082 504.453C214.838 504.453 213.829 505.467 213.829 506.718C213.829 507.969 214.838 508.983 216.082 508.983C217.326 508.983 218.334 507.969 218.334 506.718Z" fill="#849ACE"/>
<path d="M231.848 506.718C231.848 505.467 230.839 504.453 229.596 504.453C228.352 504.453 227.343 505.467 227.343 506.718C227.343 507.969 228.352 508.983 229.596 508.983C230.839 508.983 231.848 507.969 231.848 506.718Z" fill="#849ACE"/>
<path d="M245.362 506.718C245.362 505.467 244.353 504.453 243.109 504.453C241.865 504.453 240.857 505.467 240.857 506.718C240.857 507.969 241.865 508.983 243.109 508.983C244.353 508.983 245.362 507.969 245.362 506.718Z" fill="#849ACE"/>
<path d="M110.224 493.13C110.224 491.879 109.215 490.865 107.972 490.865C106.728 490.865 105.719 491.879 105.719 493.13C105.719 494.381 106.728 495.394 107.972 495.394C109.215 495.394 110.224 494.381 110.224 493.13Z" fill="#849ACE"/>
<path d="M123.738 493.13C123.738 491.879 122.729 490.865 121.485 490.865C120.241 490.865 119.233 491.879 119.233 493.13C119.233 494.381 120.241 495.394 121.485 495.394C122.729 495.394 123.738 494.381 123.738 493.13Z" fill="#849ACE"/>
<path d="M137.251 493.13C137.251 491.879 136.243 490.865 134.999 490.865C133.755 490.865 132.747 491.879 132.747 493.13C132.747 494.381 133.755 495.394 134.999 495.394C136.243 495.394 137.251 494.381 137.251 493.13Z" fill="#849ACE"/>
<path d="M150.765 493.13C150.765 491.879 149.757 490.865 148.513 490.865C147.269 490.865 146.261 491.879 146.261 493.13C146.261 494.381 147.269 495.394 148.513 495.394C149.757 495.394 150.765 494.381 150.765 493.13Z" fill="#849ACE"/>
<path d="M164.279 493.13C164.279 491.879 163.271 490.865 162.027 490.865C160.783 490.865 159.774 491.879 159.774 493.13C159.774 494.381 160.783 495.394 162.027 495.394C163.271 495.394 164.279 494.381 164.279 493.13Z" fill="#849ACE"/>
<path d="M177.793 493.13C177.793 491.879 176.784 490.865 175.54 490.865C174.297 490.865 173.288 491.879 173.288 493.13C173.288 494.381 174.297 495.394 175.54 495.394C176.784 495.394 177.793 494.381 177.793 493.13Z" fill="#849ACE"/>
<path d="M191.306 493.13C191.306 491.879 190.298 490.865 189.054 490.865C187.81 490.865 186.802 491.879 186.802 493.13C186.802 494.381 187.81 495.394 189.054 495.394C190.298 495.394 191.306 494.381 191.306 493.13Z" fill="#849ACE"/>
<path d="M204.82 493.13C204.82 491.879 203.812 490.865 202.568 490.865C201.324 490.865 200.316 491.879 200.316 493.13C200.316 494.381 201.324 495.394 202.568 495.394C203.812 495.394 204.82 494.381 204.82 493.13Z" fill="#849ACE"/>
<path d="M218.334 493.13C218.334 491.879 217.326 490.865 216.082 490.865C214.838 490.865 213.829 491.879 213.829 493.13C213.829 494.381 214.838 495.394 216.082 495.394C217.326 495.394 218.334 494.381 218.334 493.13Z" fill="#849ACE"/>
<path d="M231.848 493.13C231.848 491.879 230.839 490.865 229.596 490.865C228.352 490.865 227.343 491.879 227.343 493.13C227.343 494.381 228.352 495.394 229.596 495.394C230.839 495.394 231.848 494.381 231.848 493.13Z" fill="#849ACE"/>
<path d="M245.362 493.13C245.362 491.879 244.353 490.865 243.109 490.865C241.865 490.865 240.857 491.879 240.857 493.13C240.857 494.381 241.865 495.394 243.109 495.394C244.353 495.394 245.362 494.381 245.362 493.13Z" fill="#849ACE"/>
<path d="M110.224 479.542C110.224 478.291 109.215 477.277 107.972 477.277C106.728 477.277 105.719 478.291 105.719 479.542C105.719 480.792 106.728 481.806 107.972 481.806C109.215 481.806 110.224 480.792 110.224 479.542Z" fill="#849ACE"/>
<path d="M123.738 479.542C123.738 478.291 122.729 477.277 121.485 477.277C120.241 477.277 119.233 478.291 119.233 479.542C119.233 480.792 120.241 481.806 121.485 481.806C122.729 481.806 123.738 480.792 123.738 479.542Z" fill="#849ACE"/>
<path d="M137.251 479.542C137.251 478.291 136.243 477.277 134.999 477.277C133.755 477.277 132.747 478.291 132.747 479.542C132.747 480.792 133.755 481.806 134.999 481.806C136.243 481.806 137.251 480.792 137.251 479.542Z" fill="#849ACE"/>
<path d="M150.765 479.542C150.765 478.291 149.757 477.277 148.513 477.277C147.269 477.277 146.261 478.291 146.261 479.542C146.261 480.792 147.269 481.806 148.513 481.806C149.757 481.806 150.765 480.792 150.765 479.542Z" fill="#849ACE"/>
<path d="M164.279 479.542C164.279 478.291 163.271 477.277 162.027 477.277C160.783 477.277 159.774 478.291 159.774 479.542C159.774 480.792 160.783 481.806 162.027 481.806C163.271 481.806 164.279 480.792 164.279 479.542Z" fill="#849ACE"/>
<path d="M177.793 479.542C177.793 478.291 176.784 477.277 175.54 477.277C174.297 477.277 173.288 478.291 173.288 479.542C173.288 480.792 174.297 481.806 175.54 481.806C176.784 481.806 177.793 480.792 177.793 479.542Z" fill="#849ACE"/>
<path d="M191.306 479.542C191.306 478.291 190.298 477.277 189.054 477.277C187.81 477.277 186.802 478.291 186.802 479.542C186.802 480.792 187.81 481.806 189.054 481.806C190.298 481.806 191.306 480.792 191.306 479.542Z" fill="#849ACE"/>
<path d="M204.82 479.542C204.82 478.291 203.812 477.277 202.568 477.277C201.324 477.277 200.316 478.291 200.316 479.542C200.316 480.792 201.324 481.806 202.568 481.806C203.812 481.806 204.82 480.792 204.82 479.542Z" fill="#849ACE"/>
<path d="M218.334 479.542C218.334 478.291 217.326 477.277 216.082 477.277C214.838 477.277 213.829 478.291 213.829 479.542C213.829 480.792 214.838 481.806 216.082 481.806C217.326 481.806 218.334 480.792 218.334 479.542Z" fill="#849ACE"/>
<path d="M231.848 479.542C231.848 478.291 230.839 477.277 229.596 477.277C228.352 477.277 227.343 478.291 227.343 479.542C227.343 480.792 228.352 481.806 229.596 481.806C230.839 481.806 231.848 480.792 231.848 479.542Z" fill="#849ACE"/>
<path d="M245.362 479.542C245.362 478.291 244.353 477.277 243.109 477.277C241.865 477.277 240.857 478.291 240.857 479.542C240.857 480.792 241.865 481.806 243.109 481.806C244.353 481.806 245.362 480.792 245.362 479.542Z" fill="#849ACE"/>
<path d="M110.224 465.953C110.224 464.703 109.215 463.689 107.972 463.689C106.728 463.689 105.719 464.703 105.719 465.953C105.719 467.204 106.728 468.218 107.972 468.218C109.215 468.218 110.224 467.204 110.224 465.953Z" fill="#849ACE"/>
<path d="M123.738 465.953C123.738 464.703 122.729 463.689 121.485 463.689C120.241 463.689 119.233 464.703 119.233 465.953C119.233 467.204 120.241 468.218 121.485 468.218C122.729 468.218 123.738 467.204 123.738 465.953Z" fill="#849ACE"/>
<path d="M137.251 465.953C137.251 464.703 136.243 463.689 134.999 463.689C133.755 463.689 132.747 464.703 132.747 465.953C132.747 467.204 133.755 468.218 134.999 468.218C136.243 468.218 137.251 467.204 137.251 465.953Z" fill="#849ACE"/>
<path d="M150.765 465.953C150.765 464.703 149.757 463.689 148.513 463.689C147.269 463.689 146.261 464.703 146.261 465.953C146.261 467.204 147.269 468.218 148.513 468.218C149.757 468.218 150.765 467.204 150.765 465.953Z" fill="#849ACE"/>
<path d="M164.279 465.953C164.279 464.703 163.271 463.689 162.027 463.689C160.783 463.689 159.774 464.703 159.774 465.953C159.774 467.204 160.783 468.218 162.027 468.218C163.271 468.218 164.279 467.204 164.279 465.953Z" fill="#849ACE"/>
<path d="M177.793 465.953C177.793 464.703 176.784 463.689 175.54 463.689C174.297 463.689 173.288 464.703 173.288 465.953C173.288 467.204 174.297 468.218 175.54 468.218C176.784 468.218 177.793 467.204 177.793 465.953Z" fill="#849ACE"/>
<path d="M191.306 465.953C191.306 464.703 190.298 463.689 189.054 463.689C187.81 463.689 186.802 464.703 186.802 465.953C186.802 467.204 187.81 468.218 189.054 468.218C190.298 468.218 191.306 467.204 191.306 465.953Z" fill="#849ACE"/>
<path d="M204.82 465.953C204.82 464.703 203.812 463.689 202.568 463.689C201.324 463.689 200.316 464.703 200.316 465.953C200.316 467.204 201.324 468.218 202.568 468.218C203.812 468.218 204.82 467.204 204.82 465.953Z" fill="#849ACE"/>
<path d="M218.334 465.953C218.334 464.703 217.326 463.689 216.082 463.689C214.838 463.689 213.829 464.703 213.829 465.953C213.829 467.204 214.838 468.218 216.082 468.218C217.326 468.218 218.334 467.204 218.334 465.953Z" fill="#849ACE"/>
<path d="M231.848 465.953C231.848 464.703 230.839 463.689 229.596 463.689C228.352 463.689 227.343 464.703 227.343 465.953C227.343 467.204 228.352 468.218 229.596 468.218C230.839 468.218 231.848 467.204 231.848 465.953Z" fill="#849ACE"/>
<path d="M245.362 465.953C245.362 464.703 244.353 463.689 243.109 463.689C241.865 463.689 240.857 464.703 240.857 465.953C240.857 467.204 241.865 468.218 243.109 468.218C244.353 468.218 245.362 467.204 245.362 465.953Z" fill="#849ACE"/>
<path d="M110.224 452.365C110.224 451.114 109.215 450.1 107.972 450.1C106.728 450.1 105.719 451.114 105.719 452.365C105.719 453.616 106.728 454.63 107.972 454.63C109.215 454.63 110.224 453.616 110.224 452.365Z" fill="#849ACE"/>
<path d="M123.738 452.365C123.738 451.114 122.729 450.1 121.485 450.1C120.241 450.1 119.233 451.114 119.233 452.365C119.233 453.616 120.241 454.63 121.485 454.63C122.729 454.63 123.738 453.616 123.738 452.365Z" fill="#849ACE"/>
<path d="M137.251 452.365C137.251 451.114 136.243 450.1 134.999 450.1C133.755 450.1 132.747 451.114 132.747 452.365C132.747 453.616 133.755 454.63 134.999 454.63C136.243 454.63 137.251 453.616 137.251 452.365Z" fill="#849ACE"/>
<path d="M150.765 452.365C150.765 451.114 149.757 450.1 148.513 450.1C147.269 450.1 146.261 451.114 146.261 452.365C146.261 453.616 147.269 454.63 148.513 454.63C149.757 454.63 150.765 453.616 150.765 452.365Z" fill="#849ACE"/>
<path d="M164.279 452.365C164.279 451.114 163.271 450.1 162.027 450.1C160.783 450.1 159.774 451.114 159.774 452.365C159.774 453.616 160.783 454.63 162.027 454.63C163.271 454.63 164.279 453.616 164.279 452.365Z" fill="#849ACE"/>
<path d="M177.793 452.365C177.793 451.114 176.784 450.1 175.54 450.1C174.297 450.1 173.288 451.114 173.288 452.365C173.288 453.616 174.297 454.63 175.54 454.63C176.784 454.63 177.793 453.616 177.793 452.365Z" fill="#849ACE"/>
<path d="M191.306 452.365C191.306 451.114 190.298 450.1 189.054 450.1C187.81 450.1 186.802 451.114 186.802 452.365C186.802 453.616 187.81 454.63 189.054 454.63C190.298 454.63 191.306 453.616 191.306 452.365Z" fill="#849ACE"/>
<path d="M204.82 452.365C204.82 451.114 203.812 450.1 202.568 450.1C201.324 450.1 200.316 451.114 200.316 452.365C200.316 453.616 201.324 454.63 202.568 454.63C203.812 454.63 204.82 453.616 204.82 452.365Z" fill="#849ACE"/>
<path d="M218.334 452.365C218.334 451.114 217.326 450.1 216.082 450.1C214.838 450.1 213.829 451.114 213.829 452.365C213.829 453.616 214.838 454.63 216.082 454.63C217.326 454.63 218.334 453.616 218.334 452.365Z" fill="#849ACE"/>
<path d="M231.848 452.365C231.848 451.114 230.839 450.1 229.596 450.1C228.352 450.1 227.343 451.114 227.343 452.365C227.343 453.616 228.352 454.63 229.596 454.63C230.839 454.63 231.848 453.616 231.848 452.365Z" fill="#849ACE"/>
<path d="M245.362 452.365C245.362 451.114 244.353 450.1 243.109 450.1C241.865 450.1 240.857 451.114 240.857 452.365C240.857 453.616 241.865 454.63 243.109 454.63C244.353 454.63 245.362 453.616 245.362 452.365Z" fill="#849ACE"/>
<path d="M110.224 438.777C110.224 437.526 109.215 436.512 107.972 436.512C106.728 436.512 105.719 437.526 105.719 438.777C105.719 440.028 106.728 441.042 107.972 441.042C109.215 441.042 110.224 440.028 110.224 438.777Z" fill="#849ACE"/>
<path d="M123.738 438.777C123.738 437.526 122.729 436.512 121.485 436.512C120.241 436.512 119.233 437.526 119.233 438.777C119.233 440.028 120.241 441.042 121.485 441.042C122.729 441.042 123.738 440.028 123.738 438.777Z" fill="#849ACE"/>
<path d="M137.251 438.777C137.251 437.526 136.243 436.512 134.999 436.512C133.755 436.512 132.747 437.526 132.747 438.777C132.747 440.028 133.755 441.042 134.999 441.042C136.243 441.042 137.251 440.028 137.251 438.777Z" fill="#849ACE"/>
<path d="M150.765 438.777C150.765 437.526 149.757 436.512 148.513 436.512C147.269 436.512 146.261 437.526 146.261 438.777C146.261 440.028 147.269 441.042 148.513 441.042C149.757 441.042 150.765 440.028 150.765 438.777Z" fill="#849ACE"/>
<path d="M164.279 438.777C164.279 437.526 163.271 436.512 162.027 436.512C160.783 436.512 159.774 437.526 159.774 438.777C159.774 440.028 160.783 441.042 162.027 441.042C163.271 441.042 164.279 440.028 164.279 438.777Z" fill="#849ACE"/>
<path d="M177.793 438.777C177.793 437.526 176.784 436.512 175.54 436.512C174.297 436.512 173.288 437.526 173.288 438.777C173.288 440.028 174.297 441.042 175.54 441.042C176.784 441.042 177.793 440.028 177.793 438.777Z" fill="#849ACE"/>
<path d="M191.306 438.777C191.306 437.526 190.298 436.512 189.054 436.512C187.81 436.512 186.802 437.526 186.802 438.777C186.802 440.028 187.81 441.042 189.054 441.042C190.298 441.042 191.306 440.028 191.306 438.777Z" fill="#849ACE"/>
<path d="M204.82 438.777C204.82 437.526 203.812 436.512 202.568 436.512C201.324 436.512 200.316 437.526 200.316 438.777C200.316 440.028 201.324 441.042 202.568 441.042C203.812 441.042 204.82 440.028 204.82 438.777Z" fill="#849ACE"/>
<path d="M218.334 438.777C218.334 437.526 217.326 436.512 216.082 436.512C214.838 436.512 213.829 437.526 213.829 438.777C213.829 440.028 214.838 441.042 216.082 441.042C217.326 441.042 218.334 440.028 218.334 438.777Z" fill="#849ACE"/>
<path d="M231.848 438.777C231.848 437.526 230.839 436.512 229.596 436.512C228.352 436.512 227.343 437.526 227.343 438.777C227.343 440.028 228.352 441.042 229.596 441.042C230.839 441.042 231.848 440.028 231.848 438.777Z" fill="#849ACE"/>
<path d="M245.362 438.777C245.362 437.526 244.353 436.512 243.109 436.512C241.865 436.512 240.857 437.526 240.857 438.777C240.857 440.028 241.865 441.042 243.109 441.042C244.353 441.042 245.362 440.028 245.362 438.777Z" fill="#849ACE"/>
<path d="M110.224 425.189C110.224 423.938 109.215 422.924 107.972 422.924C106.728 422.924 105.719 423.938 105.719 425.189C105.719 426.439 106.728 427.453 107.972 427.453C109.215 427.453 110.224 426.439 110.224 425.189Z" fill="#849ACE"/>
<path d="M123.738 425.189C123.738 423.938 122.729 422.924 121.485 422.924C120.241 422.924 119.233 423.938 119.233 425.189C119.233 426.439 120.241 427.453 121.485 427.453C122.729 427.453 123.738 426.439 123.738 425.189Z" fill="#849ACE"/>
<path d="M137.251 425.189C137.251 423.938 136.243 422.924 134.999 422.924C133.755 422.924 132.747 423.938 132.747 425.189C132.747 426.439 133.755 427.453 134.999 427.453C136.243 427.453 137.251 426.439 137.251 425.189Z" fill="#849ACE"/>
<path d="M150.765 425.189C150.765 423.938 149.757 422.924 148.513 422.924C147.269 422.924 146.261 423.938 146.261 425.189C146.261 426.439 147.269 427.453 148.513 427.453C149.757 427.453 150.765 426.439 150.765 425.189Z" fill="#849ACE"/>
<path d="M164.279 425.189C164.279 423.938 163.271 422.924 162.027 422.924C160.783 422.924 159.774 423.938 159.774 425.189C159.774 426.439 160.783 427.453 162.027 427.453C163.271 427.453 164.279 426.439 164.279 425.189Z" fill="#849ACE"/>
<path d="M177.793 425.189C177.793 423.938 176.784 422.924 175.54 422.924C174.297 422.924 173.288 423.938 173.288 425.189C173.288 426.439 174.297 427.453 175.54 427.453C176.784 427.453 177.793 426.439 177.793 425.189Z" fill="#849ACE"/>
<path d="M191.306 425.189C191.306 423.938 190.298 422.924 189.054 422.924C187.81 422.924 186.802 423.938 186.802 425.189C186.802 426.439 187.81 427.453 189.054 427.453C190.298 427.453 191.306 426.439 191.306 425.189Z" fill="#849ACE"/>
<path d="M204.82 425.189C204.82 423.938 203.812 422.924 202.568 422.924C201.324 422.924 200.316 423.938 200.316 425.189C200.316 426.439 201.324 427.453 202.568 427.453C203.812 427.453 204.82 426.439 204.82 425.189Z" fill="#849ACE"/>
<path d="M218.334 425.189C218.334 423.938 217.326 422.924 216.082 422.924C214.838 422.924 213.829 423.938 213.829 425.189C213.829 426.439 214.838 427.453 216.082 427.453C217.326 427.453 218.334 426.439 218.334 425.189Z" fill="#849ACE"/>
<path d="M231.848 425.189C231.848 423.938 230.839 422.924 229.596 422.924C228.352 422.924 227.343 423.938 227.343 425.189C227.343 426.439 228.352 427.453 229.596 427.453C230.839 427.453 231.848 426.439 231.848 425.189Z" fill="#849ACE"/>
<path d="M245.362 425.189C245.362 423.938 244.353 422.924 243.109 422.924C241.865 422.924 240.857 423.938 240.857 425.189C240.857 426.439 241.865 427.453 243.109 427.453C244.353 427.453 245.362 426.439 245.362 425.189Z" fill="#849ACE"/>
<path d="M110.224 411.6C110.224 410.35 109.215 409.336 107.972 409.336C106.728 409.336 105.719 410.35 105.719 411.6C105.719 412.851 106.728 413.865 107.972 413.865C109.215 413.865 110.224 412.851 110.224 411.6Z" fill="#849ACE"/>
<path d="M123.738 411.6C123.738 410.35 122.729 409.336 121.485 409.336C120.241 409.336 119.233 410.35 119.233 411.6C119.233 412.851 120.241 413.865 121.485 413.865C122.729 413.865 123.738 412.851 123.738 411.6Z" fill="#849ACE"/>
<path d="M137.251 411.6C137.251 410.35 136.243 409.336 134.999 409.336C133.755 409.336 132.747 410.35 132.747 411.6C132.747 412.851 133.755 413.865 134.999 413.865C136.243 413.865 137.251 412.851 137.251 411.6Z" fill="#849ACE"/>
<path d="M150.765 411.6C150.765 410.35 149.757 409.336 148.513 409.336C147.269 409.336 146.261 410.35 146.261 411.6C146.261 412.851 147.269 413.865 148.513 413.865C149.757 413.865 150.765 412.851 150.765 411.6Z" fill="#849ACE"/>
<path d="M164.279 411.6C164.279 410.35 163.271 409.336 162.027 409.336C160.783 409.336 159.774 410.35 159.774 411.6C159.774 412.851 160.783 413.865 162.027 413.865C163.271 413.865 164.279 412.851 164.279 411.6Z" fill="#849ACE"/>
<path d="M177.793 411.6C177.793 410.35 176.784 409.336 175.54 409.336C174.297 409.336 173.288 410.35 173.288 411.6C173.288 412.851 174.297 413.865 175.54 413.865C176.784 413.865 177.793 412.851 177.793 411.6Z" fill="#849ACE"/>
<path d="M191.306 411.6C191.306 410.35 190.298 409.336 189.054 409.336C187.81 409.336 186.802 410.35 186.802 411.6C186.802 412.851 187.81 413.865 189.054 413.865C190.298 413.865 191.306 412.851 191.306 411.6Z" fill="#849ACE"/>
<path d="M204.82 411.6C204.82 410.35 203.812 409.336 202.568 409.336C201.324 409.336 200.316 410.35 200.316 411.6C200.316 412.851 201.324 413.865 202.568 413.865C203.812 413.865 204.82 412.851 204.82 411.6Z" fill="#849ACE"/>
<path d="M218.334 411.6C218.334 410.35 217.326 409.336 216.082 409.336C214.838 409.336 213.829 410.35 213.829 411.6C213.829 412.851 214.838 413.865 216.082 413.865C217.326 413.865 218.334 412.851 218.334 411.6Z" fill="#849ACE"/>
<path d="M231.848 411.6C231.848 410.35 230.839 409.336 229.596 409.336C228.352 409.336 227.343 410.35 227.343 411.6C227.343 412.851 228.352 413.865 229.596 413.865C230.839 413.865 231.848 412.851 231.848 411.6Z" fill="#849ACE"/>
<path d="M245.362 411.6C245.362 410.35 244.353 409.336 243.109 409.336C241.865 409.336 240.857 410.35 240.857 411.6C240.857 412.851 241.865 413.865 243.109 413.865C244.353 413.865 245.362 412.851 245.362 411.6Z" fill="#849ACE"/>
<path d="M110.224 398.012C110.224 396.761 109.215 395.747 107.972 395.747C106.728 395.747 105.719 396.761 105.719 398.012C105.719 399.263 106.728 400.277 107.972 400.277C109.215 400.277 110.224 399.263 110.224 398.012Z" fill="#849ACE"/>
<path d="M123.738 398.012C123.738 396.761 122.729 395.747 121.485 395.747C120.241 395.747 119.233 396.761 119.233 398.012C119.233 399.263 120.241 400.277 121.485 400.277C122.729 400.277 123.738 399.263 123.738 398.012Z" fill="#849ACE"/>
<path d="M137.251 398.012C137.251 396.761 136.243 395.747 134.999 395.747C133.755 395.747 132.747 396.761 132.747 398.012C132.747 399.263 133.755 400.277 134.999 400.277C136.243 400.277 137.251 399.263 137.251 398.012Z" fill="#849ACE"/>
<path d="M150.765 398.012C150.765 396.761 149.757 395.747 148.513 395.747C147.269 395.747 146.261 396.761 146.261 398.012C146.261 399.263 147.269 400.277 148.513 400.277C149.757 400.277 150.765 399.263 150.765 398.012Z" fill="#849ACE"/>
<path d="M164.279 398.012C164.279 396.761 163.271 395.747 162.027 395.747C160.783 395.747 159.774 396.761 159.774 398.012C159.774 399.263 160.783 400.277 162.027 400.277C163.271 400.277 164.279 399.263 164.279 398.012Z" fill="#849ACE"/>
<path d="M177.793 398.012C177.793 396.761 176.784 395.747 175.54 395.747C174.297 395.747 173.288 396.761 173.288 398.012C173.288 399.263 174.297 400.277 175.54 400.277C176.784 400.277 177.793 399.263 177.793 398.012Z" fill="#849ACE"/>
<path d="M191.306 398.012C191.306 396.761 190.298 395.747 189.054 395.747C187.81 395.747 186.802 396.761 186.802 398.012C186.802 399.263 187.81 400.277 189.054 400.277C190.298 400.277 191.306 399.263 191.306 398.012Z" fill="#849ACE"/>
<path d="M204.82 398.012C204.82 396.761 203.812 395.747 202.568 395.747C201.324 395.747 200.316 396.761 200.316 398.012C200.316 399.263 201.324 400.277 202.568 400.277C203.812 400.277 204.82 399.263 204.82 398.012Z" fill="#849ACE"/>
<path d="M218.334 398.012C218.334 396.761 217.326 395.747 216.082 395.747C214.838 395.747 213.829 396.761 213.829 398.012C213.829 399.263 214.838 400.277 216.082 400.277C217.326 400.277 218.334 399.263 218.334 398.012Z" fill="#849ACE"/>
<path d="M231.848 398.012C231.848 396.761 230.839 395.747 229.596 395.747C228.352 395.747 227.343 396.761 227.343 398.012C227.343 399.263 228.352 400.277 229.596 400.277C230.839 400.277 231.848 399.263 231.848 398.012Z" fill="#849ACE"/>
<path d="M245.362 398.012C245.362 396.761 244.353 395.747 243.109 395.747C241.865 395.747 240.857 396.761 240.857 398.012C240.857 399.263 241.865 400.277 243.109 400.277C244.353 400.277 245.362 399.263 245.362 398.012Z" fill="#849ACE"/>
<path d="M110.224 384.424C110.224 383.173 109.215 382.159 107.972 382.159C106.728 382.159 105.719 383.173 105.719 384.424C105.719 385.675 106.728 386.689 107.972 386.689C109.215 386.689 110.224 385.675 110.224 384.424Z" fill="#849ACE"/>
<path d="M123.738 384.424C123.738 383.173 122.729 382.159 121.485 382.159C120.241 382.159 119.233 383.173 119.233 384.424C119.233 385.675 120.241 386.689 121.485 386.689C122.729 386.689 123.738 385.675 123.738 384.424Z" fill="#849ACE"/>
<path d="M137.251 384.424C137.251 383.173 136.243 382.159 134.999 382.159C133.755 382.159 132.747 383.173 132.747 384.424C132.747 385.675 133.755 386.689 134.999 386.689C136.243 386.689 137.251 385.675 137.251 384.424Z" fill="#849ACE"/>
<path d="M150.765 384.424C150.765 383.173 149.757 382.159 148.513 382.159C147.269 382.159 146.261 383.173 146.261 384.424C146.261 385.675 147.269 386.689 148.513 386.689C149.757 386.689 150.765 385.675 150.765 384.424Z" fill="#849ACE"/>
<path d="M164.279 384.424C164.279 383.173 163.271 382.159 162.027 382.159C160.783 382.159 159.774 383.173 159.774 384.424C159.774 385.675 160.783 386.689 162.027 386.689C163.271 386.689 164.279 385.675 164.279 384.424Z" fill="#849ACE"/>
<path d="M177.793 384.424C177.793 383.173 176.784 382.159 175.54 382.159C174.297 382.159 173.288 383.173 173.288 384.424C173.288 385.675 174.297 386.689 175.54 386.689C176.784 386.689 177.793 385.675 177.793 384.424Z" fill="#849ACE"/>
<path d="M191.306 384.424C191.306 383.173 190.298 382.159 189.054 382.159C187.81 382.159 186.802 383.173 186.802 384.424C186.802 385.675 187.81 386.689 189.054 386.689C190.298 386.689 191.306 385.675 191.306 384.424Z" fill="#849ACE"/>
<path d="M204.82 384.424C204.82 383.173 203.812 382.159 202.568 382.159C201.324 382.159 200.316 383.173 200.316 384.424C200.316 385.675 201.324 386.689 202.568 386.689C203.812 386.689 204.82 385.675 204.82 384.424Z" fill="#849ACE"/>
<path d="M218.334 384.424C218.334 383.173 217.326 382.159 216.082 382.159C214.838 382.159 213.829 383.173 213.829 384.424C213.829 385.675 214.838 386.689 216.082 386.689C217.326 386.689 218.334 385.675 218.334 384.424Z" fill="#849ACE"/>
<path d="M231.848 384.424C231.848 383.173 230.839 382.159 229.596 382.159C228.352 382.159 227.343 383.173 227.343 384.424C227.343 385.675 228.352 386.689 229.596 386.689C230.839 386.689 231.848 385.675 231.848 384.424Z" fill="#849ACE"/>
<path d="M245.362 384.424C245.362 383.173 244.353 382.159 243.109 382.159C241.865 382.159 240.857 383.173 240.857 384.424C240.857 385.675 241.865 386.689 243.109 386.689C244.353 386.689 245.362 385.675 245.362 384.424Z" fill="#849ACE"/>
</svg>
