<svg width="50" height="50" viewBox="0 0 50 50" fill="none" xmlns="http://www.w3.org/2000/svg">
<rect width="50" height="50" rx="8" fill="#2B315F"/>
<path d="M32.5 28.75H30V31.25H32.5M32.5 23.75H30V26.25H32.5M35 33.75H25V31.25H27.5V28.75H25V26.25H27.5V23.75H25V21.25H35M22.5 18.75H20V16.25H22.5M22.5 23.75H20V21.25H22.5M22.5 28.75H20V26.25H22.5M22.5 33.75H20V31.25H22.5M17.5 18.75H15V16.25H17.5M17.5 23.75H15V21.25H17.5M17.5 28.75H15V26.25H17.5M17.5 33.75H15V31.25H17.5M25 18.75V13.75H12.5V36.25H37.5V18.75H25Z" fill="#DF8317"/>
</svg>
