<svg width="50" height="53" viewBox="0 0 50 53" fill="none" xmlns="http://www.w3.org/2000/svg">
<path d="M0 4C0 1.79086 1.79086 0 4 0H46C48.2091 0 50 1.79086 50 4V49C50 51.2091 48.2091 53 46 53H4C1.79086 53 0 51.2091 0 49V4Z" fill="white"/>
<path d="M19.9481 22V10.74L16.6281 12.92L15.8681 11.6L20.0881 8.8H21.7081V22H19.9481ZM31.12 22V10.74L27.8 12.92L27.04 11.6L31.26 8.8H32.88V22H31.12Z" fill="#333333"/>
<path d="M12.6229 44.472C11.8856 44.472 11.2182 44.3367 10.6209 44.066C10.0236 43.7953 9.55224 43.4173 9.20691 42.932C8.86157 42.4467 8.68891 41.8913 8.68891 41.266C8.68891 41.07 8.70291 40.8133 8.73091 40.496C8.76824 40.1693 8.81024 39.81 8.85691 39.418C8.91291 39.0167 8.97357 38.6153 9.03891 38.214C9.10424 37.8033 9.16491 37.416 9.22091 37.052L10.2989 37.22C10.1962 37.864 10.1029 38.4613 10.0189 39.012C9.94424 39.5533 9.88357 40.02 9.83691 40.412C9.79957 40.7947 9.78091 41.0793 9.78091 41.266C9.78091 41.6953 9.89757 42.0733 10.1309 42.4C10.3736 42.736 10.7096 42.9973 11.1389 43.184C11.5682 43.38 12.0629 43.478 12.6229 43.478C13.1829 43.478 13.6636 43.3893 14.0649 43.212C14.4662 43.0347 14.7742 42.7873 14.9889 42.47C15.2036 42.1527 15.3109 41.7793 15.3109 41.35V35.4H16.4029V41.35C16.4029 42.0033 16.2302 42.5633 15.8849 43.03C15.5489 43.4967 15.0962 43.8513 14.5269 44.094C13.9576 44.346 13.3229 44.472 12.6229 44.472ZM16.4029 41V40.006H17.9709C18.2882 40.006 18.5309 39.9593 18.6989 39.866C18.8669 39.7727 18.9836 39.586 19.0489 39.306C19.1142 39.026 19.1469 38.6153 19.1469 38.074V34.7H20.2389V38.074C20.2389 38.802 20.1596 39.3807 20.0009 39.81C19.8516 40.2393 19.6089 40.5473 19.2729 40.734C18.9462 40.9113 18.5122 41 17.9709 41H16.4029ZM20.9249 41C20.6076 41 20.2949 40.9393 19.9869 40.818C19.6882 40.6967 19.3942 40.5053 19.1049 40.244L19.8189 39.502C20.0336 39.6793 20.2249 39.81 20.3929 39.894C20.5702 39.9687 20.7476 40.006 20.9249 40.006H23.4169L22.9969 40.454V37.108C22.9969 36.94 22.9782 36.702 22.9409 36.394C22.9036 36.086 22.8522 35.7407 22.7869 35.358C22.7309 34.966 22.6656 34.574 22.5909 34.182L23.6549 34C23.7202 34.3267 23.7856 34.6907 23.8509 35.092C23.9162 35.4933 23.9676 35.876 24.0049 36.24C24.0516 36.5947 24.0749 36.884 24.0749 37.108V41H20.9249ZM25.208 44.094C25.0867 44.094 24.9607 44.0847 24.83 44.066C24.69 44.0567 24.5547 44.0473 24.424 44.038L24.55 43.044C24.6807 43.0533 24.802 43.0627 24.914 43.072C25.026 43.0907 25.124 43.1 25.208 43.1C25.6467 43.1 26.0014 42.932 26.272 42.596C26.5427 42.2693 26.678 41.812 26.678 41.224V34H27.77V41.224C27.77 41.7933 27.658 42.2927 27.434 42.722C27.2194 43.1607 26.9207 43.4967 26.538 43.73C26.1554 43.9727 25.712 44.094 25.208 44.094ZM31.1818 41V40.006H32.8898V41H31.1818ZM30.1038 41V30.962H31.1818V41H30.1038ZM32.8898 41V40.006C33.0111 40.006 33.0858 40.0527 33.1138 40.146C33.1511 40.23 33.1698 40.3467 33.1698 40.496C33.1698 40.6453 33.1511 40.7667 33.1138 40.86C33.0858 40.9533 33.0111 41 32.8898 41ZM32.8887 41V40.006H40.5467L39.7347 40.58V37.57C39.7347 36.9167 39.66 36.4033 39.5107 36.03C39.3613 35.6567 39.1047 35.3907 38.7407 35.232C38.386 35.0733 37.9007 34.994 37.2847 34.994C36.8927 34.994 36.5007 35.022 36.1087 35.078C35.726 35.134 35.4273 35.2087 35.2127 35.302L35.8707 34.63C35.8147 34.854 35.7587 35.1387 35.7027 35.484C35.6467 35.82 35.6 36.184 35.5627 36.576C35.5253 36.968 35.5067 37.36 35.5067 37.752C35.5067 38.1533 35.5253 38.5453 35.5627 38.928C35.6 39.3107 35.642 39.642 35.6887 39.922C35.7353 40.202 35.7727 40.398 35.8007 40.51L34.7647 40.804C34.7273 40.6827 34.6807 40.4727 34.6247 40.174C34.578 39.8753 34.5313 39.516 34.4847 39.096C34.4473 38.676 34.4287 38.228 34.4287 37.752C34.4287 37.2947 34.4473 36.8513 34.4847 36.422C34.5313 35.9833 34.5827 35.5867 34.6387 35.232C34.704 34.8773 34.7647 34.5927 34.8207 34.378C35.026 34.294 35.3527 34.21 35.8007 34.126C36.2487 34.042 36.7433 34 37.2847 34C38.0687 34 38.722 34.1167 39.2447 34.35C39.7767 34.5833 40.1733 34.9613 40.4347 35.484C40.696 35.9973 40.8267 36.6927 40.8267 37.57V41H32.8887ZM32.8887 41C32.7673 41 32.6927 40.9533 32.6647 40.86C32.6273 40.7667 32.6087 40.6453 32.6087 40.496C32.6087 40.3467 32.6273 40.23 32.6647 40.146C32.6927 40.0527 32.7673 40.006 32.8887 40.006V41Z" fill="#666666"/>
</svg>
