<svg width="50" height="53" viewBox="0 0 50 53" fill="none" xmlns="http://www.w3.org/2000/svg">
<path d="M0 4C0 1.79086 1.79086 0 4 0H46C48.2091 0 50 1.79086 50 4V49C50 51.2091 48.2091 53 46 53H4C1.79086 53 0 51.2091 0 49V4Z" fill="white"/>
<path d="M15.1881 22V20.54L18.8681 16.68C19.4281 16.0933 19.9081 15.5733 20.3081 15.12C20.7081 14.6667 21.0148 14.22 21.2281 13.78C21.4415 13.34 21.5481 12.8667 21.5481 12.36C21.5481 11.52 21.3148 10.9467 20.8481 10.64C20.3948 10.32 19.7015 10.16 18.7681 10.16C18.4215 10.16 18.0348 10.1867 17.6081 10.24C17.1948 10.28 16.7881 10.3333 16.3881 10.4C16.0015 10.4533 15.6748 10.5133 15.4081 10.58L15.2681 9.14C15.5615 9.06 15.9148 8.98 16.3281 8.9C16.7415 8.82 17.1948 8.75333 17.6881 8.7C18.1815 8.63333 18.6615 8.6 19.1281 8.6C20.5281 8.6 21.5815 8.88667 22.2881 9.46C23.0081 10.02 23.3681 10.92 23.3681 12.16C23.3681 12.8133 23.2615 13.4067 23.0481 13.94C22.8481 14.46 22.5415 14.9667 22.1281 15.46C21.7281 15.9533 21.2081 16.5067 20.5681 17.12L17.2281 20.48H23.6681V22H15.1881ZM30.52 22.2C30.0267 22.2 29.5067 22.1667 28.96 22.1C28.4133 22.0467 27.9 21.98 27.42 21.9C26.94 21.82 26.54 21.74 26.22 21.66L26.36 20.24C26.6667 20.2933 27.04 20.3533 27.48 20.42C27.9333 20.4867 28.4133 20.5467 28.92 20.6C29.4267 20.64 29.9 20.66 30.34 20.66C31.2733 20.66 31.96 20.46 32.4 20.06C32.8533 19.66 33.08 19.06 33.08 18.26C33.08 17.6867 32.9667 17.2333 32.74 16.9C32.5133 16.5667 32.2 16.32 31.8 16.16C31.4133 16 30.98 15.9133 30.5 15.9H27.82V14.42H30.48C30.8133 14.42 31.1533 14.3333 31.5 14.16C31.86 13.9733 32.16 13.7133 32.4 13.38C32.6533 13.0333 32.78 12.62 32.78 12.14C32.78 11.42 32.58 10.9067 32.18 10.6C31.78 10.28 31.1133 10.12 30.18 10.12C29.7533 10.12 29.3067 10.1467 28.84 10.2C28.3867 10.24 27.9533 10.2933 27.54 10.36C27.14 10.4133 26.8067 10.4733 26.54 10.54L26.4 9.14C26.68 9.06 27.0267 8.98 27.44 8.9C27.8667 8.80667 28.32 8.73333 28.8 8.68C29.2933 8.61333 29.78 8.58 30.26 8.58C31.3267 8.58 32.1733 8.70667 32.8 8.96C33.4267 9.2 33.88 9.57333 34.16 10.08C34.44 10.5867 34.58 11.24 34.58 12.04C34.58 12.5333 34.5 12.96 34.34 13.32C34.1933 13.6667 34.0067 13.96 33.78 14.2C33.5667 14.4267 33.3533 14.6067 33.14 14.74C32.94 14.8733 32.78 14.9733 32.66 15.04C33.1133 15.2 33.5067 15.3933 33.84 15.62C34.1733 15.8467 34.4333 16.16 34.62 16.56C34.8067 16.96 34.9 17.5067 34.9 18.2C34.9 19.1067 34.7467 19.86 34.44 20.46C34.1333 21.0467 33.6533 21.4867 33 21.78C32.36 22.06 31.5333 22.2 30.52 22.2Z" fill="#333333"/>
<path d="M11.9268 41V34H13.0188V40.412L12.5148 40.006H14.5308V41H11.9268ZM8.90284 36.38V35.372H11.9268V36.38H8.90284ZM6.34084 44.094C6.21951 44.094 6.09351 44.0847 5.96284 44.066C5.82284 44.0567 5.68751 44.0473 5.55684 44.038L5.68284 43.044C5.81351 43.0533 5.93484 43.0627 6.04684 43.072C6.15884 43.0907 6.25684 43.1 6.34084 43.1C6.77951 43.1 7.13418 42.932 7.40484 42.596C7.67551 42.2693 7.81084 41.812 7.81084 41.224V34H8.90284V41.224C8.90284 41.7933 8.79084 42.2927 8.56684 42.722C8.35218 43.1607 8.05351 43.4967 7.67084 43.73C7.28818 43.9727 6.84484 44.094 6.34084 44.094ZM14.5308 41V40.006C14.6522 40.006 14.7268 40.0527 14.7548 40.146C14.7922 40.23 14.8108 40.3467 14.8108 40.496C14.8108 40.6453 14.7922 40.7667 14.7548 40.86C14.7268 40.9533 14.6522 41 14.5308 41ZM11.9268 43.52V42.26H13.0188V43.52H11.9268ZM22.4653 41V40.006H23.9773V41H22.4653ZM14.5273 41V40.006H22.1853L21.3733 40.58V37.57C21.3733 36.9167 21.2987 36.4033 21.1493 36.03C21 35.6567 20.7433 35.3907 20.3793 35.232C20.0247 35.0733 19.5393 34.994 18.9233 34.994C18.5313 34.994 18.1393 35.022 17.7473 35.078C17.3647 35.134 17.066 35.2087 16.8513 35.302L17.5093 34.63C17.4533 34.854 17.3973 35.1387 17.3413 35.484C17.2853 35.82 17.2387 36.184 17.2013 36.576C17.164 36.968 17.1453 37.36 17.1453 37.752C17.1453 38.1533 17.164 38.5453 17.2013 38.928C17.2387 39.3107 17.2807 39.642 17.3273 39.922C17.374 40.202 17.4113 40.398 17.4393 40.51L16.4033 40.804C16.366 40.6827 16.3193 40.4727 16.2633 40.174C16.2167 39.8753 16.17 39.516 16.1233 39.096C16.086 38.676 16.0673 38.228 16.0673 37.752C16.0673 37.2947 16.086 36.8513 16.1233 36.422C16.17 35.9833 16.2213 35.5867 16.2773 35.232C16.3427 34.8773 16.4033 34.5927 16.4593 34.378C16.6647 34.294 16.9913 34.21 17.4393 34.126C17.8873 34.042 18.382 34 18.9233 34C19.7073 34 20.3607 34.1167 20.8833 34.35C21.4153 34.5833 21.812 34.9613 22.0733 35.484C22.3347 35.9973 22.4653 36.6927 22.4653 37.57V41H14.5273ZM14.5273 41C14.406 41 14.3313 40.9533 14.3033 40.86C14.266 40.7667 14.2473 40.6453 14.2473 40.496C14.2473 40.3467 14.266 40.23 14.3033 40.146C14.3313 40.0527 14.406 40.006 14.5273 40.006V41ZM23.9773 41V40.006C24.0987 40.006 24.1733 40.0527 24.2013 40.146C24.2387 40.23 24.2573 40.3467 24.2573 40.496C24.2573 40.6453 24.2387 40.7667 24.2013 40.86C24.1733 40.9533 24.0987 41 23.9773 41ZM26.5786 41V40.006H28.0906V41H26.5786ZM28.0906 41V40.006C28.2119 40.006 28.2866 40.0527 28.3146 40.146C28.3519 40.23 28.3706 40.3467 28.3706 40.496C28.3706 40.6453 28.3519 40.7667 28.3146 40.86C28.2866 40.9533 28.2119 41 28.0906 41ZM23.9746 41V40.006H25.9906L25.4866 40.412V34H26.5786V41H23.9746ZM23.9746 41C23.8533 41 23.7786 40.9533 23.7506 40.86C23.7133 40.7667 23.6946 40.6453 23.6946 40.496C23.6946 40.3467 23.7133 40.23 23.7506 40.146C23.7786 40.0527 23.8533 40.006 23.9746 40.006V41ZM24.5346 32.74V31.48H25.6266V32.74H24.5346ZM26.4526 32.74V31.48H27.5446V32.74H26.4526ZM30.6938 41V40.006H32.2058V41H30.6938ZM28.0898 41V40.006H30.1058L29.6018 40.412V34H30.6938V41H28.0898ZM28.0898 41C27.9685 41 27.8938 40.9533 27.8658 40.86C27.8285 40.7667 27.8098 40.6453 27.8098 40.496C27.8098 40.3467 27.8285 40.23 27.8658 40.146C27.8938 40.0527 27.9685 40.006 28.0898 40.006V41ZM32.2058 41V40.006C32.3272 40.006 32.4018 40.0527 32.4298 40.146C32.4672 40.23 32.4858 40.3467 32.4858 40.496C32.4858 40.6453 32.4672 40.7667 32.4298 40.86C32.4018 40.9533 32.3272 41 32.2058 41ZM29.6018 43.52V42.26H30.6938V43.52H29.6018ZM39.5691 41C39.2517 41 38.9391 40.9393 38.6311 40.818C38.3324 40.6967 38.0431 40.5053 37.7631 40.244L38.4771 39.502C38.6917 39.6793 38.8831 39.81 39.0511 39.894C39.2191 39.9687 39.3917 40.006 39.5691 40.006H42.0611L41.6411 40.454V37.108C41.6411 36.94 41.6224 36.702 41.5851 36.394C41.5571 36.086 41.5104 35.7407 41.4451 35.358C41.3891 34.966 41.3191 34.574 41.2351 34.182L42.2991 34C42.3644 34.3267 42.4297 34.6907 42.4951 35.092C42.5604 35.4933 42.6164 35.876 42.6631 36.24C42.7097 36.5947 42.7331 36.884 42.7331 37.108V41H39.5691ZM32.2051 41V40.006H34.2491L33.9691 40.286V35.4H35.0471V41H32.2051ZM35.0471 41V40.006H36.6291C36.9464 40.006 37.1844 39.9593 37.3431 39.866C37.5111 39.7727 37.6277 39.586 37.6931 39.306C37.7584 39.026 37.7911 38.6153 37.7911 38.074V34.7H38.8831V38.074C38.8831 38.802 38.8037 39.3807 38.6451 39.81C38.4957 40.2393 38.2577 40.5473 37.9311 40.734C37.6044 40.9113 37.1704 41 36.6291 41H35.0471ZM32.2051 41C32.0837 41 32.0091 40.9533 31.9811 40.86C31.9437 40.7667 31.9251 40.6453 31.9251 40.496C31.9251 40.3467 31.9437 40.23 31.9811 40.146C32.0091 40.0527 32.0837 40.006 32.2051 40.006V41Z" fill="#666666"/>
</svg>
