<svg width="50" height="52" viewBox="0 0 50 52" fill="none" xmlns="http://www.w3.org/2000/svg">
<path d="M0 4C0 1.79086 1.79086 0 4 0H46C48.2091 0 50 1.79086 50 4V48C50 50.2091 48.2091 52 46 52H4C1.79086 52 0 50.2091 0 48V4Z" fill="white"/>
<path d="M15.1881 22V20.54L18.8681 16.68C19.4281 16.0933 19.9081 15.5733 20.3081 15.12C20.7081 14.6667 21.0148 14.22 21.2281 13.78C21.4415 13.34 21.5481 12.8667 21.5481 12.36C21.5481 11.52 21.3148 10.9467 20.8481 10.64C20.3948 10.32 19.7015 10.16 18.7681 10.16C18.4215 10.16 18.0348 10.1867 17.6081 10.24C17.1948 10.28 16.7881 10.3333 16.3881 10.4C16.0015 10.4533 15.6748 10.5133 15.4081 10.58L15.2681 9.14C15.5615 9.06 15.9148 8.98 16.3281 8.9C16.7415 8.82 17.1948 8.75333 17.6881 8.7C18.1815 8.63333 18.6615 8.6 19.1281 8.6C20.5281 8.6 21.5815 8.88667 22.2881 9.46C23.0081 10.02 23.3681 10.92 23.3681 12.16C23.3681 12.8133 23.2615 13.4067 23.0481 13.94C22.8481 14.46 22.5415 14.9667 22.1281 15.46C21.7281 15.9533 21.2081 16.5067 20.5681 17.12L17.2281 20.48H23.6681V22H15.1881ZM31.12 22V10.74L27.8 12.92L27.04 11.6L31.26 8.8H32.88V22H31.12Z" fill="#333333"/>
<path d="M16.6528 41V39.864H18.3808V41H16.6528ZM12.8608 44.536C12.4875 44.536 12.0875 44.504 11.6608 44.44C11.2448 44.3867 10.7861 44.3067 10.2848 44.2L10.4768 43.192C11.0421 43.2667 11.5115 43.32 11.8848 43.352C12.2688 43.384 12.5941 43.4 12.8608 43.4C13.7461 43.4 14.3915 43.2293 14.7968 42.888C15.2021 42.5573 15.4048 42.072 15.4048 41.432V33.72L16.0448 34.136H13.3408C12.7221 34.136 12.2421 34.2107 11.9008 34.36C11.5701 34.5093 11.3408 34.792 11.2128 35.208C11.0848 35.6133 11.0208 36.2107 11.0208 37C11.0208 37.7893 11.0848 38.392 11.2128 38.808C11.3408 39.2133 11.5701 39.4907 11.9008 39.64C12.2421 39.7893 12.7221 39.864 13.3408 39.864H15.4048V41H13.3408C12.4128 41 11.6875 40.8613 11.1648 40.584C10.6528 40.296 10.2901 39.8587 10.0768 39.272C9.87415 38.6747 9.77281 37.9173 9.77281 37C9.77281 36.0827 9.87415 35.3307 10.0768 34.744C10.2901 34.1467 10.6528 33.7093 11.1648 33.432C11.6875 33.144 12.4128 33 13.3408 33H16.6528V41.416C16.6528 42.0773 16.4981 42.6427 16.1888 43.112C15.8901 43.5813 15.4581 43.9333 14.8928 44.168C14.3275 44.4133 13.6501 44.536 12.8608 44.536ZM18.3808 41V39.864C18.5195 39.864 18.6048 39.9173 18.6368 40.024C18.6795 40.12 18.7008 40.2533 18.7008 40.424C18.7008 40.5947 18.6795 40.7333 18.6368 40.84C18.6048 40.9467 18.5195 41 18.3808 41ZM21.3588 41V39.864H23.0868V41H21.3588ZM23.0868 41V39.864C23.2255 39.864 23.3108 39.9173 23.3428 40.024C23.3855 40.12 23.4068 40.2533 23.4068 40.424C23.4068 40.5947 23.3855 40.7333 23.3428 40.84C23.3108 40.9467 23.2255 41 23.0868 41ZM18.3828 41V39.864H20.6868L20.1108 40.328V33H21.3588V41H18.3828ZM18.3828 41C18.2441 41 18.1588 40.9467 18.1268 40.84C18.0841 40.7333 18.0628 40.5947 18.0628 40.424C18.0628 40.2533 18.0841 40.12 18.1268 40.024C18.1588 39.9173 18.2441 39.864 18.3828 39.864V41ZM19.0228 43.88V42.44H20.2708V43.88H19.0228ZM21.2148 43.88V42.44H22.4628V43.88H21.2148ZM23.0859 41V39.864H25.3899L24.8139 40.328V33H26.0619V41H23.0859ZM23.0859 41C22.9473 41 22.8619 40.9467 22.8299 40.84C22.7873 40.7333 22.7659 40.5947 22.7659 40.424C22.7659 40.2533 22.7873 40.12 22.8299 40.024C22.8619 39.9173 22.9473 39.864 23.0859 39.864V41ZM24.8139 31.56V30.12H26.0619V31.56H24.8139ZM34.8716 41V39.864H36.5996V41H34.8716ZM31.0796 44.536C30.7062 44.536 30.3062 44.504 29.8796 44.44C29.4636 44.3867 29.0049 44.3067 28.5036 44.2L28.6956 43.192C29.2609 43.2667 29.7302 43.32 30.1036 43.352C30.4876 43.384 30.8129 43.4 31.0796 43.4C31.9649 43.4 32.6102 43.2293 33.0156 42.888C33.4209 42.5573 33.6236 42.072 33.6236 41.432V33.72L34.2636 34.136H31.5596C30.9409 34.136 30.4609 34.2107 30.1196 34.36C29.7889 34.5093 29.5596 34.792 29.4316 35.208C29.3036 35.6133 29.2396 36.2107 29.2396 37C29.2396 37.7893 29.3036 38.392 29.4316 38.808C29.5596 39.2133 29.7889 39.4907 30.1196 39.64C30.4609 39.7893 30.9409 39.864 31.5596 39.864H33.6236V41H31.5596C30.6316 41 29.9062 40.8613 29.3836 40.584C28.8716 40.296 28.5089 39.8587 28.2956 39.272C28.0929 38.6747 27.9916 37.9173 27.9916 37C27.9916 36.0827 28.0929 35.3307 28.2956 34.744C28.5089 34.1467 28.8716 33.7093 29.3836 33.432C29.9062 33.144 30.6316 33 31.5596 33H34.8716V41.416C34.8716 42.0773 34.7169 42.6427 34.4076 43.112C34.1089 43.5813 33.6769 43.9333 33.1116 44.168C32.5462 44.4133 31.8689 44.536 31.0796 44.536ZM36.5996 41V39.864C36.7382 39.864 36.8236 39.9173 36.8556 40.024C36.8982 40.12 36.9196 40.2533 36.9196 40.424C36.9196 40.5947 36.8982 40.7333 36.8556 40.84C36.8236 40.9467 36.7382 41 36.5996 41ZM36.6016 41V39.864H38.9056L38.3296 40.328V33H39.5776V41H36.6016ZM36.6016 41C36.4629 41 36.3776 40.9467 36.3456 40.84C36.3029 40.7333 36.2816 40.5947 36.2816 40.424C36.2816 40.2533 36.3029 40.12 36.3456 40.024C36.3776 39.9173 36.4629 39.864 36.6016 39.864V41ZM37.2416 43.88V42.44H38.4896V43.88H37.2416ZM39.4336 43.88V42.44H40.6816V43.88H39.4336Z" fill="#666666"/>
</svg>
