<svg width="30" height="30" viewBox="0 0 30 30" fill="none" xmlns="http://www.w3.org/2000/svg">
<path d="M15 26.25C13.4475 26.25 11.9862 25.955 10.6163 25.365C9.24708 24.7742 8.05583 23.9725 7.0425 22.96C6.02917 21.9483 5.22708 20.7583 4.63625 19.39C4.04542 18.0217 3.75 16.5596 3.75 15.0037C3.75 13.4488 4.045 11.9862 4.635 10.6163C5.22583 9.24708 6.0275 8.05583 7.04 7.0425C8.05167 6.02917 9.24167 5.22708 10.61 4.63625C11.9783 4.04542 13.4404 3.75 14.9963 3.75C16.5512 3.75 18.0138 4.04542 19.3837 4.63625C20.7537 5.22708 21.945 6.02875 22.9575 7.04125C23.9708 8.05375 24.7729 9.24417 25.3638 10.6125C25.9546 11.9817 26.25 13.4442 26.25 15V16.235C26.25 17.2883 25.8883 18.1792 25.165 18.9075C24.4417 19.6358 23.5533 20 22.5 20C21.755 20 21.0758 19.7958 20.4625 19.3875C19.8483 18.9792 19.3942 18.435 19.1 17.755C18.625 18.4392 18.0312 18.9846 17.3187 19.3912C16.6062 19.7971 15.8333 20 15 20C13.6075 20 12.4258 19.515 11.455 18.545C10.4842 17.575 9.99917 16.3933 10 15C10 13.6075 10.485 12.4258 11.455 11.455C12.425 10.4842 13.6067 9.99917 15 10C16.3925 10 17.5742 10.485 18.545 11.455C19.5158 12.425 20.0008 13.6067 20 15V16.235C20 16.9217 20.245 17.5125 20.735 18.0075C21.2258 18.5025 21.8142 18.75 22.5 18.75C23.1858 18.75 23.7742 18.5025 24.265 18.0075C24.755 17.5125 25 16.9217 25 16.235V15C25 12.2083 24.0312 9.84375 22.0938 7.90625C20.1562 5.96875 17.7917 5 15 5C12.2083 5 9.84375 5.96875 7.90625 7.90625C5.96875 9.84375 5 12.2083 5 15C5 17.7917 5.96875 20.1562 7.90625 22.0938C9.84375 24.0312 12.2083 25 15 25H21.25V26.25H15ZM15 18.75C16.0417 18.75 16.9271 18.3854 17.6562 17.6562C18.3854 16.9271 18.75 16.0417 18.75 15C18.75 13.9583 18.3854 13.0729 17.6562 12.3438C16.9271 11.6146 16.0417 11.25 15 11.25C13.9583 11.25 13.0729 11.6146 12.3438 12.3438C11.6146 13.0729 11.25 13.9583 11.25 15C11.25 16.0417 11.6146 16.9271 12.3438 17.6562C13.0729 18.3854 13.9583 18.75 15 18.75Z" fill="#DF8317"/>
</svg>
