<svg width="30" height="31" viewBox="0 0 30 31" fill="none" xmlns="http://www.w3.org/2000/svg">
<path d="M20 4.25V5.5H24.125L18.75 10.875C17.5 9.875 16 9.25 14.375 9.25C10.625 9.25 7.5 12.375 7.5 16.125C7.5 19.625 10.25 22.625 13.75 23V25.5H11.25V26.75H13.75V29.25H15V26.75H17.5V25.5H15V23C18.5 22.625 21.25 19.75 21.25 16.125C21.25 14.5 20.625 13 19.625 11.75L25 6.375V10.5H26.25V4.25H20ZM14.375 10.5C15.625 10.5 16.875 11 17.875 11.75C18.125 12 18.5 12.25 18.75 12.625C19.5 13.625 20 14.875 20 16.125C20 19.25 17.5 21.75 14.375 21.75C11.25 21.75 8.75 19.25 8.75 16.125C8.75 13 11.25 10.5 14.375 10.5Z" fill="#DF8317"/>
</svg>
