<svg width="40" height="40" viewBox="0 0 40 40" fill="none" xmlns="http://www.w3.org/2000/svg">
<circle cx="20" cy="20" r="19" stroke="#121743" stroke-width="2"/>
<path d="M25.8333 19.1666H15.95L18.975 15.5332C19.1164 15.3631 19.1845 15.1437 19.1642 14.9233C19.1438 14.7029 19.0368 14.4997 18.8666 14.3582C18.6965 14.2168 18.4771 14.1487 18.2567 14.1691C18.0364 14.1894 17.8331 14.2964 17.6916 14.4666L13.525 19.4666C13.4969 19.5063 13.4719 19.5481 13.45 19.5916C13.45 19.6332 13.45 19.6582 13.3916 19.6999C13.3539 19.7955 13.3341 19.8972 13.3333 19.9999C13.3341 20.1026 13.3539 20.2044 13.3916 20.2999C13.3916 20.3416 13.3916 20.3666 13.45 20.4082C13.4719 20.4517 13.4969 20.4935 13.525 20.5332L17.6916 25.5332C17.77 25.6273 17.8681 25.703 17.979 25.7548C18.0899 25.8067 18.2109 25.8334 18.3333 25.8332C18.528 25.8336 18.7167 25.7658 18.8666 25.6416C18.951 25.5716 19.0208 25.4857 19.0719 25.3887C19.123 25.2918 19.1545 25.1857 19.1646 25.0765C19.1747 24.9674 19.1631 24.8573 19.1306 24.7527C19.098 24.648 19.0451 24.5508 18.975 24.4666L15.95 20.8332H25.8333C26.0543 20.8332 26.2663 20.7454 26.4226 20.5892C26.5788 20.4329 26.6666 20.2209 26.6666 19.9999C26.6666 19.7789 26.5788 19.5669 26.4226 19.4106C26.2663 19.2544 26.0543 19.1666 25.8333 19.1666Z" fill="#121743"/>
</svg>
