<svg width="20" height="21" viewBox="0 0 20 21" fill="none" xmlns="http://www.w3.org/2000/svg">
<path d="M14.7142 4.91989C12.1108 2.35906 7.89002 2.35906 5.28668 4.91989C4.66859 5.52376 4.17744 6.24509 3.84211 7.04148C3.50679 7.83788 3.33405 8.69328 3.33405 9.55739C3.33405 10.4215 3.50679 11.2769 3.84211 12.0733C4.17744 12.8697 4.66859 13.591 5.28668 14.1949L10 18.8324L14.7142 14.1949C15.3323 13.591 15.8234 12.8697 16.1588 12.0733C16.4941 11.2769 16.6668 10.4215 16.6668 9.55739C16.6668 8.69328 16.4941 7.83788 16.1588 7.04148C15.8234 6.24509 15.3323 5.52376 14.7142 4.91989ZM10 11.7491C9.44335 11.7491 8.92085 11.5324 8.52668 11.1391C8.13648 10.748 7.91733 10.2182 7.91733 9.66573C7.91733 9.1133 8.13648 8.58343 8.52668 8.19239C8.92002 7.79906 9.44335 7.58239 10 7.58239C10.5567 7.58239 11.08 7.79906 11.4733 8.19239C11.8636 8.58343 12.0827 9.1133 12.0827 9.66573C12.0827 10.2182 11.8636 10.748 11.4733 11.1391C11.08 11.5324 10.5567 11.7491 10 11.7491Z" fill="#DF8317"/>
</svg>
