<svg width="44" height="78" viewBox="0 0 44 78" fill="none" xmlns="http://www.w3.org/2000/svg">
<path d="M1 17.425C1 17.9773 0.552285 18.425 0 18.425L0 22.1666C0.552285 22.1666 1 22.6143 1 23.1666L1 26.0375C1 26.2768 1.06131 26.4825 1.15954 26.653C1.396 27.0634 1.30869 27.5717 0.977103 27.8819C1.06393 27.94 1.1547 27.9918 1.24865 28.037C1.34522 27.5956 1.73401 27.2612 2.20559 27.2518C2.39626 27.248 2.59696 27.1945 2.7946 27.0701L4.23729 26.162C4.70469 25.8678 5.3221 26.0082 5.6163 26.4756L6.8091 25.7248C6.51489 25.2574 6.65529 24.6399 7.12269 24.3457L10.0081 22.5295C10.4755 22.2353 11.0929 22.3757 11.3871 22.8431L12.5799 22.0923C12.2857 21.6249 12.4261 21.0075 12.8935 20.7133L15.7789 18.8971C16.2463 18.6029 16.8637 18.7433 17.1579 19.2107L18.3507 18.4599C18.0565 17.9925 18.1969 17.3751 18.6643 17.0809L20.107 16.1728C21.136 15.525 22.4403 15.525 23.4694 16.1728L24.9121 17.0809C25.3795 17.3751 25.5199 17.9925 25.2257 18.4599L26.4184 19.2107C26.7127 18.7433 27.3301 18.6029 27.7975 18.8971L30.6829 20.7133C31.1503 21.0075 31.2907 21.6249 30.9964 22.0923L32.1892 22.8431C32.4835 22.3757 33.1009 22.2353 33.5683 22.5295L36.4537 24.3457C36.9211 24.6399 37.0615 25.2574 36.7672 25.7248L37.96 26.4756C38.2542 26.0082 38.8717 25.8678 39.3391 26.162L40.7817 27.0701C40.9794 27.1945 41.1801 27.248 41.3708 27.2518C41.8423 27.2612 42.2311 27.5956 42.3277 28.037C42.4216 27.9918 42.5124 27.94 42.5992 27.8819C42.2677 27.5717 42.1803 27.0634 42.4168 26.653C42.515 26.4825 42.5763 26.2768 42.5763 26.0375V23.1666C42.5763 22.6143 43.0241 22.1666 43.5763 22.1666V18.425C43.0241 18.425 42.5763 17.9773 42.5763 17.425V14.5542C42.5763 14.1283 42.3594 13.7394 42.0133 13.5215L40.3792 12.4929C39.9118 12.1987 39.7714 11.5813 40.0656 11.1139L38.49 10.1222C38.1958 10.5896 37.5784 10.73 37.111 10.4358L33.8427 8.37856C33.3753 8.08436 33.2349 7.46696 33.5291 6.99956L31.9535 6.00778C31.6593 6.47518 31.0419 6.61558 30.5745 6.32137L27.3063 4.26418C26.8389 3.96998 26.6985 3.35258 26.9927 2.88518L25.4171 1.8934C25.1229 2.3608 24.5055 2.5012 24.0381 2.20699L22.4039 1.1784C22.026 0.940529 21.5503 0.940529 21.1724 1.17841L19.5383 2.20699C19.0709 2.5012 18.4535 2.3608 18.1593 1.8934L16.5837 2.88518C16.8779 3.35258 16.7375 3.96998 16.2701 4.26418L13.0018 6.32137C12.5344 6.61558 11.917 6.47518 11.6228 6.00778L10.0472 6.99956C10.3414 7.46696 10.201 8.08436 9.7336 8.37856L6.46538 10.4358C5.99798 10.73 5.38058 10.5896 5.08637 10.1222L3.51075 11.1139C3.80495 11.5813 3.66455 12.1987 3.19715 12.4929L1.56304 13.5215C1.21698 13.7394 1 14.1284 1 14.5542L1 17.425ZM2.7946 76.8181L3.3273 77.6644L2.7946 76.8181L4.2373 75.91C4.70469 75.6158 5.3221 75.7562 5.6163 76.2236L6.8091 75.4728C6.51489 75.0054 6.65529 74.388 7.12269 74.0938L10.0081 72.2775C10.4755 71.9833 11.0929 72.1237 11.3871 72.5911L12.5799 71.8403C12.2857 71.3729 12.4261 70.7555 12.8935 70.4613L15.7789 68.6451C16.2463 68.3509 16.8637 68.4913 17.1579 68.9587L18.3507 68.2079C18.0565 67.7405 18.1969 67.1231 18.6643 66.8289L20.107 65.9208C21.136 65.273 22.4403 65.273 23.4694 65.9208L24.9121 66.8289C25.3795 67.1231 25.5199 67.7405 25.2257 68.2079L26.4184 68.9587C26.7127 68.4913 27.3301 68.3509 27.7975 68.6451L30.6829 70.4613C31.1503 70.7555 31.2907 71.3729 30.9964 71.8403L32.1892 72.5911C32.4835 72.1237 33.1009 71.9833 33.5683 72.2775L36.4537 74.0938C36.9211 74.388 37.0615 75.0054 36.7672 75.4728L37.96 76.2236C38.2542 75.7562 38.8717 75.6158 39.3391 75.91L40.7817 76.8181L40.2513 77.6608L40.7817 76.8181C40.9794 76.9425 41.1801 76.996 41.3708 76.9998C41.8423 77.0092 42.2311 77.3436 42.3277 77.785C42.4216 77.7398 42.5124 77.688 42.5992 77.6299C42.2677 77.3197 42.1803 76.8115 42.4168 76.401C42.515 76.2305 42.5763 76.0248 42.5763 75.7855V72.9146C42.5763 72.3624 43.0241 71.9146 43.5763 71.9146V68.173C43.0241 68.173 42.5763 67.7253 42.5763 67.173V64.3022C42.5763 63.8764 42.3594 63.4874 42.0133 63.2695L40.3792 62.241C39.9118 61.9467 39.7714 61.3293 40.0656 60.8619L38.49 59.8702C38.1958 60.3376 37.5784 60.478 37.111 60.1838L33.8427 58.1266C33.3753 57.8324 33.2349 57.215 33.5291 56.7476L31.9535 55.7558C31.6593 56.2232 31.0419 56.3636 30.5745 56.0694L27.3063 54.0122C26.8389 53.718 26.6985 53.1006 26.9927 52.6332L25.4171 51.6414C25.1229 52.1088 24.5055 52.2492 24.0381 51.955L22.4039 50.9264C22.026 50.6885 21.5503 50.6885 21.1724 50.9264L19.5383 51.955C19.0709 52.2492 18.4535 52.1088 18.1593 51.6414L16.5837 52.6332C16.8779 53.1006 16.7375 53.718 16.2701 54.0122L13.0018 56.0694C12.5344 56.3636 11.917 56.2232 11.6228 55.7558L10.0472 56.7476C10.3414 57.215 10.201 57.8324 9.7336 58.1266L6.46538 60.1838C5.99798 60.478 5.38058 60.3376 5.08637 59.8702L3.51075 60.8619C3.80495 61.3293 3.66455 61.9467 3.19715 62.241L1.56304 63.2695C1.21699 63.4874 1 63.8764 1 64.3022V67.173C1 67.7253 0.552285 68.173 0 68.173L0 71.9146C0.552285 71.9146 1 72.3624 1 72.9146V75.7855C1 76.0248 1.06131 76.2305 1.15954 76.401C1.39601 76.8115 1.30869 77.3197 0.977102 77.6299C1.06392 77.688 1.1547 77.7398 1.24865 77.785C1.34522 77.3436 1.73401 77.0092 2.20559 76.9998C2.39626 76.996 2.59696 76.9425 2.7946 76.8181ZM1 42.299C1 42.8513 0.552285 43.299 0 43.299L0 47.0406C0.552285 47.0406 1 47.4883 1 48.0406L1 50.9115C1 51.1508 1.06131 51.3565 1.15954 51.527C1.39601 51.9375 1.30869 52.4457 0.977103 52.7559C1.06393 52.814 1.1547 52.8658 1.24865 52.911C1.34522 52.4696 1.73401 52.1352 2.20559 52.1258C2.39626 52.122 2.59696 52.0685 2.7946 51.9441L4.2373 51.036C4.70469 50.7418 5.3221 50.8822 5.6163 51.3496L6.8091 50.5988C6.51489 50.1314 6.65529 49.514 7.12269 49.2197L10.0081 47.4035C10.4755 47.1093 11.0929 47.2497 11.3871 47.7171L12.5799 46.9663C12.2857 46.4989 12.4261 45.8815 12.8935 45.5873L15.7789 43.7711C16.2463 43.4769 16.8637 43.6173 17.1579 44.0847L18.3507 43.3339C18.0565 42.8665 18.1969 42.2491 18.6643 41.9549L20.107 41.0468C21.136 40.399 22.4403 40.399 23.4694 41.0468L24.9121 41.9549C25.3795 42.2491 25.5199 42.8665 25.2257 43.3339L26.4184 44.0847C26.7127 43.6173 27.3301 43.4769 27.7975 43.7711L30.6829 45.5873C31.1503 45.8815 31.2907 46.4989 30.9964 46.9663L32.1892 47.7171C32.4835 47.2497 33.1009 47.1093 33.5683 47.4035L36.4537 49.2197C36.9211 49.514 37.0615 50.1314 36.7672 50.5988L37.96 51.3496C38.2542 50.8822 38.8717 50.7418 39.3391 51.036L40.7817 51.9441C40.9794 52.0685 41.1801 52.122 41.3708 52.1258C41.8423 52.1352 42.2311 52.4696 42.3277 52.911C42.4216 52.8658 42.5124 52.814 42.5992 52.7559C42.2677 52.4457 42.1803 51.9375 42.4168 51.527C42.515 51.3565 42.5763 51.1508 42.5763 50.9115V48.0406C42.5763 47.4884 43.0241 47.0406 43.5763 47.0406V43.299C43.0241 43.299 42.5763 42.8513 42.5763 42.299V39.4282C42.5763 39.0024 42.3594 38.6134 42.0133 38.3955L40.3792 37.367C39.9118 37.0727 39.7714 36.4553 40.0656 35.9879L38.49 34.9962C38.1958 35.4636 37.5784 35.604 37.111 35.3098L33.8427 33.2526C33.3753 32.9584 33.2349 32.341 33.5291 31.8736L31.9535 30.8818C31.6593 31.3492 31.0419 31.4896 30.5745 31.1954L27.3063 29.1382C26.8389 28.844 26.6985 28.2266 26.9927 27.7592L25.4171 26.7674C25.1229 27.2348 24.5055 27.3752 24.0381 27.081L22.4039 26.0524C22.026 25.8145 21.5503 25.8145 21.1724 26.0524L19.5383 27.081C19.0709 27.3752 18.4535 27.2348 18.1593 26.7674L16.5837 27.7592C16.8779 28.2266 16.7375 28.844 16.2701 29.1382L13.0018 31.1954C12.5344 31.4896 11.917 31.3492 11.6228 30.8818L10.0472 31.8736C10.3414 32.341 10.201 32.9584 9.7336 33.2526L6.46538 35.3098C5.99798 35.604 5.38058 35.4636 5.08637 34.9962L3.51075 35.9879C3.80495 36.4553 3.66455 37.0727 3.19715 37.367L1.56304 38.3955C1.21698 38.6134 1 39.0024 1 39.4282L1 42.299Z" stroke="#9FA2A8" stroke-width="2" stroke-linecap="round" stroke-dasharray="4 4"/>
</svg>
