<svg width="141" height="155" viewBox="0 0 141 155" fill="none" xmlns="http://www.w3.org/2000/svg">
<path d="M5.22395 151.894C5.22395 150.644 4.21557 149.63 2.97166 149.63C1.72775 149.63 0.71936 150.644 0.71936 151.894C0.71936 153.145 1.72775 154.159 2.97166 154.159C4.21557 154.159 5.22395 153.145 5.22395 151.894Z" fill="#849ACE"/>
<path d="M18.7377 151.894C18.7377 150.644 17.7293 149.63 16.4854 149.63C15.2415 149.63 14.2331 150.644 14.2331 151.894C14.2331 153.145 15.2415 154.159 16.4854 154.159C17.7293 154.159 18.7377 153.145 18.7377 151.894Z" fill="#849ACE"/>
<path d="M32.2515 151.894C32.2515 150.644 31.2431 149.63 29.9992 149.63C28.7553 149.63 27.7469 150.644 27.7469 151.894C27.7469 153.145 28.7553 154.159 29.9992 154.159C31.2431 154.159 32.2515 153.145 32.2515 151.894Z" fill="#849ACE"/>
<path d="M45.7653 151.894C45.7653 150.644 44.7569 149.63 43.513 149.63C42.2691 149.63 41.2607 150.644 41.2607 151.894C41.2607 153.145 42.2691 154.159 43.513 154.159C44.7569 154.159 45.7653 153.145 45.7653 151.894Z" fill="#849ACE"/>
<path d="M59.2791 151.894C59.2791 150.644 58.2707 149.63 57.0268 149.63C55.7829 149.63 54.7745 150.644 54.7745 151.894C54.7745 153.145 55.7829 154.159 57.0268 154.159C58.2707 154.159 59.2791 153.145 59.2791 151.894Z" fill="#849ACE"/>
<path d="M72.7928 151.894C72.7928 150.644 71.7845 149.63 70.5405 149.63C69.2966 149.63 68.2882 150.644 68.2882 151.894C68.2882 153.145 69.2966 154.159 70.5405 154.159C71.7845 154.159 72.7928 153.145 72.7928 151.894Z" fill="#849ACE"/>
<path d="M86.3066 151.894C86.3066 150.644 85.2982 149.63 84.0543 149.63C82.8104 149.63 81.802 150.644 81.802 151.894C81.802 153.145 82.8104 154.159 84.0543 154.159C85.2982 154.159 86.3066 153.145 86.3066 151.894Z" fill="#849ACE"/>
<path d="M99.8204 151.894C99.8204 150.644 98.812 149.63 97.5681 149.63C96.3242 149.63 95.3158 150.644 95.3158 151.894C95.3158 153.145 96.3242 154.159 97.5681 154.159C98.812 154.159 99.8204 153.145 99.8204 151.894Z" fill="#849ACE"/>
<path d="M113.334 151.894C113.334 150.644 112.326 149.63 111.082 149.63C109.838 149.63 108.83 150.644 108.83 151.894C108.83 153.145 109.838 154.159 111.082 154.159C112.326 154.159 113.334 153.145 113.334 151.894Z" fill="#849ACE"/>
<path d="M126.848 151.894C126.848 150.644 125.84 149.63 124.596 149.63C123.352 149.63 122.343 150.644 122.343 151.894C122.343 153.145 123.352 154.159 124.596 154.159C125.84 154.159 126.848 153.145 126.848 151.894Z" fill="#849ACE"/>
<path d="M140.362 151.894C140.362 150.644 139.353 149.63 138.109 149.63C136.866 149.63 135.857 150.644 135.857 151.894C135.857 153.145 136.866 154.159 138.109 154.159C139.353 154.159 140.362 153.145 140.362 151.894Z" fill="#849ACE"/>
<path d="M5.22395 138.306C5.22395 137.055 4.21557 136.042 2.97166 136.042C1.72775 136.042 0.71936 137.055 0.71936 138.306C0.71936 139.557 1.72775 140.571 2.97166 140.571C4.21557 140.571 5.22395 139.557 5.22395 138.306Z" fill="#849ACE"/>
<path d="M18.7377 138.306C18.7377 137.055 17.7293 136.042 16.4854 136.042C15.2415 136.042 14.2331 137.055 14.2331 138.306C14.2331 139.557 15.2415 140.571 16.4854 140.571C17.7293 140.571 18.7377 139.557 18.7377 138.306Z" fill="#849ACE"/>
<path d="M32.2515 138.306C32.2515 137.055 31.2431 136.042 29.9992 136.042C28.7553 136.042 27.7469 137.055 27.7469 138.306C27.7469 139.557 28.7553 140.571 29.9992 140.571C31.2431 140.571 32.2515 139.557 32.2515 138.306Z" fill="#849ACE"/>
<path d="M45.7653 138.306C45.7653 137.055 44.7569 136.042 43.513 136.042C42.2691 136.042 41.2607 137.055 41.2607 138.306C41.2607 139.557 42.2691 140.571 43.513 140.571C44.7569 140.571 45.7653 139.557 45.7653 138.306Z" fill="#849ACE"/>
<path d="M59.2791 138.306C59.2791 137.055 58.2707 136.042 57.0268 136.042C55.7829 136.042 54.7745 137.055 54.7745 138.306C54.7745 139.557 55.7829 140.571 57.0268 140.571C58.2707 140.571 59.2791 139.557 59.2791 138.306Z" fill="#849ACE"/>
<path d="M72.7928 138.306C72.7928 137.055 71.7845 136.042 70.5405 136.042C69.2966 136.042 68.2882 137.055 68.2882 138.306C68.2882 139.557 69.2966 140.571 70.5405 140.571C71.7845 140.571 72.7928 139.557 72.7928 138.306Z" fill="#849ACE"/>
<path d="M86.3066 138.306C86.3066 137.055 85.2982 136.042 84.0543 136.042C82.8104 136.042 81.802 137.055 81.802 138.306C81.802 139.557 82.8104 140.571 84.0543 140.571C85.2982 140.571 86.3066 139.557 86.3066 138.306Z" fill="#849ACE"/>
<path d="M99.8204 138.306C99.8204 137.055 98.812 136.042 97.5681 136.042C96.3242 136.042 95.3158 137.055 95.3158 138.306C95.3158 139.557 96.3242 140.571 97.5681 140.571C98.812 140.571 99.8204 139.557 99.8204 138.306Z" fill="#849ACE"/>
<path d="M113.334 138.306C113.334 137.055 112.326 136.042 111.082 136.042C109.838 136.042 108.83 137.055 108.83 138.306C108.83 139.557 109.838 140.571 111.082 140.571C112.326 140.571 113.334 139.557 113.334 138.306Z" fill="#849ACE"/>
<path d="M126.848 138.306C126.848 137.055 125.84 136.042 124.596 136.042C123.352 136.042 122.343 137.055 122.343 138.306C122.343 139.557 123.352 140.571 124.596 140.571C125.84 140.571 126.848 139.557 126.848 138.306Z" fill="#849ACE"/>
<path d="M140.362 138.306C140.362 137.055 139.353 136.042 138.109 136.042C136.866 136.042 135.857 137.055 135.857 138.306C135.857 139.557 136.866 140.571 138.109 140.571C139.353 140.571 140.362 139.557 140.362 138.306Z" fill="#849ACE"/>
<path d="M5.22395 124.718C5.22395 123.467 4.21557 122.453 2.97166 122.453C1.72775 122.453 0.71936 123.467 0.71936 124.718C0.71936 125.969 1.72775 126.983 2.97166 126.983C4.21557 126.983 5.22395 125.969 5.22395 124.718Z" fill="#849ACE"/>
<path d="M18.7377 124.718C18.7377 123.467 17.7293 122.453 16.4854 122.453C15.2415 122.453 14.2331 123.467 14.2331 124.718C14.2331 125.969 15.2415 126.983 16.4854 126.983C17.7293 126.983 18.7377 125.969 18.7377 124.718Z" fill="#849ACE"/>
<path d="M32.2515 124.718C32.2515 123.467 31.2431 122.453 29.9992 122.453C28.7553 122.453 27.7469 123.467 27.7469 124.718C27.7469 125.969 28.7553 126.983 29.9992 126.983C31.2431 126.983 32.2515 125.969 32.2515 124.718Z" fill="#849ACE"/>
<path d="M45.7653 124.718C45.7653 123.467 44.7569 122.453 43.513 122.453C42.2691 122.453 41.2607 123.467 41.2607 124.718C41.2607 125.969 42.2691 126.983 43.513 126.983C44.7569 126.983 45.7653 125.969 45.7653 124.718Z" fill="#849ACE"/>
<path d="M59.2791 124.718C59.2791 123.467 58.2707 122.453 57.0268 122.453C55.7829 122.453 54.7745 123.467 54.7745 124.718C54.7745 125.969 55.7829 126.983 57.0268 126.983C58.2707 126.983 59.2791 125.969 59.2791 124.718Z" fill="#849ACE"/>
<path d="M72.7928 124.718C72.7928 123.467 71.7845 122.453 70.5405 122.453C69.2966 122.453 68.2882 123.467 68.2882 124.718C68.2882 125.969 69.2966 126.983 70.5405 126.983C71.7845 126.983 72.7928 125.969 72.7928 124.718Z" fill="#849ACE"/>
<path d="M86.3066 124.718C86.3066 123.467 85.2982 122.453 84.0543 122.453C82.8104 122.453 81.802 123.467 81.802 124.718C81.802 125.969 82.8104 126.983 84.0543 126.983C85.2982 126.983 86.3066 125.969 86.3066 124.718Z" fill="#849ACE"/>
<path d="M99.8204 124.718C99.8204 123.467 98.812 122.453 97.5681 122.453C96.3242 122.453 95.3158 123.467 95.3158 124.718C95.3158 125.969 96.3242 126.983 97.5681 126.983C98.812 126.983 99.8204 125.969 99.8204 124.718Z" fill="#849ACE"/>
<path d="M113.334 124.718C113.334 123.467 112.326 122.453 111.082 122.453C109.838 122.453 108.83 123.467 108.83 124.718C108.83 125.969 109.838 126.983 111.082 126.983C112.326 126.983 113.334 125.969 113.334 124.718Z" fill="#849ACE"/>
<path d="M126.848 124.718C126.848 123.467 125.84 122.453 124.596 122.453C123.352 122.453 122.343 123.467 122.343 124.718C122.343 125.969 123.352 126.983 124.596 126.983C125.84 126.983 126.848 125.969 126.848 124.718Z" fill="#849ACE"/>
<path d="M140.362 124.718C140.362 123.467 139.353 122.453 138.109 122.453C136.866 122.453 135.857 123.467 135.857 124.718C135.857 125.969 136.866 126.983 138.109 126.983C139.353 126.983 140.362 125.969 140.362 124.718Z" fill="#849ACE"/>
<path d="M5.22395 111.13C5.22395 109.879 4.21557 108.865 2.97166 108.865C1.72775 108.865 0.71936 109.879 0.71936 111.13C0.71936 112.381 1.72775 113.394 2.97166 113.394C4.21557 113.394 5.22395 112.381 5.22395 111.13Z" fill="#849ACE"/>
<path d="M18.7377 111.13C18.7377 109.879 17.7293 108.865 16.4854 108.865C15.2415 108.865 14.2331 109.879 14.2331 111.13C14.2331 112.381 15.2415 113.394 16.4854 113.394C17.7293 113.394 18.7377 112.381 18.7377 111.13Z" fill="#849ACE"/>
<path d="M32.2515 111.13C32.2515 109.879 31.2431 108.865 29.9992 108.865C28.7553 108.865 27.7469 109.879 27.7469 111.13C27.7469 112.381 28.7553 113.394 29.9992 113.394C31.2431 113.394 32.2515 112.381 32.2515 111.13Z" fill="#849ACE"/>
<path d="M45.7653 111.13C45.7653 109.879 44.7569 108.865 43.513 108.865C42.2691 108.865 41.2607 109.879 41.2607 111.13C41.2607 112.381 42.2691 113.394 43.513 113.394C44.7569 113.394 45.7653 112.381 45.7653 111.13Z" fill="#849ACE"/>
<path d="M59.2791 111.13C59.2791 109.879 58.2707 108.865 57.0268 108.865C55.7829 108.865 54.7745 109.879 54.7745 111.13C54.7745 112.381 55.7829 113.394 57.0268 113.394C58.2707 113.394 59.2791 112.381 59.2791 111.13Z" fill="#849ACE"/>
<path d="M72.7928 111.13C72.7928 109.879 71.7845 108.865 70.5405 108.865C69.2966 108.865 68.2882 109.879 68.2882 111.13C68.2882 112.381 69.2966 113.394 70.5405 113.394C71.7845 113.394 72.7928 112.381 72.7928 111.13Z" fill="#849ACE"/>
<path d="M86.3066 111.13C86.3066 109.879 85.2982 108.865 84.0543 108.865C82.8104 108.865 81.802 109.879 81.802 111.13C81.802 112.381 82.8104 113.394 84.0543 113.394C85.2982 113.394 86.3066 112.381 86.3066 111.13Z" fill="#849ACE"/>
<path d="M99.8204 111.13C99.8204 109.879 98.812 108.865 97.5681 108.865C96.3242 108.865 95.3158 109.879 95.3158 111.13C95.3158 112.381 96.3242 113.394 97.5681 113.394C98.812 113.394 99.8204 112.381 99.8204 111.13Z" fill="#849ACE"/>
<path d="M113.334 111.13C113.334 109.879 112.326 108.865 111.082 108.865C109.838 108.865 108.83 109.879 108.83 111.13C108.83 112.381 109.838 113.394 111.082 113.394C112.326 113.394 113.334 112.381 113.334 111.13Z" fill="#849ACE"/>
<path d="M126.848 111.13C126.848 109.879 125.84 108.865 124.596 108.865C123.352 108.865 122.343 109.879 122.343 111.13C122.343 112.381 123.352 113.394 124.596 113.394C125.84 113.394 126.848 112.381 126.848 111.13Z" fill="#849ACE"/>
<path d="M140.362 111.13C140.362 109.879 139.353 108.865 138.109 108.865C136.866 108.865 135.857 109.879 135.857 111.13C135.857 112.381 136.866 113.394 138.109 113.394C139.353 113.394 140.362 112.381 140.362 111.13Z" fill="#849ACE"/>
<path d="M5.22395 97.5415C5.22395 96.2908 4.21557 95.2768 2.97166 95.2768C1.72775 95.2768 0.71936 96.2908 0.71936 97.5415C0.71936 98.7923 1.72775 99.8062 2.97166 99.8062C4.21557 99.8062 5.22395 98.7923 5.22395 97.5415Z" fill="#849ACE"/>
<path d="M18.7377 97.5415C18.7377 96.2908 17.7293 95.2768 16.4854 95.2768C15.2415 95.2768 14.2331 96.2908 14.2331 97.5415C14.2331 98.7923 15.2415 99.8062 16.4854 99.8062C17.7293 99.8062 18.7377 98.7923 18.7377 97.5415Z" fill="#849ACE"/>
<path d="M32.2515 97.5415C32.2515 96.2908 31.2431 95.2768 29.9992 95.2768C28.7553 95.2768 27.7469 96.2908 27.7469 97.5415C27.7469 98.7923 28.7553 99.8062 29.9992 99.8062C31.2431 99.8062 32.2515 98.7923 32.2515 97.5415Z" fill="#849ACE"/>
<path d="M45.7653 97.5415C45.7653 96.2908 44.7569 95.2768 43.513 95.2768C42.2691 95.2768 41.2607 96.2908 41.2607 97.5415C41.2607 98.7923 42.2691 99.8062 43.513 99.8062C44.7569 99.8062 45.7653 98.7923 45.7653 97.5415Z" fill="#849ACE"/>
<path d="M59.2791 97.5415C59.2791 96.2908 58.2707 95.2768 57.0268 95.2768C55.7829 95.2768 54.7745 96.2908 54.7745 97.5415C54.7745 98.7923 55.7829 99.8062 57.0268 99.8062C58.2707 99.8062 59.2791 98.7923 59.2791 97.5415Z" fill="#849ACE"/>
<path d="M72.7928 97.5415C72.7928 96.2908 71.7845 95.2768 70.5405 95.2768C69.2966 95.2768 68.2882 96.2908 68.2882 97.5415C68.2882 98.7923 69.2966 99.8062 70.5405 99.8062C71.7845 99.8062 72.7928 98.7923 72.7928 97.5415Z" fill="#849ACE"/>
<path d="M86.3066 97.5415C86.3066 96.2908 85.2982 95.2768 84.0543 95.2768C82.8104 95.2768 81.802 96.2908 81.802 97.5415C81.802 98.7923 82.8104 99.8062 84.0543 99.8062C85.2982 99.8062 86.3066 98.7923 86.3066 97.5415Z" fill="#849ACE"/>
<path d="M99.8204 97.5415C99.8204 96.2908 98.812 95.2768 97.5681 95.2768C96.3242 95.2768 95.3158 96.2908 95.3158 97.5415C95.3158 98.7923 96.3242 99.8062 97.5681 99.8062C98.812 99.8062 99.8204 98.7923 99.8204 97.5415Z" fill="#849ACE"/>
<path d="M113.334 97.5415C113.334 96.2908 112.326 95.2768 111.082 95.2768C109.838 95.2768 108.83 96.2908 108.83 97.5415C108.83 98.7923 109.838 99.8062 111.082 99.8062C112.326 99.8062 113.334 98.7923 113.334 97.5415Z" fill="#849ACE"/>
<path d="M126.848 97.5415C126.848 96.2908 125.84 95.2768 124.596 95.2768C123.352 95.2768 122.343 96.2908 122.343 97.5415C122.343 98.7923 123.352 99.8062 124.596 99.8062C125.84 99.8062 126.848 98.7923 126.848 97.5415Z" fill="#849ACE"/>
<path d="M140.362 97.5415C140.362 96.2908 139.353 95.2768 138.109 95.2768C136.866 95.2768 135.857 96.2908 135.857 97.5415C135.857 98.7923 136.866 99.8062 138.109 99.8062C139.353 99.8062 140.362 98.7923 140.362 97.5415Z" fill="#849ACE"/>
<path d="M5.22395 83.9533C5.22395 82.7025 4.21557 81.6886 2.97166 81.6886C1.72775 81.6886 0.71936 82.7025 0.71936 83.9533C0.71936 85.2041 1.72775 86.218 2.97166 86.218C4.21557 86.218 5.22395 85.2041 5.22395 83.9533Z" fill="#849ACE"/>
<path d="M18.7377 83.9533C18.7377 82.7025 17.7293 81.6886 16.4854 81.6886C15.2415 81.6886 14.2331 82.7025 14.2331 83.9533C14.2331 85.2041 15.2415 86.218 16.4854 86.218C17.7293 86.218 18.7377 85.2041 18.7377 83.9533Z" fill="#849ACE"/>
<path d="M32.2515 83.9533C32.2515 82.7025 31.2431 81.6886 29.9992 81.6886C28.7553 81.6886 27.7469 82.7025 27.7469 83.9533C27.7469 85.2041 28.7553 86.218 29.9992 86.218C31.2431 86.218 32.2515 85.2041 32.2515 83.9533Z" fill="#849ACE"/>
<path d="M45.7653 83.9533C45.7653 82.7025 44.7569 81.6886 43.513 81.6886C42.2691 81.6886 41.2607 82.7025 41.2607 83.9533C41.2607 85.2041 42.2691 86.218 43.513 86.218C44.7569 86.218 45.7653 85.2041 45.7653 83.9533Z" fill="#849ACE"/>
<path d="M59.2791 83.9533C59.2791 82.7025 58.2707 81.6886 57.0268 81.6886C55.7829 81.6886 54.7745 82.7025 54.7745 83.9533C54.7745 85.2041 55.7829 86.218 57.0268 86.218C58.2707 86.218 59.2791 85.2041 59.2791 83.9533Z" fill="#849ACE"/>
<path d="M72.7928 83.9533C72.7928 82.7025 71.7845 81.6886 70.5405 81.6886C69.2966 81.6886 68.2882 82.7025 68.2882 83.9533C68.2882 85.2041 69.2966 86.218 70.5405 86.218C71.7845 86.218 72.7928 85.2041 72.7928 83.9533Z" fill="#849ACE"/>
<path d="M86.3066 83.9533C86.3066 82.7025 85.2982 81.6886 84.0543 81.6886C82.8104 81.6886 81.802 82.7025 81.802 83.9533C81.802 85.2041 82.8104 86.218 84.0543 86.218C85.2982 86.218 86.3066 85.2041 86.3066 83.9533Z" fill="#849ACE"/>
<path d="M99.8204 83.9533C99.8204 82.7025 98.812 81.6886 97.5681 81.6886C96.3242 81.6886 95.3158 82.7025 95.3158 83.9533C95.3158 85.2041 96.3242 86.218 97.5681 86.218C98.812 86.218 99.8204 85.2041 99.8204 83.9533Z" fill="#849ACE"/>
<path d="M113.334 83.9533C113.334 82.7025 112.326 81.6886 111.082 81.6886C109.838 81.6886 108.83 82.7025 108.83 83.9533C108.83 85.2041 109.838 86.218 111.082 86.218C112.326 86.218 113.334 85.2041 113.334 83.9533Z" fill="#849ACE"/>
<path d="M126.848 83.9533C126.848 82.7025 125.84 81.6886 124.596 81.6886C123.352 81.6886 122.343 82.7025 122.343 83.9533C122.343 85.2041 123.352 86.218 124.596 86.218C125.84 86.218 126.848 85.2041 126.848 83.9533Z" fill="#849ACE"/>
<path d="M140.362 83.9533C140.362 82.7025 139.353 81.6886 138.109 81.6886C136.866 81.6886 135.857 82.7025 135.857 83.9533C135.857 85.2041 136.866 86.218 138.109 86.218C139.353 86.218 140.362 85.2041 140.362 83.9533Z" fill="#849ACE"/>
<path d="M5.22395 70.3651C5.22395 69.1143 4.21557 68.1004 2.97166 68.1004C1.72775 68.1004 0.71936 69.1143 0.71936 70.3651C0.71936 71.6158 1.72775 72.6298 2.97166 72.6298C4.21557 72.6298 5.22395 71.6158 5.22395 70.3651Z" fill="#849ACE"/>
<path d="M18.7377 70.3651C18.7377 69.1143 17.7293 68.1004 16.4854 68.1004C15.2415 68.1004 14.2331 69.1143 14.2331 70.3651C14.2331 71.6158 15.2415 72.6298 16.4854 72.6298C17.7293 72.6298 18.7377 71.6158 18.7377 70.3651Z" fill="#849ACE"/>
<path d="M32.2515 70.3651C32.2515 69.1143 31.2431 68.1004 29.9992 68.1004C28.7553 68.1004 27.7469 69.1143 27.7469 70.3651C27.7469 71.6158 28.7553 72.6298 29.9992 72.6298C31.2431 72.6298 32.2515 71.6158 32.2515 70.3651Z" fill="#849ACE"/>
<path d="M45.7653 70.3651C45.7653 69.1143 44.7569 68.1004 43.513 68.1004C42.2691 68.1004 41.2607 69.1143 41.2607 70.3651C41.2607 71.6158 42.2691 72.6298 43.513 72.6298C44.7569 72.6298 45.7653 71.6158 45.7653 70.3651Z" fill="#849ACE"/>
<path d="M59.2791 70.3651C59.2791 69.1143 58.2707 68.1004 57.0268 68.1004C55.7829 68.1004 54.7745 69.1143 54.7745 70.3651C54.7745 71.6158 55.7829 72.6298 57.0268 72.6298C58.2707 72.6298 59.2791 71.6158 59.2791 70.3651Z" fill="#849ACE"/>
<path d="M72.7928 70.3651C72.7928 69.1143 71.7845 68.1004 70.5405 68.1004C69.2966 68.1004 68.2882 69.1143 68.2882 70.3651C68.2882 71.6158 69.2966 72.6298 70.5405 72.6298C71.7845 72.6298 72.7928 71.6158 72.7928 70.3651Z" fill="#849ACE"/>
<path d="M86.3066 70.3651C86.3066 69.1143 85.2982 68.1004 84.0543 68.1004C82.8104 68.1004 81.802 69.1143 81.802 70.3651C81.802 71.6158 82.8104 72.6298 84.0543 72.6298C85.2982 72.6298 86.3066 71.6158 86.3066 70.3651Z" fill="#849ACE"/>
<path d="M99.8204 70.3651C99.8204 69.1143 98.812 68.1004 97.5681 68.1004C96.3242 68.1004 95.3158 69.1143 95.3158 70.3651C95.3158 71.6158 96.3242 72.6298 97.5681 72.6298C98.812 72.6298 99.8204 71.6158 99.8204 70.3651Z" fill="#849ACE"/>
<path d="M113.334 70.3651C113.334 69.1143 112.326 68.1004 111.082 68.1004C109.838 68.1004 108.83 69.1143 108.83 70.3651C108.83 71.6158 109.838 72.6298 111.082 72.6298C112.326 72.6298 113.334 71.6158 113.334 70.3651Z" fill="#849ACE"/>
<path d="M126.848 70.3651C126.848 69.1143 125.84 68.1004 124.596 68.1004C123.352 68.1004 122.343 69.1143 122.343 70.3651C122.343 71.6158 123.352 72.6298 124.596 72.6298C125.84 72.6298 126.848 71.6158 126.848 70.3651Z" fill="#849ACE"/>
<path d="M140.362 70.3651C140.362 69.1143 139.353 68.1004 138.109 68.1004C136.866 68.1004 135.857 69.1143 135.857 70.3651C135.857 71.6158 136.866 72.6298 138.109 72.6298C139.353 72.6298 140.362 71.6158 140.362 70.3651Z" fill="#849ACE"/>
<path d="M5.22395 56.7768C5.22395 55.5261 4.21557 54.5121 2.97166 54.5121C1.72775 54.5121 0.71936 55.5261 0.71936 56.7768C0.71936 58.0276 1.72775 59.0415 2.97166 59.0415C4.21557 59.0415 5.22395 58.0276 5.22395 56.7768Z" fill="#849ACE"/>
<path d="M18.7377 56.7768C18.7377 55.5261 17.7293 54.5121 16.4854 54.5121C15.2415 54.5121 14.2331 55.5261 14.2331 56.7768C14.2331 58.0276 15.2415 59.0415 16.4854 59.0415C17.7293 59.0415 18.7377 58.0276 18.7377 56.7768Z" fill="#849ACE"/>
<path d="M32.2515 56.7768C32.2515 55.5261 31.2431 54.5121 29.9992 54.5121C28.7553 54.5121 27.7469 55.5261 27.7469 56.7768C27.7469 58.0276 28.7553 59.0415 29.9992 59.0415C31.2431 59.0415 32.2515 58.0276 32.2515 56.7768Z" fill="#849ACE"/>
<path d="M45.7653 56.7768C45.7653 55.5261 44.7569 54.5121 43.513 54.5121C42.2691 54.5121 41.2607 55.5261 41.2607 56.7768C41.2607 58.0276 42.2691 59.0415 43.513 59.0415C44.7569 59.0415 45.7653 58.0276 45.7653 56.7768Z" fill="#849ACE"/>
<path d="M59.2791 56.7768C59.2791 55.5261 58.2707 54.5121 57.0268 54.5121C55.7829 54.5121 54.7745 55.5261 54.7745 56.7768C54.7745 58.0276 55.7829 59.0415 57.0268 59.0415C58.2707 59.0415 59.2791 58.0276 59.2791 56.7768Z" fill="#849ACE"/>
<path d="M72.7928 56.7768C72.7928 55.5261 71.7845 54.5121 70.5405 54.5121C69.2966 54.5121 68.2882 55.5261 68.2882 56.7768C68.2882 58.0276 69.2966 59.0415 70.5405 59.0415C71.7845 59.0415 72.7928 58.0276 72.7928 56.7768Z" fill="#849ACE"/>
<path d="M86.3066 56.7768C86.3066 55.5261 85.2982 54.5121 84.0543 54.5121C82.8104 54.5121 81.802 55.5261 81.802 56.7768C81.802 58.0276 82.8104 59.0415 84.0543 59.0415C85.2982 59.0415 86.3066 58.0276 86.3066 56.7768Z" fill="#849ACE"/>
<path d="M99.8204 56.7768C99.8204 55.5261 98.812 54.5121 97.5681 54.5121C96.3242 54.5121 95.3158 55.5261 95.3158 56.7768C95.3158 58.0276 96.3242 59.0415 97.5681 59.0415C98.812 59.0415 99.8204 58.0276 99.8204 56.7768Z" fill="#849ACE"/>
<path d="M113.334 56.7768C113.334 55.5261 112.326 54.5121 111.082 54.5121C109.838 54.5121 108.83 55.5261 108.83 56.7768C108.83 58.0276 109.838 59.0415 111.082 59.0415C112.326 59.0415 113.334 58.0276 113.334 56.7768Z" fill="#849ACE"/>
<path d="M126.848 56.7768C126.848 55.5261 125.84 54.5121 124.596 54.5121C123.352 54.5121 122.343 55.5261 122.343 56.7768C122.343 58.0276 123.352 59.0415 124.596 59.0415C125.84 59.0415 126.848 58.0276 126.848 56.7768Z" fill="#849ACE"/>
<path d="M140.362 56.7768C140.362 55.5261 139.353 54.5121 138.109 54.5121C136.866 54.5121 135.857 55.5261 135.857 56.7768C135.857 58.0276 136.866 59.0415 138.109 59.0415C139.353 59.0415 140.362 58.0276 140.362 56.7768Z" fill="#849ACE"/>
<path d="M5.22395 43.1886C5.22395 41.9378 4.21557 40.9239 2.97166 40.9239C1.72775 40.9239 0.71936 41.9378 0.71936 43.1886C0.71936 44.4394 1.72775 45.4533 2.97166 45.4533C4.21557 45.4533 5.22395 44.4394 5.22395 43.1886Z" fill="#849ACE"/>
<path d="M18.7377 43.1886C18.7377 41.9378 17.7293 40.9239 16.4854 40.9239C15.2415 40.9239 14.2331 41.9378 14.2331 43.1886C14.2331 44.4394 15.2415 45.4533 16.4854 45.4533C17.7293 45.4533 18.7377 44.4394 18.7377 43.1886Z" fill="#849ACE"/>
<path d="M32.2515 43.1886C32.2515 41.9378 31.2431 40.9239 29.9992 40.9239C28.7553 40.9239 27.7469 41.9378 27.7469 43.1886C27.7469 44.4394 28.7553 45.4533 29.9992 45.4533C31.2431 45.4533 32.2515 44.4394 32.2515 43.1886Z" fill="#849ACE"/>
<path d="M45.7653 43.1886C45.7653 41.9378 44.7569 40.9239 43.513 40.9239C42.2691 40.9239 41.2607 41.9378 41.2607 43.1886C41.2607 44.4394 42.2691 45.4533 43.513 45.4533C44.7569 45.4533 45.7653 44.4394 45.7653 43.1886Z" fill="#849ACE"/>
<path d="M59.2791 43.1886C59.2791 41.9378 58.2707 40.9239 57.0268 40.9239C55.7829 40.9239 54.7745 41.9378 54.7745 43.1886C54.7745 44.4394 55.7829 45.4533 57.0268 45.4533C58.2707 45.4533 59.2791 44.4394 59.2791 43.1886Z" fill="#849ACE"/>
<path d="M72.7928 43.1886C72.7928 41.9378 71.7845 40.9239 70.5405 40.9239C69.2966 40.9239 68.2882 41.9378 68.2882 43.1886C68.2882 44.4394 69.2966 45.4533 70.5405 45.4533C71.7845 45.4533 72.7928 44.4394 72.7928 43.1886Z" fill="#849ACE"/>
<path d="M86.3066 43.1886C86.3066 41.9378 85.2982 40.9239 84.0543 40.9239C82.8104 40.9239 81.802 41.9378 81.802 43.1886C81.802 44.4394 82.8104 45.4533 84.0543 45.4533C85.2982 45.4533 86.3066 44.4394 86.3066 43.1886Z" fill="#849ACE"/>
<path d="M99.8204 43.1886C99.8204 41.9378 98.812 40.9239 97.5681 40.9239C96.3242 40.9239 95.3158 41.9378 95.3158 43.1886C95.3158 44.4394 96.3242 45.4533 97.5681 45.4533C98.812 45.4533 99.8204 44.4394 99.8204 43.1886Z" fill="#849ACE"/>
<path d="M113.334 43.1886C113.334 41.9378 112.326 40.9239 111.082 40.9239C109.838 40.9239 108.83 41.9378 108.83 43.1886C108.83 44.4394 109.838 45.4533 111.082 45.4533C112.326 45.4533 113.334 44.4394 113.334 43.1886Z" fill="#849ACE"/>
<path d="M126.848 43.1886C126.848 41.9378 125.84 40.9239 124.596 40.9239C123.352 40.9239 122.343 41.9378 122.343 43.1886C122.343 44.4394 123.352 45.4533 124.596 45.4533C125.84 45.4533 126.848 44.4394 126.848 43.1886Z" fill="#849ACE"/>
<path d="M140.362 43.1886C140.362 41.9378 139.353 40.9239 138.109 40.9239C136.866 40.9239 135.857 41.9378 135.857 43.1886C135.857 44.4394 136.866 45.4533 138.109 45.4533C139.353 45.4533 140.362 44.4394 140.362 43.1886Z" fill="#849ACE"/>
<path d="M5.22395 29.6004C5.22395 28.3496 4.21557 27.3356 2.97166 27.3356C1.72775 27.3356 0.71936 28.3496 0.71936 29.6004C0.71936 30.8511 1.72775 31.8651 2.97166 31.8651C4.21557 31.8651 5.22395 30.8511 5.22395 29.6004Z" fill="#849ACE"/>
<path d="M18.7377 29.6004C18.7377 28.3496 17.7293 27.3356 16.4854 27.3356C15.2415 27.3356 14.2331 28.3496 14.2331 29.6004C14.2331 30.8511 15.2415 31.8651 16.4854 31.8651C17.7293 31.8651 18.7377 30.8511 18.7377 29.6004Z" fill="#849ACE"/>
<path d="M32.2515 29.6004C32.2515 28.3496 31.2431 27.3356 29.9992 27.3356C28.7553 27.3356 27.7469 28.3496 27.7469 29.6004C27.7469 30.8511 28.7553 31.8651 29.9992 31.8651C31.2431 31.8651 32.2515 30.8511 32.2515 29.6004Z" fill="#849ACE"/>
<path d="M45.7653 29.6004C45.7653 28.3496 44.7569 27.3356 43.513 27.3356C42.2691 27.3356 41.2607 28.3496 41.2607 29.6004C41.2607 30.8511 42.2691 31.8651 43.513 31.8651C44.7569 31.8651 45.7653 30.8511 45.7653 29.6004Z" fill="#849ACE"/>
<path d="M59.2791 29.6004C59.2791 28.3496 58.2707 27.3356 57.0268 27.3356C55.7829 27.3356 54.7745 28.3496 54.7745 29.6004C54.7745 30.8511 55.7829 31.8651 57.0268 31.8651C58.2707 31.8651 59.2791 30.8511 59.2791 29.6004Z" fill="#849ACE"/>
<path d="M72.7928 29.6004C72.7928 28.3496 71.7845 27.3356 70.5405 27.3356C69.2966 27.3356 68.2882 28.3496 68.2882 29.6004C68.2882 30.8511 69.2966 31.8651 70.5405 31.8651C71.7845 31.8651 72.7928 30.8511 72.7928 29.6004Z" fill="#849ACE"/>
<path d="M86.3066 29.6004C86.3066 28.3496 85.2982 27.3356 84.0543 27.3356C82.8104 27.3356 81.802 28.3496 81.802 29.6004C81.802 30.8511 82.8104 31.8651 84.0543 31.8651C85.2982 31.8651 86.3066 30.8511 86.3066 29.6004Z" fill="#849ACE"/>
<path d="M99.8204 29.6004C99.8204 28.3496 98.812 27.3356 97.5681 27.3356C96.3242 27.3356 95.3158 28.3496 95.3158 29.6004C95.3158 30.8511 96.3242 31.8651 97.5681 31.8651C98.812 31.8651 99.8204 30.8511 99.8204 29.6004Z" fill="#849ACE"/>
<path d="M113.334 29.6004C113.334 28.3496 112.326 27.3356 111.082 27.3356C109.838 27.3356 108.83 28.3496 108.83 29.6004C108.83 30.8511 109.838 31.8651 111.082 31.8651C112.326 31.8651 113.334 30.8511 113.334 29.6004Z" fill="#849ACE"/>
<path d="M126.848 29.6004C126.848 28.3496 125.84 27.3356 124.596 27.3356C123.352 27.3356 122.343 28.3496 122.343 29.6004C122.343 30.8511 123.352 31.8651 124.596 31.8651C125.84 31.8651 126.848 30.8511 126.848 29.6004Z" fill="#849ACE"/>
<path d="M140.362 29.6004C140.362 28.3496 139.353 27.3356 138.109 27.3356C136.866 27.3356 135.857 28.3496 135.857 29.6004C135.857 30.8511 136.866 31.8651 138.109 31.8651C139.353 31.8651 140.362 30.8511 140.362 29.6004Z" fill="#849ACE"/>
<path d="M5.22395 16.0121C5.22395 14.7614 4.21557 13.7474 2.97166 13.7474C1.72775 13.7474 0.71936 14.7614 0.71936 16.0121C0.71936 17.2629 1.72775 18.2768 2.97166 18.2768C4.21557 18.2768 5.22395 17.2629 5.22395 16.0121Z" fill="#849ACE"/>
<path d="M18.7377 16.0121C18.7377 14.7614 17.7293 13.7474 16.4854 13.7474C15.2415 13.7474 14.2331 14.7614 14.2331 16.0121C14.2331 17.2629 15.2415 18.2768 16.4854 18.2768C17.7293 18.2768 18.7377 17.2629 18.7377 16.0121Z" fill="#849ACE"/>
<path d="M32.2515 16.0121C32.2515 14.7614 31.2431 13.7474 29.9992 13.7474C28.7553 13.7474 27.7469 14.7614 27.7469 16.0121C27.7469 17.2629 28.7553 18.2768 29.9992 18.2768C31.2431 18.2768 32.2515 17.2629 32.2515 16.0121Z" fill="#849ACE"/>
<path d="M45.7653 16.0121C45.7653 14.7614 44.7569 13.7474 43.513 13.7474C42.2691 13.7474 41.2607 14.7614 41.2607 16.0121C41.2607 17.2629 42.2691 18.2768 43.513 18.2768C44.7569 18.2768 45.7653 17.2629 45.7653 16.0121Z" fill="#849ACE"/>
<path d="M59.2791 16.0121C59.2791 14.7614 58.2707 13.7474 57.0268 13.7474C55.7829 13.7474 54.7745 14.7614 54.7745 16.0121C54.7745 17.2629 55.7829 18.2768 57.0268 18.2768C58.2707 18.2768 59.2791 17.2629 59.2791 16.0121Z" fill="#849ACE"/>
<path d="M72.7928 16.0121C72.7928 14.7614 71.7845 13.7474 70.5405 13.7474C69.2966 13.7474 68.2882 14.7614 68.2882 16.0121C68.2882 17.2629 69.2966 18.2768 70.5405 18.2768C71.7845 18.2768 72.7928 17.2629 72.7928 16.0121Z" fill="#849ACE"/>
<path d="M86.3066 16.0121C86.3066 14.7614 85.2982 13.7474 84.0543 13.7474C82.8104 13.7474 81.802 14.7614 81.802 16.0121C81.802 17.2629 82.8104 18.2768 84.0543 18.2768C85.2982 18.2768 86.3066 17.2629 86.3066 16.0121Z" fill="#849ACE"/>
<path d="M99.8204 16.0121C99.8204 14.7614 98.812 13.7474 97.5681 13.7474C96.3242 13.7474 95.3158 14.7614 95.3158 16.0121C95.3158 17.2629 96.3242 18.2768 97.5681 18.2768C98.812 18.2768 99.8204 17.2629 99.8204 16.0121Z" fill="#849ACE"/>
<path d="M113.334 16.0121C113.334 14.7614 112.326 13.7474 111.082 13.7474C109.838 13.7474 108.83 14.7614 108.83 16.0121C108.83 17.2629 109.838 18.2768 111.082 18.2768C112.326 18.2768 113.334 17.2629 113.334 16.0121Z" fill="#849ACE"/>
<path d="M126.848 16.0121C126.848 14.7614 125.84 13.7474 124.596 13.7474C123.352 13.7474 122.343 14.7614 122.343 16.0121C122.343 17.2629 123.352 18.2768 124.596 18.2768C125.84 18.2768 126.848 17.2629 126.848 16.0121Z" fill="#849ACE"/>
<path d="M140.362 16.0121C140.362 14.7614 139.353 13.7474 138.109 13.7474C136.866 13.7474 135.857 14.7614 135.857 16.0121C135.857 17.2629 136.866 18.2768 138.109 18.2768C139.353 18.2768 140.362 17.2629 140.362 16.0121Z" fill="#849ACE"/>
<path d="M5.22395 2.42389C5.22395 1.17313 4.21557 0.15918 2.97166 0.15918C1.72775 0.15918 0.71936 1.17313 0.71936 2.42389C0.71936 3.67465 1.72775 4.68858 2.97166 4.68858C4.21557 4.68858 5.22395 3.67465 5.22395 2.42389Z" fill="#849ACE"/>
<path d="M18.7377 2.42389C18.7377 1.17313 17.7293 0.15918 16.4854 0.15918C15.2415 0.15918 14.2331 1.17313 14.2331 2.42389C14.2331 3.67465 15.2415 4.68858 16.4854 4.68858C17.7293 4.68858 18.7377 3.67465 18.7377 2.42389Z" fill="#849ACE"/>
<path d="M32.2515 2.42389C32.2515 1.17313 31.2431 0.15918 29.9992 0.15918C28.7553 0.15918 27.7469 1.17313 27.7469 2.42389C27.7469 3.67465 28.7553 4.68858 29.9992 4.68858C31.2431 4.68858 32.2515 3.67465 32.2515 2.42389Z" fill="#849ACE"/>
<path d="M45.7653 2.42389C45.7653 1.17313 44.7569 0.15918 43.513 0.15918C42.2691 0.15918 41.2607 1.17313 41.2607 2.42389C41.2607 3.67465 42.2691 4.68858 43.513 4.68858C44.7569 4.68858 45.7653 3.67465 45.7653 2.42389Z" fill="#849ACE"/>
<path d="M59.2791 2.42389C59.2791 1.17313 58.2707 0.15918 57.0268 0.15918C55.7829 0.15918 54.7745 1.17313 54.7745 2.42389C54.7745 3.67465 55.7829 4.68858 57.0268 4.68858C58.2707 4.68858 59.2791 3.67465 59.2791 2.42389Z" fill="#849ACE"/>
<path d="M72.7928 2.42389C72.7928 1.17313 71.7845 0.15918 70.5405 0.15918C69.2966 0.15918 68.2882 1.17313 68.2882 2.42389C68.2882 3.67465 69.2966 4.68858 70.5405 4.68858C71.7845 4.68858 72.7928 3.67465 72.7928 2.42389Z" fill="#849ACE"/>
<path d="M86.3066 2.42389C86.3066 1.17313 85.2982 0.15918 84.0543 0.15918C82.8104 0.15918 81.802 1.17313 81.802 2.42389C81.802 3.67465 82.8104 4.68858 84.0543 4.68858C85.2982 4.68858 86.3066 3.67465 86.3066 2.42389Z" fill="#849ACE"/>
<path d="M99.8204 2.42389C99.8204 1.17313 98.812 0.15918 97.5681 0.15918C96.3242 0.15918 95.3158 1.17313 95.3158 2.42389C95.3158 3.67465 96.3242 4.68858 97.5681 4.68858C98.812 4.68858 99.8204 3.67465 99.8204 2.42389Z" fill="#849ACE"/>
<path d="M113.334 2.42389C113.334 1.17313 112.326 0.15918 111.082 0.15918C109.838 0.15918 108.83 1.17313 108.83 2.42389C108.83 3.67465 109.838 4.68858 111.082 4.68858C112.326 4.68858 113.334 3.67465 113.334 2.42389Z" fill="#849ACE"/>
<path d="M126.848 2.42389C126.848 1.17313 125.84 0.15918 124.596 0.15918C123.352 0.15918 122.343 1.17313 122.343 2.42389C122.343 3.67465 123.352 4.68858 124.596 4.68858C125.84 4.68858 126.848 3.67465 126.848 2.42389Z" fill="#849ACE"/>
<path d="M140.362 2.42389C140.362 1.17313 139.353 0.15918 138.109 0.15918C136.866 0.15918 135.857 1.17313 135.857 2.42389C135.857 3.67465 136.866 4.68858 138.109 4.68858C139.353 4.68858 140.362 3.67465 140.362 2.42389Z" fill="#849ACE"/>
</svg>
