<svg width="30" height="30" viewBox="0 0 30 30" fill="none" xmlns="http://www.w3.org/2000/svg">
<path d="M22.1337 17.1337L25.4437 20.4437C25.5496 20.5496 25.6336 20.6753 25.6909 20.8136C25.7482 20.9519 25.7777 21.1002 25.7777 21.25C25.7777 21.3997 25.7482 21.548 25.6909 21.6863C25.6336 21.8247 25.5496 21.9504 25.4437 22.0562C24.2796 23.2201 22.7348 23.9251 21.0928 24.0418C19.4508 24.1584 17.8219 23.6789 16.5049 22.6912L14.5362 21.2137C12.3567 19.5792 10.4207 17.6432 8.7862 15.4637L7.3087 13.495C6.32101 12.1781 5.84147 10.5491 5.95812 8.90709C6.07476 7.26509 6.77976 5.72027 7.9437 4.55621C8.04956 4.45031 8.17525 4.3663 8.31359 4.30899C8.45193 4.25167 8.6002 4.22217 8.74995 4.22217C8.89969 4.22217 9.04796 4.25167 9.1863 4.30899C9.32464 4.3663 9.45033 4.45031 9.5562 4.55621L12.8662 7.86621C13.1005 8.10062 13.2322 8.41851 13.2322 8.74996C13.2322 9.08142 13.1005 9.3993 12.8662 9.63371L11.5899 10.91C11.4908 11.0089 11.4254 11.1365 11.403 11.2748C11.3805 11.413 11.4022 11.5548 11.4649 11.68C12.9481 14.6464 15.3535 17.0518 18.3199 18.535C18.4451 18.5977 18.5869 18.6194 18.7252 18.5969C18.8634 18.5745 18.991 18.5091 19.0899 18.41L20.3649 17.135C20.481 17.0187 20.6189 16.9265 20.7706 16.8636C20.9224 16.8007 21.0851 16.7684 21.2493 16.7684C21.4136 16.7684 21.5762 16.8007 21.728 16.8636C21.8797 16.9265 22.0176 17.0187 22.1337 17.135V17.1337Z" stroke="#DF8317"/>
</svg>
