<svg width="46" height="15" viewBox="0 0 46 15" fill="none" xmlns="http://www.w3.org/2000/svg">
<path fill-rule="evenodd" clip-rule="evenodd" d="M8.05721 14.9998C8.03816 14.9999 8.01909 15 8 15C7.98091 15 7.96184 14.9999 7.94279 14.9998H7.4469V14.9799C3.56303 14.6968 0.5 11.4561 0.5 7.5C0.5 3.54389 3.56303 0.30319 7.4469 0.0200851V0H8H37.5841V0.011337C37.7218 0.00381182 37.8604 0 38 0C42.1421 0 45.5 3.35786 45.5 7.5C45.5 11.6421 42.1421 15 38 15C37.8604 15 37.7218 14.9962 37.5841 14.9887V14.9998H8.05721Z" fill="#121743"/>
</svg>
