<svg width="16" height="16" viewBox="0 0 16 16" fill="none" xmlns="http://www.w3.org/2000/svg">
<path d="M0.493347 8.14671C0.493347 6.78671 0.833347 5.52671 1.50668 4.37338C2.18001 3.22004 3.09335 2.30671 4.24668 1.63338C5.40001 0.960042 6.65335 0.626709 8.00668 0.626709C9.02001 0.626709 9.99335 0.826709 10.92 1.22004C11.8467 1.61338 12.64 2.15338 13.3133 2.82004C13.9867 3.48671 14.52 4.28671 14.9133 5.22004C15.3067 6.15338 15.5067 7.12004 15.5067 8.14671C15.5067 9.16004 15.3067 10.1334 14.9133 11.06C14.52 11.9867 13.98 12.7867 13.3133 13.4534C12.6467 14.12 11.8467 14.6534 10.92 15.0467C9.99335 15.44 9.02668 15.64 8.00668 15.64C6.98668 15.64 6.00668 15.44 5.08001 15.0467C4.15335 14.6534 3.35335 14.1134 2.68001 13.4467C2.00668 12.78 1.48001 11.98 1.08001 11.06C0.680014 10.14 0.493347 9.16671 0.493347 8.14671ZM2.14668 8.14671C2.14668 9.72671 2.72001 11.1 3.87335 12.2667C5.02668 13.42 6.40001 13.9934 8.00668 13.9934C9.06001 13.9934 10.04 13.7334 10.9333 13.2067C11.8267 12.68 12.5467 11.9734 13.0733 11.0734C13.6 10.1734 13.8667 9.20004 13.8667 8.14671C13.8667 7.09338 13.6 6.11338 13.0733 5.21338C12.5467 4.31338 11.8333 3.60004 10.9333 3.07338C10.0333 2.54671 9.06001 2.28671 8.00668 2.28671C6.95335 2.28671 5.97335 2.54671 5.08001 3.07338C4.18001 3.60004 3.46668 4.31338 2.93335 5.21338C2.40001 6.11338 2.14668 7.09338 2.14668 8.14671ZM5.89335 5.32671C5.93335 5.18004 6.02001 5.06671 6.14668 4.99338C6.28001 4.91338 6.42001 4.89338 6.57335 4.93338C6.72668 4.97338 6.84001 5.06004 6.91335 5.18671L7.43335 6.05338V3.70671C7.43335 3.55338 7.48668 3.42004 7.59335 3.31338C7.70001 3.20671 7.83335 3.15338 7.98668 3.15338C8.14001 3.15338 8.27335 3.20671 8.38001 3.31338C8.48668 3.42004 8.54001 3.55338 8.54001 3.70671V8.15338C8.54001 8.30671 8.48668 8.44004 8.38001 8.54671C8.27335 8.65338 8.14001 8.70671 7.98668 8.70671C7.72001 8.70671 7.54668 8.58671 7.46001 8.35338L5.95335 5.74671C5.91439 5.68485 5.8889 5.61548 5.87856 5.54311C5.86823 5.47074 5.87326 5.397 5.89335 5.32671Z" fill="#DF8317"/>
</svg>
