<svg width="16" height="19" viewBox="0 0 16 19" fill="none" xmlns="http://www.w3.org/2000/svg">
<path d="M8 9.5C9.16032 9.5 10.2731 9.03906 11.0936 8.21859C11.9141 7.39812 12.375 6.28532 12.375 5.125C12.375 3.96468 11.9141 2.85188 11.0936 2.03141C10.2731 1.21094 9.16032 0.75 8 0.75C6.83968 0.75 5.72688 1.21094 4.90641 2.03141C4.08594 2.85188 3.625 3.96468 3.625 5.125C3.625 6.28532 4.08594 7.39812 4.90641 8.21859C5.72688 9.03906 6.83968 9.5 8 9.5ZM2.6875 10.75C2.10734 10.75 1.55094 10.9805 1.1407 11.3907C0.730468 11.8009 0.5 12.3573 0.5 12.9375V13.25C0.5 14.7456 1.45187 16.0106 2.80312 16.8706C4.16188 17.7356 6.00125 18.25 8 18.25C9.99875 18.25 11.8375 17.7356 13.1969 16.8706C14.5481 16.0106 15.5 14.7456 15.5 13.25V12.9375C15.5 12.3573 15.2695 11.8009 14.8593 11.3907C14.4491 10.9805 13.8927 10.75 13.3125 10.75H2.6875Z" fill="#DF8317"/>
</svg>
