<svg width="14" height="14" viewBox="0 0 14 14" fill="none" xmlns="http://www.w3.org/2000/svg">
<path d="M12.5 14H1.5C1.13544 13.9997 0.785914 13.8943 0.52813 13.7068C0.270347 13.5193 0.125364 13.2651 0.125 13V1C0.125364 0.734865 0.270347 0.480665 0.52813 0.293186C0.785914 0.105707 1.13544 0.000264738 1.5 0H12.5C12.8646 0.000264738 13.2141 0.105707 13.4719 0.293186C13.7297 0.480665 13.8746 0.734865 13.875 1V9.309L10.4375 8.059L7 9.309V1H1.5V13H12.5V11H13.875V13C13.8745 13.2651 13.7294 13.5192 13.4717 13.7067C13.2139 13.8941 12.8645 13.9996 12.5 14ZM10.4375 6.941L12.5 7.691V1H8.375V7.691L10.4375 6.941Z" fill="#DF8317"/>
</svg>
