<svg width="22" height="26" viewBox="0 0 22 26" fill="none" xmlns="http://www.w3.org/2000/svg">
<path d="M18.4999 15.1428C19.3524 15.1428 20.17 15.4815 20.7728 16.0843C21.3756 16.6871 21.7142 17.5046 21.7142 18.3571V19.1232C21.7142 22.9557 17.2035 25.8571 10.9999 25.8571C4.79636 25.8571 0.285645 23.1068 0.285645 19.1232V18.3571C0.285645 17.5046 0.624292 16.6871 1.22709 16.0843C1.82988 15.4815 2.64745 15.1428 3.49993 15.1428H18.4999ZM18.4999 16.75H3.49993C3.10058 16.75 2.71553 16.8986 2.41981 17.167C2.1241 17.4354 1.93889 17.8043 1.90029 18.2017L1.89279 18.3571V19.1232C1.89279 21.9882 5.52386 24.25 10.9999 24.25C16.2778 24.25 19.9517 21.9946 20.1028 19.2957L20.1071 19.1232V18.3571C20.1071 17.9578 19.9584 17.5727 19.69 17.277C19.4216 16.9813 19.0528 16.7961 18.6553 16.7575L18.4999 16.75ZM10.9999 0.142822C11.8441 0.142822 12.6801 0.309102 13.46 0.632168C14.24 0.955234 14.9487 1.42876 15.5456 2.02571C16.1426 2.62266 16.6161 3.33134 16.9392 4.11129C17.2622 4.89124 17.4285 5.72718 17.4285 6.57139C17.4285 7.41561 17.2622 8.25155 16.9392 9.0315C16.6161 9.81145 16.1426 10.5201 15.5456 11.1171C14.9487 11.714 14.24 12.1876 13.46 12.5106C12.6801 12.8337 11.8441 13 10.9999 13C9.29497 13 7.65983 12.3227 6.45424 11.1171C5.24865 9.91149 4.57136 8.27636 4.57136 6.57139C4.57136 4.86643 5.24865 3.2313 6.45424 2.02571C7.65983 0.820116 9.29497 0.142822 10.9999 0.142822ZM10.9999 1.74997C9.72121 1.74997 8.49486 2.25794 7.59067 3.16213C6.68647 4.06632 6.1785 5.29267 6.1785 6.57139C6.1785 7.85012 6.68647 9.07646 7.59067 9.98066C8.49486 10.8849 9.72121 11.3928 10.9999 11.3928C12.2787 11.3928 13.505 10.8849 14.4092 9.98066C15.3134 9.07646 15.8214 7.85012 15.8214 6.57139C15.8214 5.29267 15.3134 4.06632 14.4092 3.16213C13.505 2.25794 12.2787 1.74997 10.9999 1.74997Z" fill="#DF8317"/>
</svg>
